solid unnamed
facet normal 0.99518466 0 -0.09801717
    outer loop
        vertex 9.807853 -0 -1.9509032
        vertex 10 -0 0
        vertex 9.807853 -285 -1.9509032
    endloop
endfacet
facet normal 0.95694023 0 -0.29028463
    outer loop
        vertex 9.238795 -0 -3.8268344
        vertex 9.807853 -0 -1.9509032
        vertex 9.807853 -285 -1.9509032
    endloop
endfacet
facet normal 0.88192129 0 -0.47139665
    outer loop
        vertex 8.314696 -0 -5.555702
        vertex 9.238795 -0 -3.8268344
        vertex 9.238795 -285 -3.8268344
    endloop
endfacet
facet normal 0.88192129 0 -0.47139665
    outer loop
        vertex 8.314696 -285 -5.555702
        vertex 8.314696 -0 -5.555702
        vertex 9.238795 -285 -3.8268344
    endloop
endfacet
facet normal 0.77301043 0 -0.63439327
    outer loop
        vertex 7.071068 -285 -7.071068
        vertex 7.071068 -0 -7.071068
        vertex 8.314696 -285 -5.555702
    endloop
endfacet
facet normal 0.63439327 0 -0.77301043
    outer loop
        vertex 7.071068 -285 -7.071068
        vertex 5.555702 -0 -8.314696
        vertex 7.071068 -0 -7.071068
    endloop
endfacet
facet normal 0.47139665 0 -0.88192129
    outer loop
        vertex 5.555702 -285 -8.314696
        vertex 3.8268344 -0 -9.238795
        vertex 5.555702 -0 -8.314696
    endloop
endfacet
facet normal 0.47139665 0 -0.88192129
    outer loop
        vertex 5.555702 -285 -8.314696
        vertex 3.8268344 -285 -9.238795
        vertex 3.8268344 -0 -9.238795
    endloop
endfacet
facet normal 0.29028463 0 -0.95694023
    outer loop
        vertex 3.8268344 -285 -9.238795
        vertex 1.9509032 -285 -9.807853
        vertex 1.9509032 -0 -9.807853
    endloop
endfacet
facet normal 0.09801717 0 -0.99518466
    outer loop
        vertex 1.9509032 -0 -9.807853
        vertex 1.9509032 -285 -9.807853
        vertex -0.00000000000000183697 -0 -10
    endloop
endfacet
facet normal -0.09801717 -0 -0.99518466
    outer loop
        vertex -0.00000000000000183697 -0 -10
        vertex 0 -285 -10
        vertex -1.9509032 -0 -9.807853
    endloop
endfacet
facet normal -0.09801717 -0 -0.99518466
    outer loop
        vertex -1.9509032 -0 -9.807853
        vertex 0 -285 -10
        vertex -1.9509032 -285 -9.807853
    endloop
endfacet
facet normal -0.29028463 -0 -0.95694023
    outer loop
        vertex -3.8268344 -0 -9.238795
        vertex -1.9509032 -285 -9.807853
        vertex -3.8268344 -285 -9.238795
    endloop
endfacet
facet normal -0.47139665 0 -0.88192129
    outer loop
        vertex -5.555702 -0 -8.314696
        vertex -3.8268344 -0 -9.238795
        vertex -3.8268344 -285 -9.238795
    endloop
endfacet
facet normal -0.63439327 0 -0.77301043
    outer loop
        vertex -7.071068 -0 -7.071068
        vertex -5.555702 -0 -8.314696
        vertex -5.555702 -285 -8.314696
    endloop
endfacet
facet normal -0.63439327 0 -0.77301043
    outer loop
        vertex -7.071068 -285 -7.071068
        vertex -7.071068 -0 -7.071068
        vertex -5.555702 -285 -8.314696
    endloop
endfacet
facet normal -0.77301043 0 -0.63439327
    outer loop
        vertex -8.314696 -285 -5.555702
        vertex -8.314696 -0 -5.555702
        vertex -7.071068 -285 -7.071068
    endloop
endfacet
facet normal -0.88192129 0 -0.47139665
    outer loop
        vertex -8.314696 -285 -5.555702
        vertex -9.238795 -0 -3.8268344
        vertex -8.314696 -0 -5.555702
    endloop
endfacet
facet normal -0.95694023 0 -0.29028463
    outer loop
        vertex -9.238795 -285 -3.8268344
        vertex -9.807853 -0 -1.9509032
        vertex -9.238795 -0 -3.8268344
    endloop
endfacet
facet normal -0.95694023 0 -0.29028463
    outer loop
        vertex -9.238795 -285 -3.8268344
        vertex -9.807853 -285 -1.9509032
        vertex -9.807853 -0 -1.9509032
    endloop
endfacet
facet normal -0.99518466 0 -0.09801717
    outer loop
        vertex -9.807853 -285 -1.9509032
        vertex -10 -285 -0.0000000000000012246468
        vertex -10 -0 0.0000000000000012246468
    endloop
endfacet
facet normal -0.99518466 -0 0.09801717
    outer loop
        vertex -10 -0 0.0000000000000012246468
        vertex -10 -285 -0.0000000000000012246468
        vertex -9.807853 -0 1.9509032
    endloop
endfacet
facet normal -0.95694023 0 0.29028463
    outer loop
        vertex -9.807853 -0 1.9509032
        vertex -9.807853 -285 1.9509032
        vertex -9.238795 -0 3.8268344
    endloop
endfacet
facet normal -0.95694023 0 0.29028463
    outer loop
        vertex -9.238795 -0 3.8268344
        vertex -9.807853 -285 1.9509032
        vertex -9.238795 -285 3.8268344
    endloop
endfacet
facet normal -0.88192129 0 0.47139665
    outer loop
        vertex -8.314696 -0 5.555702
        vertex -9.238795 -285 3.8268344
        vertex -8.314696 -285 5.555702
    endloop
endfacet
facet normal -0.77301043 0 0.63439327
    outer loop
        vertex -7.071068 -0 7.071068
        vertex -8.314696 -0 5.555702
        vertex -8.314696 -285 5.555702
    endloop
endfacet
facet normal -0.63439327 0 0.77301043
    outer loop
        vertex -5.555702 -0 8.314696
        vertex -7.071068 -0 7.071068
        vertex -7.071068 -285 7.071068
    endloop
endfacet
facet normal -0.63439327 0 0.77301043
    outer loop
        vertex -5.555702 -285 8.314696
        vertex -5.555702 -0 8.314696
        vertex -7.071068 -285 7.071068
    endloop
endfacet
facet normal -0.47139665 0 0.88192129
    outer loop
        vertex -3.8268344 -285 9.238795
        vertex -3.8268344 -0 9.238795
        vertex -5.555702 -285 8.314696
    endloop
endfacet
facet normal -0.29028463 0 0.95694023
    outer loop
        vertex -3.8268344 -285 9.238795
        vertex -1.9509032 -0 9.807853
        vertex -3.8268344 -0 9.238795
    endloop
endfacet
facet normal -0.09801717 0 0.99518466
    outer loop
        vertex -1.9509032 -285 9.807853
        vertex 0.0000000000000006123234 -0 10
        vertex -1.9509032 -0 9.807853
    endloop
endfacet
facet normal 0.99518466 0 0.09801717
    outer loop
        vertex 9.807853 -285 1.9509032
        vertex 10 -285 0
        vertex 10 -0 0
    endloop
endfacet
facet normal 0.99518466 0 0.09801717
    outer loop
        vertex 9.807853 -0 1.9509032
        vertex 9.807853 -285 1.9509032
        vertex 10 -0 0
    endloop
endfacet
facet normal 0.95694023 0 0.29028463
    outer loop
        vertex 9.807853 -0 1.9509032
        vertex 9.238795 -285 3.8268344
        vertex 9.807853 -285 1.9509032
    endloop
endfacet
facet normal 0.95694023 0 0.29028463
    outer loop
        vertex 9.807853 -0 1.9509032
        vertex 9.238795 -0 3.8268344
        vertex 9.238795 -285 3.8268344
    endloop
endfacet
facet normal 0.88192129 -0 0.47139665
    outer loop
        vertex 9.238795 -285 3.8268344
        vertex 9.238795 -0 3.8268344
        vertex 8.314696 -285 5.555702
    endloop
endfacet
facet normal 0.88192129 -0 0.47139665
    outer loop
        vertex 8.314696 -285 5.555702
        vertex 9.238795 -0 3.8268344
        vertex 8.314696 -0 5.555702
    endloop
endfacet
facet normal 0.77301043 0 0.63439327
    outer loop
        vertex 7.071068 -285 7.071068
        vertex 8.314696 -285 5.555702
        vertex 8.314696 -0 5.555702
    endloop
endfacet
facet normal 0.77301043 0 0.63439327
    outer loop
        vertex 7.071068 -0 7.071068
        vertex 7.071068 -285 7.071068
        vertex 8.314696 -0 5.555702
    endloop
endfacet
facet normal 0.63439327 0 0.77301043
    outer loop
        vertex 7.071068 -0 7.071068
        vertex 5.555702 -285 8.314696
        vertex 7.071068 -285 7.071068
    endloop
endfacet
facet normal 0.63439327 0 0.77301043
    outer loop
        vertex 7.071068 -0 7.071068
        vertex 5.555702 -0 8.314696
        vertex 5.555702 -285 8.314696
    endloop
endfacet
facet normal 0.47139665 -0 0.88192129
    outer loop
        vertex 5.555702 -285 8.314696
        vertex 5.555702 -0 8.314696
        vertex 3.8268344 -285 9.238795
    endloop
endfacet
facet normal 0.47139665 -0 0.88192129
    outer loop
        vertex 3.8268344 -285 9.238795
        vertex 5.555702 -0 8.314696
        vertex 3.8268344 -0 9.238795
    endloop
endfacet
facet normal 0.29028463 0 0.95694023
    outer loop
        vertex 1.9509032 -285 9.807853
        vertex 3.8268344 -285 9.238795
        vertex 3.8268344 -0 9.238795
    endloop
endfacet
facet normal 0.29028463 0 0.95694023
    outer loop
        vertex 1.9509032 -0 9.807853
        vertex 1.9509032 -285 9.807853
        vertex 3.8268344 -0 9.238795
    endloop
endfacet
facet normal 0.09801717 0 0.99518466
    outer loop
        vertex 1.9509032 -0 9.807853
        vertex 0 -285 10
        vertex 1.9509032 -285 9.807853
    endloop
endfacet
facet normal 0.09801717 0 0.99518466
    outer loop
        vertex 1.9509032 -0 9.807853
        vertex 0.0000000000000006123234 -0 10
        vertex 0 -285 10
    endloop
endfacet
facet normal -0.09801717 0 0.99518466
    outer loop
        vertex 0 -285 10
        vertex 0.0000000000000006123234 -0 10
        vertex -1.9509032 -285 9.807853
    endloop
endfacet
facet normal -0.29028463 0 0.95694023
    outer loop
        vertex -1.9509032 -285 9.807853
        vertex -1.9509032 -0 9.807853
        vertex -3.8268344 -285 9.238795
    endloop
endfacet
facet normal -0.47139665 0 0.88192129
    outer loop
        vertex -3.8268344 -0 9.238795
        vertex -5.555702 -0 8.314696
        vertex -5.555702 -285 8.314696
    endloop
endfacet
facet normal -0.77301043 0 0.63439327
    outer loop
        vertex -7.071068 -0 7.071068
        vertex -8.314696 -285 5.555702
        vertex -7.071068 -285 7.071068
    endloop
endfacet
facet normal -0.88192129 0 0.47139665
    outer loop
        vertex -9.238795 -0 3.8268344
        vertex -9.238795 -285 3.8268344
        vertex -8.314696 -0 5.555702
    endloop
endfacet
facet normal -0.99518466 0 0.09801717
    outer loop
        vertex -10 -285 -0.0000000000000012246468
        vertex -9.807853 -285 1.9509032
        vertex -9.807853 -0 1.9509032
    endloop
endfacet
facet normal -0.99518466 0 -0.09801717
    outer loop
        vertex -9.807853 -285 -1.9509032
        vertex -10 -0 0.0000000000000012246468
        vertex -9.807853 -0 -1.9509032
    endloop
endfacet
facet normal -0.88192129 0 -0.47139665
    outer loop
        vertex -9.238795 -285 -3.8268344
        vertex -9.238795 -0 -3.8268344
        vertex -8.314696 -285 -5.555702
    endloop
endfacet
facet normal -0.77301043 0 -0.63439327
    outer loop
        vertex -8.314696 -0 -5.555702
        vertex -7.071068 -0 -7.071068
        vertex -7.071068 -285 -7.071068
    endloop
endfacet
facet normal -0.47139665 -0 -0.88192129
    outer loop
        vertex -5.555702 -0 -8.314696
        vertex -3.8268344 -285 -9.238795
        vertex -5.555702 -285 -8.314696
    endloop
endfacet
facet normal -0.29028463 -0 -0.95694023
    outer loop
        vertex -1.9509032 -0 -9.807853
        vertex -1.9509032 -285 -9.807853
        vertex -3.8268344 -0 -9.238795
    endloop
endfacet
facet normal 0.09801717 0 -0.99518466
    outer loop
        vertex 1.9509032 -285 -9.807853
        vertex 0 -285 -10
        vertex -0.00000000000000183697 -0 -10
    endloop
endfacet
facet normal 0.29028463 0 -0.95694023
    outer loop
        vertex 3.8268344 -285 -9.238795
        vertex 1.9509032 -0 -9.807853
        vertex 3.8268344 -0 -9.238795
    endloop
endfacet
facet normal 0.63439327 0 -0.77301043
    outer loop
        vertex 5.555702 -285 -8.314696
        vertex 5.555702 -0 -8.314696
        vertex 7.071068 -285 -7.071068
    endloop
endfacet
facet normal 0.77301043 0 -0.63439327
    outer loop
        vertex 7.071068 -0 -7.071068
        vertex 8.314696 -0 -5.555702
        vertex 8.314696 -285 -5.555702
    endloop
endfacet
facet normal 0.95694023 0 -0.29028463
    outer loop
        vertex 9.238795 -285 -3.8268344
        vertex 9.238795 -0 -3.8268344
        vertex 9.807853 -285 -1.9509032
    endloop
endfacet
facet normal 0.99518466 0 -0.09801717
    outer loop
        vertex 10 -0 0
        vertex 10 -285 0
        vertex 9.807853 -285 -1.9509032
    endloop
endfacet
facet normal 0 1 0
    outer loop
        vertex 9.238795 -0 -3.8268344
        vertex 10 -0 0
        vertex 9.807853 -0 -1.9509032
    endloop
endfacet
facet normal 0 1 0
    outer loop
        vertex 8.314696 -0 -5.555702
        vertex 10 -0 0
        vertex 9.238795 -0 -3.8268344
    endloop
endfacet
facet normal 0 1 0
    outer loop
        vertex 7.071068 -0 -7.071068
        vertex 10 -0 0
        vertex 8.314696 -0 -5.555702
    endloop
endfacet
facet normal 0 1 0
    outer loop
        vertex 5.555702 -0 -8.314696
        vertex 10 -0 0
        vertex 7.071068 -0 -7.071068
    endloop
endfacet
facet normal 0 1 -0
    outer loop
        vertex 3.8268344 -0 -9.238795
        vertex 1.9509032 -0 -9.807853
        vertex 10 -0 0
    endloop
endfacet
facet normal 0 1 0
    outer loop
        vertex 3.8268344 -0 -9.238795
        vertex 10 -0 0
        vertex 5.555702 -0 -8.314696
    endloop
endfacet
facet normal 0 1 -0
    outer loop
        vertex 1.9509032 -0 -9.807853
        vertex -0.00000000000000183697 -0 -10
        vertex 10 -0 0
    endloop
endfacet
facet normal 0 1 -0
    outer loop
        vertex -0.00000000000000183697 -0 -10
        vertex -1.9509032 -0 -9.807853
        vertex 10 -0 0
    endloop
endfacet
facet normal 0 0.99999994 0
    outer loop
        vertex 10 -0 0
        vertex -1.9509032 -0 -9.807853
        vertex -3.8268344 -0 -9.238795
    endloop
endfacet
facet normal 0 1 0
    outer loop
        vertex 10 -0 0
        vertex -3.8268344 -0 -9.238795
        vertex -5.555702 -0 -8.314696
    endloop
endfacet
facet normal 0 1 0
    outer loop
        vertex 10 -0 0
        vertex -5.555702 -0 -8.314696
        vertex -7.071068 -0 -7.071068
    endloop
endfacet
facet normal -0 1 0
    outer loop
        vertex -9.238795 -0 -3.8268344
        vertex 10 -0 0
        vertex -8.314696 -0 -5.555702
    endloop
endfacet
facet normal 0 1 0
    outer loop
        vertex 10 -0 0
        vertex -7.071068 -0 -7.071068
        vertex -8.314696 -0 -5.555702
    endloop
endfacet
facet normal 0 1 -0
    outer loop
        vertex -9.807853 -0 -1.9509032
        vertex -10 -0 0.0000000000000012246468
        vertex 10 -0 0
    endloop
endfacet
facet normal -0 1 0
    outer loop
        vertex -10 -0 0.0000000000000012246468
        vertex -9.807853 -0 1.9509032
        vertex 10 -0 0
    endloop
endfacet
facet normal 0 1 0
    outer loop
        vertex 10 -0 0
        vertex -9.807853 -0 1.9509032
        vertex -9.238795 -0 3.8268344
    endloop
endfacet
facet normal 0 1 0
    outer loop
        vertex 10 -0 0
        vertex -9.238795 -0 3.8268344
        vertex -8.314696 -0 5.555702
    endloop
endfacet
facet normal 0 1 0
    outer loop
        vertex 10 -0 0
        vertex -8.314696 -0 5.555702
        vertex -7.071068 -0 7.071068
    endloop
endfacet
facet normal 0 1 0
    outer loop
        vertex -3.8268344 -0 9.238795
        vertex 10 -0 0
        vertex -5.555702 -0 8.314696
    endloop
endfacet
facet normal 0 1 0
    outer loop
        vertex 10 -0 0
        vertex -7.071068 -0 7.071068
        vertex -5.555702 -0 8.314696
    endloop
endfacet
facet normal 0 0.99999994 0
    outer loop
        vertex -1.9509032 -0 9.807853
        vertex 10 -0 0
        vertex -3.8268344 -0 9.238795
    endloop
endfacet
facet normal 0 1 0
    outer loop
        vertex 0.0000000000000006123234 -0 10
        vertex 10 -0 0
        vertex -1.9509032 -0 9.807853
    endloop
endfacet
facet normal 0 1 0
    outer loop
        vertex 0.0000000000000006123234 -0 10
        vertex 1.9509032 -0 9.807853
        vertex 10 -0 0
    endloop
endfacet
facet normal 0 1 0
    outer loop
        vertex 1.9509032 -0 9.807853
        vertex 3.8268344 -0 9.238795
        vertex 10 -0 0
    endloop
endfacet
facet normal 0 1 0
    outer loop
        vertex 3.8268344 -0 9.238795
        vertex 5.555702 -0 8.314696
        vertex 10 -0 0
    endloop
endfacet
facet normal 0 1 0
    outer loop
        vertex 10 -0 0
        vertex 7.071068 -0 7.071068
        vertex 8.314696 -0 5.555702
    endloop
endfacet
facet normal 0 1 0
    outer loop
        vertex 5.555702 -0 8.314696
        vertex 7.071068 -0 7.071068
        vertex 10 -0 0
    endloop
endfacet
facet normal 0 1 0
    outer loop
        vertex 10 -0 0
        vertex 8.314696 -0 5.555702
        vertex 9.238795 -0 3.8268344
    endloop
endfacet
facet normal 0 1 0
    outer loop
        vertex 10 -0 0
        vertex 9.238795 -0 3.8268344
        vertex 9.807853 -0 1.9509032
    endloop
endfacet
facet normal -0 1 0
    outer loop
        vertex -9.807853 -0 -1.9509032
        vertex 10 -0 0
        vertex -9.238795 -0 -3.8268344
    endloop
endfacet
facet normal 0 1 0
    outer loop
        vertex 2.5 -285 -10
        vertex 0 -285 -10
        vertex 1.9509032 -285 -9.807853
    endloop
endfacet
facet normal 0 1 0
    outer loop
        vertex 5 -285 -10
        vertex 2.5 -285 -10
        vertex 3.8268344 -285 -9.238795
    endloop
endfacet
facet normal 0 1 -0
    outer loop
        vertex 5 -285 -10
        vertex 3.8268344 -285 -9.238795
        vertex 5.555702 -285 -8.314696
    endloop
endfacet
facet normal 0 1 0
    outer loop
        vertex 3.8268344 -285 9.238795
        vertex 1.9509032 -285 9.807853
        vertex 2.5 -285 10
    endloop
endfacet
facet normal 0 1 0
    outer loop
        vertex 10 -285 10
        vertex 7.071068 -285 7.071068
        vertex 5.555702 -285 8.314696
    endloop
endfacet
facet normal 0 1 0
    outer loop
        vertex 10 -285 10
        vertex 5.555702 -285 8.314696
        vertex 5 -285 10
    endloop
endfacet
facet normal 0 1 -0
    outer loop
        vertex 20 -285 -10
        vertex 10 -285 0
        vertex 20 -285 10
    endloop
endfacet
facet normal 0 1 0
    outer loop
        vertex 20 -285 -10
        vertex 9.807853 -285 -1.9509032
        vertex 10 -285 0
    endloop
endfacet
facet normal 0 1 0
    outer loop
        vertex 3.8268344 -285 -9.238795
        vertex 2.5 -285 -10
        vertex 1.9509032 -285 -9.807853
    endloop
endfacet
facet normal 0 1 0
    outer loop
        vertex 9.238795 -285 -3.8268344
        vertex 20 -285 -10
        vertex 10 -285 -10
    endloop
endfacet
facet normal 0 1 0
    outer loop
        vertex 7.071068 -285 -7.071068
        vertex 10 -285 -10
        vertex 5.555702 -285 -8.314696
    endloop
endfacet
facet normal 0 1 0
    outer loop
        vertex 8.314696 -285 -5.555702
        vertex 10 -285 -10
        vertex 7.071068 -285 -7.071068
    endloop
endfacet
facet normal 0 1 0
    outer loop
        vertex 9.238795 -285 -3.8268344
        vertex 10 -285 -10
        vertex 8.314696 -285 -5.555702
    endloop
endfacet
facet normal 0 1 0
    outer loop
        vertex 9.807853 -285 -1.9509032
        vertex 20 -285 -10
        vertex 9.238795 -285 -3.8268344
    endloop
endfacet
facet normal 0 1 0
    outer loop
        vertex 20 -285 10
        vertex 10 -285 0
        vertex 9.807853 -285 1.9509032
    endloop
endfacet
facet normal -0 1 0
    outer loop
        vertex 8.314696 -285 5.555702
        vertex 10 -285 10
        vertex 9.238795 -285 3.8268344
    endloop
endfacet
facet normal -0 1 0
    outer loop
        vertex 10 -285 10
        vertex 20 -285 10
        vertex 9.238795 -285 3.8268344
    endloop
endfacet
facet normal -0 1 0
    outer loop
        vertex 7.071068 -285 7.071068
        vertex 10 -285 10
        vertex 8.314696 -285 5.555702
    endloop
endfacet
facet normal 0 1 0
    outer loop
        vertex 20 -285 10
        vertex 9.807853 -285 1.9509032
        vertex 9.238795 -285 3.8268344
    endloop
endfacet
facet normal 0 1 0
    outer loop
        vertex 10 -285 -10
        vertex 5 -285 -10
        vertex 5.555702 -285 -8.314696
    endloop
endfacet
facet normal 0 1 -0
    outer loop
        vertex 3.8268344 -285 9.238795
        vertex 2.5 -285 10
        vertex 5 -285 10
    endloop
endfacet
facet normal 0 1 -0
    outer loop
        vertex 1.9509032 -285 9.807853
        vertex 0 -285 10
        vertex 2.5 -285 10
    endloop
endfacet
facet normal 0 1 0
    outer loop
        vertex 5 -285 10
        vertex 5.555702 -285 8.314696
        vertex 3.8268344 -285 9.238795
    endloop
endfacet
facet normal 0 1 0
    outer loop
        vertex -3.8268344 -285 -9.238795
        vertex -1.9509032 -285 -9.807853
        vertex -2.5 -285 -10
    endloop
endfacet
facet normal 0 1 0
    outer loop
        vertex -10 -285 -10
        vertex -7.071068 -285 -7.071068
        vertex -5.555702 -285 -8.314696
    endloop
endfacet
facet normal 0 1 0
    outer loop
        vertex -10 -285 -10
        vertex -5.555702 -285 -8.314696
        vertex -5 -285 -10
    endloop
endfacet
facet normal -0 1 0
    outer loop
        vertex -2.5 -285 10
        vertex 0 -285 10
        vertex -1.9509032 -285 9.807853
    endloop
endfacet
facet normal -0 1 0
    outer loop
        vertex -5 -285 10
        vertex -2.5 -285 10
        vertex -3.8268344 -285 9.238795
    endloop
endfacet
facet normal 0 1 0
    outer loop
        vertex -5 -285 10
        vertex -3.8268344 -285 9.238795
        vertex -5.555702 -285 8.314696
    endloop
endfacet
facet normal 0 1 -0
    outer loop
        vertex -5.555702 -285 8.314696
        vertex -10 -285 10
        vertex -5 -285 10
    endloop
endfacet
facet normal 0 1 0
    outer loop
        vertex -3.8268344 -285 9.238795
        vertex -2.5 -285 10
        vertex -1.9509032 -285 9.807853
    endloop
endfacet
facet normal 0 1 0
    outer loop
        vertex -9.238795 -285 3.8268344
        vertex -20 -285 10
        vertex -10 -285 10
    endloop
endfacet
facet normal 0 1 0
    outer loop
        vertex -7.071068 -285 7.071068
        vertex -8.314696 -285 5.555702
        vertex -10 -285 10
    endloop
endfacet
facet normal 0 1 0
    outer loop
        vertex -8.314696 -285 5.555702
        vertex -9.238795 -285 3.8268344
        vertex -10 -285 10
    endloop
endfacet
facet normal 0 1 0
    outer loop
        vertex -9.238795 -285 3.8268344
        vertex -9.807853 -285 1.9509032
        vertex -20 -285 10
    endloop
endfacet
facet normal 0 1 0
    outer loop
        vertex -9.807853 -285 1.9509032
        vertex -10 -285 -0.0000000000000012246468
        vertex -20 -285 10
    endloop
endfacet
facet normal 0 1 0
    outer loop
        vertex -20 -285 -10
        vertex -20 -285 10
        vertex -10 -285 -0.0000000000000012246468
    endloop
endfacet
facet normal 0 1 0
    outer loop
        vertex -20 -285 -10
        vertex -10 -285 -0.0000000000000012246468
        vertex -9.807853 -285 -1.9509032
    endloop
endfacet
facet normal 0 1 0
    outer loop
        vertex -8.314696 -285 -5.555702
        vertex -10 -285 -10
        vertex -9.238795 -285 -3.8268344
    endloop
endfacet
facet normal 0 1 -0
    outer loop
        vertex -10 -285 -10
        vertex -20 -285 -10
        vertex -9.238795 -285 -3.8268344
    endloop
endfacet
facet normal 0 1 0
    outer loop
        vertex -7.071068 -285 -7.071068
        vertex -10 -285 -10
        vertex -8.314696 -285 -5.555702
    endloop
endfacet
facet normal 0 1 0
    outer loop
        vertex -20 -285 -10
        vertex -9.807853 -285 -1.9509032
        vertex -9.238795 -285 -3.8268344
    endloop
endfacet
facet normal 0 1 0
    outer loop
        vertex 0 -285 -10
        vertex -2.5 -285 -10
        vertex -1.9509032 -285 -9.807853
    endloop
endfacet
facet normal 0 1 0
    outer loop
        vertex -3.8268344 -285 -9.238795
        vertex -2.5 -285 -10
        vertex -5 -285 -10
    endloop
endfacet
facet normal 0 1 -0
    outer loop
        vertex -7.071068 -285 7.071068
        vertex -10 -285 10
        vertex -5.555702 -285 8.314696
    endloop
endfacet
facet normal 0 1 0
    outer loop
        vertex -3.8268344 -285 -9.238795
        vertex -5 -285 -10
        vertex -5.555702 -285 -8.314696
    endloop
endfacet
facet normal -0 0 1
    outer loop
        vertex 2.5 -285 10
        vertex 20 -315 10
        vertex 5 -285 10
    endloop
endfacet
facet normal -0 0 1
    outer loop
        vertex 5 -285 10
        vertex 20 -315 10
        vertex 10 -285 10
    endloop
endfacet
facet normal -0 0 1
    outer loop
        vertex 10 -285 10
        vertex 20 -315 10
        vertex 20 -285 10
    endloop
endfacet
facet normal 0 0 1
    outer loop
        vertex 2.5 -285 10
        vertex 0 -285 10
        vertex 20 -315 10
    endloop
endfacet
facet normal 0 0 1
    outer loop
        vertex 20 -315 10
        vertex 0 -285 10
        vertex -20 -315 10
    endloop
endfacet
facet normal 0 0 1
    outer loop
        vertex -10 -285 10
        vertex -20 -285 10
        vertex -20 -315 10
    endloop
endfacet
facet normal 0 0 1
    outer loop
        vertex -5 -285 10
        vertex -10 -285 10
        vertex -20 -315 10
    endloop
endfacet
facet normal 0 0 1
    outer loop
        vertex -2.5 -285 10
        vertex -5 -285 10
        vertex -20 -315 10
    endloop
endfacet
facet normal 0 0 1
    outer loop
        vertex 0 -285 10
        vertex -2.5 -285 10
        vertex -20 -315 10
    endloop
endfacet
facet normal 1 -0 0
    outer loop
        vertex 20 -315 10
        vertex 20 -315 -10
        vertex 20 -285 10
    endloop
endfacet
facet normal 1 0 0
    outer loop
        vertex 20 -285 10
        vertex 20 -315 -10
        vertex 20 -285 -10
    endloop
endfacet
facet normal 0 0 -1
    outer loop
        vertex -5 -315 -10
        vertex -5 -300 -10
        vertex 20 -315 -10
    endloop
endfacet
facet normal 0 0 -1
    outer loop
        vertex -5 -300 -10
        vertex -2.5 -285 -10
        vertex 0 -285 -10
    endloop
endfacet
facet normal 0 0 -1
    outer loop
        vertex -5 -300 -10
        vertex 10 -285 -10
        vertex 20 -315 -10
    endloop
endfacet
facet normal 0 0 -1
    outer loop
        vertex -20 -300 -10
        vertex -20 -285 -10
        vertex -10 -285 -10
    endloop
endfacet
facet normal 0 -0 -1
    outer loop
        vertex -10 -285 -10
        vertex -5 -300 -10
        vertex -20 -300 -10
    endloop
endfacet
facet normal -0 -0 -1
    outer loop
        vertex -5 -285 -10
        vertex -5 -300 -10
        vertex -10 -285 -10
    endloop
endfacet
facet normal 0 0 -1
    outer loop
        vertex -5 -300 -10
        vertex -5 -285 -10
        vertex -2.5 -285 -10
    endloop
endfacet
facet normal -0 0 -1
    outer loop
        vertex 2.5 -285 -10
        vertex -5 -300 -10
        vertex 0 -285 -10
    endloop
endfacet
facet normal -0 0 -1
    outer loop
        vertex 5 -285 -10
        vertex -5 -300 -10
        vertex 2.5 -285 -10
    endloop
endfacet
facet normal 0 0 -1
    outer loop
        vertex 10 -285 -10
        vertex 20 -285 -10
        vertex 20 -315 -10
    endloop
endfacet
facet normal -0 0 -1
    outer loop
        vertex 10 -285 -10
        vertex -5 -300 -10
        vertex 5 -285 -10
    endloop
endfacet
facet normal -1 0 0
    outer loop
        vertex -20 -285 -30
        vertex -20 -315 -30
        vertex -20 -300 -10
    endloop
endfacet
facet normal -1 0 0
    outer loop
        vertex -20 -315 -30
        vertex -20 -315 10
        vertex -20 -300 -10
    endloop
endfacet
facet normal -1 0 0
    outer loop
        vertex -20 -315 10
        vertex -20 -285 10
        vertex -20 -300 -10
    endloop
endfacet
facet normal -1 0 -0
    outer loop
        vertex -20 -285 10
        vertex -20 -285 -10
        vertex -20 -300 -10
    endloop
endfacet
facet normal 0 -1 -0
    outer loop
        vertex 20 -315 10
        vertex -5 -315 -10
        vertex 20 -315 -10
    endloop
endfacet
facet normal 0 -1 -0
    outer loop
        vertex -5 -315 -10
        vertex -20 -315 -30
        vertex 20 -315 -30
    endloop
endfacet
facet normal -0 -1 0
    outer loop
        vertex -5 -315 -10
        vertex -20 -315 10
        vertex -20 -315 -30
    endloop
endfacet
facet normal 0 -1 0
    outer loop
        vertex -5 -315 -10
        vertex 20 -315 10
        vertex -20 -315 10
    endloop
endfacet
facet normal 0.62469506 -0 0.78086883
    outer loop
        vertex -5 -315 -10
        vertex 20 -315 -30
        vertex -5 -300 -10
    endloop
endfacet
facet normal 0.62469506 0 0.78086883
    outer loop
        vertex -5 -300 -10
        vertex 20 -315 -30
        vertex 20 -285 -30
    endloop
endfacet
facet normal 0 0.80000001 0.59999996
    outer loop
        vertex -5 -300 -10
        vertex -20 -285 -30
        vertex -20 -300 -10
    endloop
endfacet
facet normal 0 0.80000001 0.60000002
    outer loop
        vertex 20 -285 -30
        vertex -20 -285 -30
        vertex -5 -300 -10
    endloop
endfacet
facet normal 0 0 -1
    outer loop
        vertex 20 -315 -30
        vertex -20 -285 -30
        vertex 20 -285 -30
    endloop
endfacet
facet normal 0 0 -1
    outer loop
        vertex -20 -315 -30
        vertex -20 -285 -30
        vertex 20 -315 -30
    endloop
endfacet
endsolid unnamed
