solid unnamed
facet normal 0 -1 0
    outer loop
        vertex 0 -2.5 7.5
        vertex 0 -2.5 10
        vertex -20 -2.5 7.5
    endloop
endfacet
facet normal 0 -1 0
    outer loop
        vertex 20 -2.5 7.5
        vertex 20 -2.5 -7.5
        vertex 100 -2.5 10
    endloop
endfacet
facet normal 0 -1 0
    outer loop
        vertex 0 -2.5 -10
        vertex 0 -2.5 -7.5
        vertex -20 -2.5 -7.5
    endloop
endfacet
facet normal -0 -1 -0
    outer loop
        vertex -20 -2.5 7.5
        vertex -100 -2.5 10
        vertex -20 -2.5 -7.5
    endloop
endfacet
facet normal -0 -1 0
    outer loop
        vertex -20 -2.5 -7.5
        vertex -100 -2.5 10
        vertex -100 -2.5 -10
    endloop
endfacet
facet normal 0 -1 0
    outer loop
        vertex 0 -2.5 10
        vertex 0 -2.5 7.5
        vertex 20 -2.5 7.5
    endloop
endfacet
facet normal 0 -1 0
    outer loop
        vertex 0 -2.5 10
        vertex 20 -2.5 7.5
        vertex 100 -2.5 10
    endloop
endfacet
facet normal 0 -1 0
    outer loop
        vertex 20 -2.5 -7.5
        vertex 100 -2.5 -10
        vertex 100 -2.5 10
    endloop
endfacet
facet normal 0 -1 -0
    outer loop
        vertex -20 -2.5 -7.5
        vertex -100 -2.5 -10
        vertex 0 -2.5 -10
    endloop
endfacet
facet normal -0 -1 0
    outer loop
        vertex 20 -2.5 -7.5
        vertex 0 -2.5 -7.5
        vertex 0 -2.5 -10
    endloop
endfacet
facet normal 0 -1 0
    outer loop
        vertex -20 -2.5 7.5
        vertex 0 -2.5 10
        vertex -100 -2.5 10
    endloop
endfacet
facet normal 0 -1 0
    outer loop
        vertex 100 -2.5 -10
        vertex 20 -2.5 -7.5
        vertex 0 -2.5 -10
    endloop
endfacet
facet normal 1 0 0
    outer loop
        vertex 100 2.5 10
        vertex 100 -2.5 10
        vertex 100 -2.5 -10
    endloop
endfacet
facet normal 1 0 -0
    outer loop
        vertex 100 2.5 -10
        vertex 100 2.5 10
        vertex 100 -2.5 -10
    endloop
endfacet
facet normal 0 0 -1
    outer loop
        vertex 0 2.5 -10
        vertex 100 -2.5 -10
        vertex 0 -2.5 -10
    endloop
endfacet
facet normal 0 0 -1
    outer loop
        vertex 100 -2.5 -10
        vertex 0 2.5 -10
        vertex 100 2.5 -10
    endloop
endfacet
facet normal 0 0 -1
    outer loop
        vertex -100 -2.5 -10
        vertex -100 2.5 -10
        vertex 0 -2.5 -10
    endloop
endfacet
facet normal 0 0 -1
    outer loop
        vertex -100 2.5 -10
        vertex 0 2.5 -10
        vertex 0 -2.5 -10
    endloop
endfacet
facet normal -1 0 0
    outer loop
        vertex -100 -2.5 10
        vertex -100 2.5 10
        vertex -100 -2.5 -10
    endloop
endfacet
facet normal -1 0 -0
    outer loop
        vertex -100 2.5 10
        vertex -100 2.5 -10
        vertex -100 -2.5 -10
    endloop
endfacet
facet normal 0 0 1
    outer loop
        vertex 0 2.5 10
        vertex 0 -2.5 10
        vertex 100 -2.5 10
    endloop
endfacet
facet normal 0 -0 1
    outer loop
        vertex 100 -2.5 10
        vertex 100 2.5 10
        vertex 0 2.5 10
    endloop
endfacet
facet normal 0 0 1
    outer loop
        vertex -100 -2.5 10
        vertex 0 -2.5 10
        vertex -100 2.5 10
    endloop
endfacet
facet normal -0 0 1
    outer loop
        vertex -100 2.5 10
        vertex 0 -2.5 10
        vertex 0 2.5 10
    endloop
endfacet
facet normal 0 0 1
    outer loop
        vertex 0 -0 -7.5
        vertex 0 -2.5 -7.5
        vertex 20 -2.5 -7.5
    endloop
endfacet
facet normal -0 0 1
    outer loop
        vertex 0 -0 -7.5
        vertex 20 -2.5 -7.5
        vertex 20 -0 -7.5
    endloop
endfacet
facet normal 0 0 1
    outer loop
        vertex -20 -2.5 -7.5
        vertex 0 -2.5 -7.5
        vertex -20 -0 -7.5
    endloop
endfacet
facet normal 0 -0 1
    outer loop
        vertex 0 -2.5 -7.5
        vertex 0 -0 -7.5
        vertex -20 -0 -7.5
    endloop
endfacet
facet normal -1 0 0
    outer loop
        vertex 20 -2.5 7.5
        vertex 20 -0 7.5
        vertex 20 -2.5 -7.5
    endloop
endfacet
facet normal -1 0 -0
    outer loop
        vertex 20 -0 7.5
        vertex 20 -0 -7.5
        vertex 20 -2.5 -7.5
    endloop
endfacet
facet normal 1 -0 0
    outer loop
        vertex -20 -2.5 7.5
        vertex -20 -2.5 -7.5
        vertex -20 -0 7.5
    endloop
endfacet
facet normal 1 0 0
    outer loop
        vertex -20 -0 7.5
        vertex -20 -2.5 -7.5
        vertex -20 -0 -7.5
    endloop
endfacet
facet normal 0 0 -1
    outer loop
        vertex 0 -0 7.5
        vertex 20 -2.5 7.5
        vertex 0 -2.5 7.5
    endloop
endfacet
facet normal 0 0 -1
    outer loop
        vertex 0 -0 7.5
        vertex 20 -0 7.5
        vertex 20 -2.5 7.5
    endloop
endfacet
facet normal 0 0 -1
    outer loop
        vertex -20 -2.5 7.5
        vertex -20 -0 7.5
        vertex 0 -2.5 7.5
    endloop
endfacet
facet normal 0 0 -1
    outer loop
        vertex 0 -2.5 7.5
        vertex -20 -0 7.5
        vertex 0 -0 7.5
    endloop
endfacet
facet normal 0 1 0
    outer loop
        vertex 0 2.5 -10
        vertex 100 2.5 10
        vertex 100 2.5 -10
    endloop
endfacet
facet normal 0 1 0
    outer loop
        vertex -100 2.5 -10
        vertex 0 2.5 10
        vertex 0 2.5 -10
    endloop
endfacet
facet normal -0 1 0
    outer loop
        vertex 0 2.5 10
        vertex 100 2.5 10
        vertex 0 2.5 -10
    endloop
endfacet
facet normal -0 1 0
    outer loop
        vertex -100 2.5 10
        vertex 0 2.5 10
        vertex -100 2.5 -10
    endloop
endfacet
facet normal -0 -1 0
    outer loop
        vertex 0 -0 7.5
        vertex -20 -0 7.5
        vertex -20 -0 -7.5
    endloop
endfacet
facet normal -0 -1 0
    outer loop
        vertex 20 -0 7.5
        vertex 0 -0 7.5
        vertex 0 -0 -7.5
    endloop
endfacet
facet normal 0 -1 0
    outer loop
        vertex 0 -0 -7.5
        vertex 0 -0 7.5
        vertex -20 -0 -7.5
    endloop
endfacet
facet normal 0 -1 -0
    outer loop
        vertex 20 -0 7.5
        vertex 0 -0 -7.5
        vertex 20 -0 -7.5
    endloop
endfacet
facet normal -1 0 0
    outer loop
        vertex -20 -4.5 7.5
        vertex -20 -2.5 7.5
        vertex -20 -4.5 -7.5
    endloop
endfacet
facet normal -1 0 -0
    outer loop
        vertex -20 -2.5 7.5
        vertex -20 -2.5 -7.5
        vertex -20 -4.5 -7.5
    endloop
endfacet
facet normal 0 0 -1
    outer loop
        vertex 20 -4.5 -7.5
        vertex -20 -2.5 -7.5
        vertex 20 -2.5 -7.5
    endloop
endfacet
facet normal 0 0 -1
    outer loop
        vertex -20 -4.5 -7.5
        vertex -20 -2.5 -7.5
        vertex 20 -4.5 -7.5
    endloop
endfacet
facet normal -0 -1 0
    outer loop
        vertex 20 -4.5 7.5
        vertex -20 -4.5 7.5
        vertex -20 -4.5 -7.5
    endloop
endfacet
facet normal 0 -1 0
    outer loop
        vertex 20 -4.5 -7.5
        vertex 20 -4.5 7.5
        vertex -20 -4.5 -7.5
    endloop
endfacet
facet normal 0 -0 1
    outer loop
        vertex 20 -4.5 7.5
        vertex 20 -2.5 7.5
        vertex -20 -2.5 7.5
    endloop
endfacet
facet normal 0 0 1
    outer loop
        vertex -20 -4.5 7.5
        vertex 20 -4.5 7.5
        vertex -20 -2.5 7.5
    endloop
endfacet
facet normal 0 1 0
    outer loop
        vertex 20 -2.5 7.5
        vertex -20 -2.5 -7.5
        vertex -20 -2.5 7.5
    endloop
endfacet
facet normal 0 1 -0
    outer loop
        vertex 20 -2.5 -7.5
        vertex -20 -2.5 -7.5
        vertex 20 -2.5 7.5
    endloop
endfacet
facet normal 1 -0 0
    outer loop
        vertex 20 -4.5 7.5
        vertex 20 -4.5 -7.5
        vertex 20 -2.5 7.5
    endloop
endfacet
facet normal 1 0 0
    outer loop
        vertex 20 -2.5 7.5
        vertex 20 -4.5 -7.5
        vertex 20 -2.5 -7.5
    endloop
endfacet
facet normal 0 -1 0
    outer loop
        vertex 0 -2.5 7.5
        vertex 0 -2.5 10
        vertex -20 -2.5 7.5
    endloop
endfacet
facet normal 0 -1 0
    outer loop
        vertex 20 -2.5 7.5
        vertex 20 -2.5 -7.5
        vertex 100 -2.5 10
    endloop
endfacet
facet normal 0 -1 0
    outer loop
        vertex 0 -2.5 -10
        vertex 0 -2.5 -7.5
        vertex -20 -2.5 -7.5
    endloop
endfacet
facet normal -0 -1 -0
    outer loop
        vertex -20 -2.5 7.5
        vertex -100 -2.5 10
        vertex -20 -2.5 -7.5
    endloop
endfacet
facet normal -0 -1 0
    outer loop
        vertex -20 -2.5 -7.5
        vertex -100 -2.5 10
        vertex -100 -2.5 -10
    endloop
endfacet
facet normal 0 -1 0
    outer loop
        vertex 0 -2.5 10
        vertex 0 -2.5 7.5
        vertex 20 -2.5 7.5
    endloop
endfacet
facet normal 0 -1 0
    outer loop
        vertex 0 -2.5 10
        vertex 20 -2.5 7.5
        vertex 100 -2.5 10
    endloop
endfacet
facet normal 0 -1 0
    outer loop
        vertex 20 -2.5 -7.5
        vertex 100 -2.5 -10
        vertex 100 -2.5 10
    endloop
endfacet
facet normal 0 -1 -0
    outer loop
        vertex -20 -2.5 -7.5
        vertex -100 -2.5 -10
        vertex 0 -2.5 -10
    endloop
endfacet
facet normal -0 -1 0
    outer loop
        vertex 20 -2.5 -7.5
        vertex 0 -2.5 -7.5
        vertex 0 -2.5 -10
    endloop
endfacet
facet normal 0 -1 0
    outer loop
        vertex -20 -2.5 7.5
        vertex 0 -2.5 10
        vertex -100 -2.5 10
    endloop
endfacet
facet normal 0 -1 0
    outer loop
        vertex 100 -2.5 -10
        vertex 20 -2.5 -7.5
        vertex 0 -2.5 -10
    endloop
endfacet
facet normal 1 0 0
    outer loop
        vertex 100 2.5 10
        vertex 100 -2.5 10
        vertex 100 -2.5 -10
    endloop
endfacet
facet normal 1 0 -0
    outer loop
        vertex 100 2.5 -10
        vertex 100 2.5 10
        vertex 100 -2.5 -10
    endloop
endfacet
facet normal 0 0 -1
    outer loop
        vertex 0 2.5 -10
        vertex 100 -2.5 -10
        vertex 0 -2.5 -10
    endloop
endfacet
facet normal 0 0 -1
    outer loop
        vertex 100 -2.5 -10
        vertex 0 2.5 -10
        vertex 100 2.5 -10
    endloop
endfacet
facet normal 0 0 -1
    outer loop
        vertex -100 -2.5 -10
        vertex -100 2.5 -10
        vertex 0 -2.5 -10
    endloop
endfacet
facet normal 0 0 -1
    outer loop
        vertex -100 2.5 -10
        vertex 0 2.5 -10
        vertex 0 -2.5 -10
    endloop
endfacet
facet normal -1 0 0
    outer loop
        vertex -100 -2.5 10
        vertex -100 2.5 10
        vertex -100 -2.5 -10
    endloop
endfacet
facet normal -1 0 -0
    outer loop
        vertex -100 2.5 10
        vertex -100 2.5 -10
        vertex -100 -2.5 -10
    endloop
endfacet
facet normal 0 0 1
    outer loop
        vertex 0 2.5 10
        vertex 0 -2.5 10
        vertex 100 -2.5 10
    endloop
endfacet
facet normal 0 -0 1
    outer loop
        vertex 100 -2.5 10
        vertex 100 2.5 10
        vertex 0 2.5 10
    endloop
endfacet
facet normal 0 0 1
    outer loop
        vertex -100 -2.5 10
        vertex 0 -2.5 10
        vertex -100 2.5 10
    endloop
endfacet
facet normal -0 0 1
    outer loop
        vertex -100 2.5 10
        vertex 0 -2.5 10
        vertex 0 2.5 10
    endloop
endfacet
facet normal 0 0 1
    outer loop
        vertex 0 -0 -7.5
        vertex 0 -2.5 -7.5
        vertex 20 -2.5 -7.5
    endloop
endfacet
facet normal -0 0 1
    outer loop
        vertex 0 -0 -7.5
        vertex 20 -2.5 -7.5
        vertex 20 -0 -7.5
    endloop
endfacet
facet normal 0 0 1
    outer loop
        vertex -20 -2.5 -7.5
        vertex 0 -2.5 -7.5
        vertex -20 -0 -7.5
    endloop
endfacet
facet normal 0 -0 1
    outer loop
        vertex 0 -2.5 -7.5
        vertex 0 -0 -7.5
        vertex -20 -0 -7.5
    endloop
endfacet
facet normal -1 0 0
    outer loop
        vertex 20 -2.5 7.5
        vertex 20 -0 7.5
        vertex 20 -2.5 -7.5
    endloop
endfacet
facet normal -1 0 -0
    outer loop
        vertex 20 -0 7.5
        vertex 20 -0 -7.5
        vertex 20 -2.5 -7.5
    endloop
endfacet
facet normal 1 -0 0
    outer loop
        vertex -20 -2.5 7.5
        vertex -20 -2.5 -7.5
        vertex -20 -0 7.5
    endloop
endfacet
facet normal 1 0 0
    outer loop
        vertex -20 -0 7.5
        vertex -20 -2.5 -7.5
        vertex -20 -0 -7.5
    endloop
endfacet
facet normal 0 0 -1
    outer loop
        vertex 0 -0 7.5
        vertex 20 -2.5 7.5
        vertex 0 -2.5 7.5
    endloop
endfacet
facet normal 0 0 -1
    outer loop
        vertex 0 -0 7.5
        vertex 20 -0 7.5
        vertex 20 -2.5 7.5
    endloop
endfacet
facet normal 0 0 -1
    outer loop
        vertex -20 -2.5 7.5
        vertex -20 -0 7.5
        vertex 0 -2.5 7.5
    endloop
endfacet
facet normal 0 0 -1
    outer loop
        vertex 0 -2.5 7.5
        vertex -20 -0 7.5
        vertex 0 -0 7.5
    endloop
endfacet
facet normal 0 1 0
    outer loop
        vertex 0 2.5 -10
        vertex 100 2.5 10
        vertex 100 2.5 -10
    endloop
endfacet
facet normal 0 1 0
    outer loop
        vertex -100 2.5 -10
        vertex 0 2.5 10
        vertex 0 2.5 -10
    endloop
endfacet
facet normal -0 1 0
    outer loop
        vertex 0 2.5 10
        vertex 100 2.5 10
        vertex 0 2.5 -10
    endloop
endfacet
facet normal -0 1 0
    outer loop
        vertex -100 2.5 10
        vertex 0 2.5 10
        vertex -100 2.5 -10
    endloop
endfacet
facet normal -0 -1 0
    outer loop
        vertex 0 -0 7.5
        vertex -20 -0 7.5
        vertex -20 -0 -7.5
    endloop
endfacet
facet normal -0 -1 0
    outer loop
        vertex 20 -0 7.5
        vertex 0 -0 7.5
        vertex 0 -0 -7.5
    endloop
endfacet
facet normal 0 -1 0
    outer loop
        vertex 0 -0 -7.5
        vertex 0 -0 7.5
        vertex -20 -0 -7.5
    endloop
endfacet
facet normal 0 -1 -0
    outer loop
        vertex 20 -0 7.5
        vertex 0 -0 -7.5
        vertex 20 -0 -7.5
    endloop
endfacet
facet normal -1 0 0
    outer loop
        vertex -20 -4.5 7.5
        vertex -20 -2.5 7.5
        vertex -20 -4.5 -7.5
    endloop
endfacet
facet normal -1 0 -0
    outer loop
        vertex -20 -2.5 7.5
        vertex -20 -2.5 -7.5
        vertex -20 -4.5 -7.5
    endloop
endfacet
facet normal 0 0 -1
    outer loop
        vertex 20 -4.5 -7.5
        vertex -20 -2.5 -7.5
        vertex 20 -2.5 -7.5
    endloop
endfacet
facet normal 0 0 -1
    outer loop
        vertex -20 -4.5 -7.5
        vertex -20 -2.5 -7.5
        vertex 20 -4.5 -7.5
    endloop
endfacet
facet normal -0 -1 0
    outer loop
        vertex 20 -4.5 7.5
        vertex -20 -4.5 7.5
        vertex -20 -4.5 -7.5
    endloop
endfacet
facet normal 0 -1 0
    outer loop
        vertex 20 -4.5 -7.5
        vertex 20 -4.5 7.5
        vertex -20 -4.5 -7.5
    endloop
endfacet
facet normal 0 -0 1
    outer loop
        vertex 20 -4.5 7.5
        vertex 20 -2.5 7.5
        vertex -20 -2.5 7.5
    endloop
endfacet
facet normal 0 0 1
    outer loop
        vertex -20 -4.5 7.5
        vertex 20 -4.5 7.5
        vertex -20 -2.5 7.5
    endloop
endfacet
facet normal 0 1 0
    outer loop
        vertex 20 -2.5 7.5
        vertex -20 -2.5 -7.5
        vertex -20 -2.5 7.5
    endloop
endfacet
facet normal 0 1 -0
    outer loop
        vertex 20 -2.5 -7.5
        vertex -20 -2.5 -7.5
        vertex 20 -2.5 7.5
    endloop
endfacet
facet normal 1 -0 0
    outer loop
        vertex 20 -4.5 7.5
        vertex 20 -4.5 -7.5
        vertex 20 -2.5 7.5
    endloop
endfacet
facet normal 1 0 0
    outer loop
        vertex 20 -2.5 7.5
        vertex 20 -4.5 -7.5
        vertex 20 -2.5 -7.5
    endloop
endfacet
endsolid unnamed
