solid unnamed
facet normal 0 -0 0.99999994
    outer loop
        vertex 25 -4.5 10
        vertex 25 1 10
        vertex 20 -1 10
    endloop
endfacet
facet normal 0 0 1
    outer loop
        vertex 20 -1 10
        vertex 20 -4.5 10
        vertex 25 -4.5 10
    endloop
endfacet
facet normal 0 0 1
    outer loop
        vertex -25 -1 10
        vertex 20 -1 10
        vertex -25 1 10
    endloop
endfacet
facet normal 0 0 1
    outer loop
        vertex 25 1 10
        vertex -25 1 10
        vertex 20 -1 10
    endloop
endfacet
facet normal 0 1 0
    outer loop
        vertex 25 1 10
        vertex -25 1 -10
        vertex -25 1 10
    endloop
endfacet
facet normal 0 1 -0
    outer loop
        vertex 25 1 -10
        vertex -25 1 -10
        vertex 25 1 10
    endloop
endfacet
facet normal -1 0 0
    outer loop
        vertex -25 -1 10
        vertex -25 1 10
        vertex -25 -1 -10
    endloop
endfacet
facet normal -1 0 -0
    outer loop
        vertex -25 1 10
        vertex -25 1 -10
        vertex -25 -1 -10
    endloop
endfacet
facet normal 0 -1 0
    outer loop
        vertex 3.980739 -1 0.39206856
        vertex 20 -1 10
        vertex 3.923141 -1 0.7803613
    endloop
endfacet
facet normal 0 -1 0
    outer loop
        vertex 3.980739 -1 0.39206856
        vertex 4 -1 0
        vertex 20 -1 10
    endloop
endfacet
facet normal 0 -1 0
    outer loop
        vertex 3.923141 -1 0.7803613
        vertex 20 -1 10
        vertex 3.8277614 -1 1.1611387
    endloop
endfacet
facet normal 0 -0.99999994 0
    outer loop
        vertex 3.8277614 -1 1.1611387
        vertex 20 -1 10
        vertex 3.695518 -1 1.5307337
    endloop
endfacet
facet normal 0 -1 0
    outer loop
        vertex 3.695518 -1 1.5307337
        vertex 20 -1 10
        vertex 3.5276852 -1 1.885587
    endloop
endfacet
facet normal 0 -1 0
    outer loop
        vertex 3.5276852 -1 1.885587
        vertex 20 -1 10
        vertex 3.3258784 -1 2.222281
    endloop
endfacet
facet normal 0 -1 0
    outer loop
        vertex 3.3258784 -1 2.222281
        vertex 20 -1 10
        vertex 3.0920417 -1 2.537573
    endloop
endfacet
facet normal 0 -1 0
    outer loop
        vertex 3.0920417 -1 2.537573
        vertex 20 -1 10
        vertex 2.828427 -1 2.828427
    endloop
endfacet
facet normal 0 -0.99999994 0
    outer loop
        vertex 2.828427 -1 2.828427
        vertex 20 -1 10
        vertex 2.537573 -1 3.0920417
    endloop
endfacet
facet normal 0 -1 0
    outer loop
        vertex 2.537573 -1 3.0920417
        vertex 20 -1 10
        vertex 2.222281 -1 3.3258784
    endloop
endfacet
facet normal 0 -1 0
    outer loop
        vertex 2.222281 -1 3.3258784
        vertex 20 -1 10
        vertex 1.885587 -1 3.5276852
    endloop
endfacet
facet normal 0 -1 0
    outer loop
        vertex 1.885587 -1 3.5276852
        vertex 20 -1 10
        vertex 1.5307337 -1 3.695518
    endloop
endfacet
facet normal 0 -1 0
    outer loop
        vertex 1.5307337 -1 3.695518
        vertex 20 -1 10
        vertex 1.1611387 -1 3.8277614
    endloop
endfacet
facet normal 0 -1 0
    outer loop
        vertex 0.7803613 -1 3.923141
        vertex 1.1611387 -1 3.8277614
        vertex 20 -1 10
    endloop
endfacet
facet normal 0 -1 0
    outer loop
        vertex 0.39206856 -1 3.980739
        vertex 0.7803613 -1 3.923141
        vertex 20 -1 10
    endloop
endfacet
facet normal 0 -0.99999994 0
    outer loop
        vertex 0.00000000000000024492937 -1 4
        vertex 0.39206856 -1 3.980739
        vertex 20 -1 10
    endloop
endfacet
facet normal 0 -1 0
    outer loop
        vertex -0.39206856 -1 3.980739
        vertex 0.00000000000000024492937 -1 4
        vertex 20 -1 10
    endloop
endfacet
facet normal 0 -1 0
    outer loop
        vertex -25 -1 10
        vertex -0.39206856 -1 3.980739
        vertex 20 -1 10
    endloop
endfacet
facet normal -0 -1 0
    outer loop
        vertex -1.1611387 -1 3.8277614
        vertex -25 -1 10
        vertex -1.5307337 -1 3.695518
    endloop
endfacet
facet normal 0 -1 0
    outer loop
        vertex -1.1611387 -1 3.8277614
        vertex -0.7803613 -1 3.923141
        vertex -25 -1 10
    endloop
endfacet
facet normal -0 -0.99999994 0
    outer loop
        vertex -1.5307337 -1 3.695518
        vertex -25 -1 10
        vertex -1.885587 -1 3.5276852
    endloop
endfacet
facet normal -0 -1 0
    outer loop
        vertex -1.885587 -1 3.5276852
        vertex -25 -1 10
        vertex -2.222281 -1 3.3258784
    endloop
endfacet
facet normal -0 -1 0
    outer loop
        vertex -2.222281 -1 3.3258784
        vertex -25 -1 10
        vertex -2.537573 -1 3.0920417
    endloop
endfacet
facet normal -0 -1 0
    outer loop
        vertex -2.537573 -1 3.0920417
        vertex -25 -1 10
        vertex -2.828427 -1 2.828427
    endloop
endfacet
facet normal -0 -1 0
    outer loop
        vertex -2.828427 -1 2.828427
        vertex -25 -1 10
        vertex -3.0920417 -1 2.537573
    endloop
endfacet
facet normal -0 -1 0
    outer loop
        vertex -3.0920417 -1 2.537573
        vertex -25 -1 10
        vertex -3.3258784 -1 2.222281
    endloop
endfacet
facet normal -0 -1 0
    outer loop
        vertex -3.3258784 -1 2.222281
        vertex -25 -1 10
        vertex -3.5276852 -1 1.885587
    endloop
endfacet
facet normal -0 -1 0
    outer loop
        vertex -3.5276852 -1 1.885587
        vertex -25 -1 10
        vertex -3.695518 -1 1.5307337
    endloop
endfacet
facet normal -0 -1 0
    outer loop
        vertex -3.695518 -1 1.5307337
        vertex -25 -1 10
        vertex -3.8277614 -1 1.1611387
    endloop
endfacet
facet normal -0 -1 0
    outer loop
        vertex -3.8277614 -1 1.1611387
        vertex -25 -1 10
        vertex -3.923141 -1 0.7803613
    endloop
endfacet
facet normal -0 -1 0
    outer loop
        vertex -3.923141 -1 0.7803613
        vertex -25 -1 10
        vertex -3.980739 -1 0.39206856
    endloop
endfacet
facet normal -0 -1 0
    outer loop
        vertex -3.980739 -1 0.39206856
        vertex -25 -1 10
        vertex -4 -1 0.00000000000000048985874
    endloop
endfacet
facet normal 0 -1 0
    outer loop
        vertex -25 -1 10
        vertex -0.7803613 -1 3.923141
        vertex -0.39206856 -1 3.980739
    endloop
endfacet
facet normal 0 -1 0
    outer loop
        vertex -25 -1 -10
        vertex -3.980739 -1 -0.39206856
        vertex -4 -1 0.00000000000000048985874
    endloop
endfacet
facet normal 0 -1 0
    outer loop
        vertex -25 -1 -10
        vertex -3.923141 -1 -0.7803613
        vertex -3.980739 -1 -0.39206856
    endloop
endfacet
facet normal 0 -1 0
    outer loop
        vertex -25 -1 -10
        vertex -3.8277614 -1 -1.1611387
        vertex -3.923141 -1 -0.7803613
    endloop
endfacet
facet normal 0 -0.99999994 0
    outer loop
        vertex -25 -1 -10
        vertex -3.695518 -1 -1.5307337
        vertex -3.8277614 -1 -1.1611387
    endloop
endfacet
facet normal 0 -1 0
    outer loop
        vertex -25 -1 -10
        vertex -3.5276852 -1 -1.885587
        vertex -3.695518 -1 -1.5307337
    endloop
endfacet
facet normal 0 -1 0
    outer loop
        vertex -25 -1 -10
        vertex -3.3258784 -1 -2.222281
        vertex -3.5276852 -1 -1.885587
    endloop
endfacet
facet normal 0 -1 0
    outer loop
        vertex -25 -1 -10
        vertex -3.0920417 -1 -2.537573
        vertex -3.3258784 -1 -2.222281
    endloop
endfacet
facet normal 0 -1 0
    outer loop
        vertex -25 -1 -10
        vertex -2.828427 -1 -2.828427
        vertex -3.0920417 -1 -2.537573
    endloop
endfacet
facet normal 0 -1 0
    outer loop
        vertex -25 -1 -10
        vertex -2.537573 -1 -3.0920417
        vertex -2.828427 -1 -2.828427
    endloop
endfacet
facet normal 0 -1 -0
    outer loop
        vertex -1.885587 -1 -3.5276852
        vertex -25 -1 -10
        vertex -1.5307337 -1 -3.695518
    endloop
endfacet
facet normal -0 -1 0
    outer loop
        vertex -1.885587 -1 -3.5276852
        vertex -2.222281 -1 -3.3258784
        vertex -25 -1 -10
    endloop
endfacet
facet normal 0 -1 -0
    outer loop
        vertex -1.5307337 -1 -3.695518
        vertex -25 -1 -10
        vertex -1.1611387 -1 -3.8277614
    endloop
endfacet
facet normal 0 -1 -0
    outer loop
        vertex -1.1611387 -1 -3.8277614
        vertex -25 -1 -10
        vertex -0.7803613 -1 -3.923141
    endloop
endfacet
facet normal 0 -1 -0
    outer loop
        vertex -0.7803613 -1 -3.923141
        vertex -25 -1 -10
        vertex -0.39206856 -1 -3.980739
    endloop
endfacet
facet normal 0 -1 0
    outer loop
        vertex 20 -1 -10
        vertex -0.39206856 -1 -3.980739
        vertex -25 -1 -10
    endloop
endfacet
facet normal 0 -1 0
    outer loop
        vertex 20 -1 -10
        vertex -0.00000000000000073478806 -1 -4
        vertex -0.39206856 -1 -3.980739
    endloop
endfacet
facet normal 0 -1 0
    outer loop
        vertex 0.7803613 -1 -3.923141
        vertex 20 -1 -10
        vertex 1.1611387 -1 -3.8277614
    endloop
endfacet
facet normal 0 -0.99999994 -0
    outer loop
        vertex 0.7803613 -1 -3.923141
        vertex 0.39206856 -1 -3.980739
        vertex 20 -1 -10
    endloop
endfacet
facet normal 0 -1 0
    outer loop
        vertex 1.1611387 -1 -3.8277614
        vertex 20 -1 -10
        vertex 1.5307337 -1 -3.695518
    endloop
endfacet
facet normal 0 -1 0
    outer loop
        vertex 1.5307337 -1 -3.695518
        vertex 20 -1 -10
        vertex 1.885587 -1 -3.5276852
    endloop
endfacet
facet normal 0 -0.99999994 0
    outer loop
        vertex 1.885587 -1 -3.5276852
        vertex 20 -1 -10
        vertex 2.222281 -1 -3.3258784
    endloop
endfacet
facet normal 0 -1 0
    outer loop
        vertex 2.222281 -1 -3.3258784
        vertex 20 -1 -10
        vertex 2.537573 -1 -3.0920417
    endloop
endfacet
facet normal 0 -1 0
    outer loop
        vertex 2.537573 -1 -3.0920417
        vertex 20 -1 -10
        vertex 2.828427 -1 -2.828427
    endloop
endfacet
facet normal 0 -1 0
    outer loop
        vertex 2.828427 -1 -2.828427
        vertex 20 -1 -10
        vertex 3.0920417 -1 -2.537573
    endloop
endfacet
facet normal 0 -1 0
    outer loop
        vertex 3.0920417 -1 -2.537573
        vertex 20 -1 -10
        vertex 3.3258784 -1 -2.222281
    endloop
endfacet
facet normal 0 -1 0
    outer loop
        vertex 3.3258784 -1 -2.222281
        vertex 20 -1 -10
        vertex 3.5276852 -1 -1.885587
    endloop
endfacet
facet normal 0 -1 0
    outer loop
        vertex 3.5276852 -1 -1.885587
        vertex 20 -1 -10
        vertex 3.695518 -1 -1.5307337
    endloop
endfacet
facet normal 0 -0.99999994 0
    outer loop
        vertex 3.695518 -1 -1.5307337
        vertex 20 -1 -10
        vertex 3.8277614 -1 -1.1611387
    endloop
endfacet
facet normal 0 -1 0
    outer loop
        vertex 3.8277614 -1 -1.1611387
        vertex 20 -1 -10
        vertex 3.923141 -1 -0.7803613
    endloop
endfacet
facet normal 0 -1 0
    outer loop
        vertex 3.923141 -1 -0.7803613
        vertex 20 -1 -10
        vertex 3.980739 -1 -0.39206856
    endloop
endfacet
facet normal 0 -1 0
    outer loop
        vertex -25 -1 -10
        vertex -2.222281 -1 -3.3258784
        vertex -2.537573 -1 -3.0920417
    endloop
endfacet
facet normal 0 -1 0
    outer loop
        vertex 4 -1 0
        vertex 20 -1 -10
        vertex 20 -1 10
    endloop
endfacet
facet normal 0 -0.99999994 -0
    outer loop
        vertex 4 -1 0
        vertex 3.980739 -1 -0.39206856
        vertex 20 -1 -10
    endloop
endfacet
facet normal 0 -1 0
    outer loop
        vertex -25 -1 -10
        vertex -4 -1 0.00000000000000048985874
        vertex -25 -1 10
    endloop
endfacet
facet normal 0 -0.99999994 0
    outer loop
        vertex -0.00000000000000073478806 -1 -4
        vertex 20 -1 -10
        vertex 0.39206856 -1 -3.980739
    endloop
endfacet
facet normal -1 0 0
    outer loop
        vertex 20 -4.5 10
        vertex 20 -1 10
        vertex 20 -4.5 -10
    endloop
endfacet
facet normal -1 0 -0
    outer loop
        vertex 20 -1 10
        vertex 20 -1 -10
        vertex 20 -4.5 -10
    endloop
endfacet
facet normal -0 -1 0
    outer loop
        vertex 25 -4.5 10
        vertex 20 -4.5 10
        vertex 20 -4.5 -10
    endloop
endfacet
facet normal 0 -1 0
    outer loop
        vertex 25 -4.5 -10
        vertex 25 -4.5 10
        vertex 20 -4.5 -10
    endloop
endfacet
facet normal 0.99999994 0 0
    outer loop
        vertex 25 -4.5 -10
        vertex 25 1 -10
        vertex 25 1 10
    endloop
endfacet
facet normal 0.99999994 -0 0
    outer loop
        vertex 25 -4.5 10
        vertex 25 -4.5 -10
        vertex 25 1 10
    endloop
endfacet
facet normal 0 0 -0.99999994
    outer loop
        vertex 25 -4.5 -10
        vertex 20 -1 -10
        vertex 25 1 -10
    endloop
endfacet
facet normal 0 0 -1
    outer loop
        vertex 20 -1 -10
        vertex 25 -4.5 -10
        vertex 20 -4.5 -10
    endloop
endfacet
facet normal 0 0 -1
    outer loop
        vertex -25 -1 -10
        vertex -25 1 -10
        vertex 20 -1 -10
    endloop
endfacet
facet normal -0 0 -1
    outer loop
        vertex 25 1 -10
        vertex 20 -1 -10
        vertex -25 1 -10
    endloop
endfacet
facet normal 0.98917633 0 -0.14673129
    outer loop
        vertex 3.980739 -1 -0.39206856
        vertex 3.980739 -9 -0.39206856
        vertex 3.923141 -1 -0.7803613
    endloop
endfacet
facet normal 0.97003138 0 -0.24297976
    outer loop
        vertex 3.923141 -1 -0.7803613
        vertex 3.923141 -9 -0.7803613
        vertex 3.8277614 -1 -1.1611387
    endloop
endfacet
facet normal 0.97003138 0 -0.24297976
    outer loop
        vertex 3.8277614 -1 -1.1611387
        vertex 3.923141 -9 -0.7803613
        vertex 3.8277614 -9 -1.1611387
    endloop
endfacet
facet normal 0.941544 0 -0.33689025
    outer loop
        vertex 3.695518 -1 -1.5307337
        vertex 3.8277614 -9 -1.1611387
        vertex 3.695518 -9 -1.5307337
    endloop
endfacet
facet normal 0.90398949 0 -0.42755458
    outer loop
        vertex 3.5276852 -1 -1.885587
        vertex 3.695518 -1 -1.5307337
        vertex 3.695518 -9 -1.5307337
    endloop
endfacet
facet normal 0.85772842 0 -0.51410306
    outer loop
        vertex 3.3258784 -1 -2.222281
        vertex 3.5276852 -1 -1.885587
        vertex 3.5276852 -9 -1.885587
    endloop
endfacet
facet normal 0.85772842 0 -0.51410306
    outer loop
        vertex 3.3258784 -9 -2.222281
        vertex 3.3258784 -1 -2.222281
        vertex 3.5276852 -9 -1.885587
    endloop
endfacet
facet normal 0.8032074 0 -0.59569943
    outer loop
        vertex 3.0920417 -9 -2.537573
        vertex 3.0920417 -1 -2.537573
        vertex 3.3258784 -9 -2.222281
    endloop
endfacet
facet normal 0.74095118 0 -0.67155892
    outer loop
        vertex 3.0920417 -9 -2.537573
        vertex 2.828427 -1 -2.828427
        vertex 3.0920417 -1 -2.537573
    endloop
endfacet
facet normal 0.67155892 0 -0.74095118
    outer loop
        vertex 2.828427 -9 -2.828427
        vertex 2.537573 -1 -3.0920417
        vertex 2.828427 -1 -2.828427
    endloop
endfacet
facet normal 0.67155892 0 -0.74095118
    outer loop
        vertex 2.828427 -9 -2.828427
        vertex 2.537573 -9 -3.0920417
        vertex 2.537573 -1 -3.0920417
    endloop
endfacet
facet normal 0.59569943 0 -0.8032074
    outer loop
        vertex 2.537573 -9 -3.0920417
        vertex 2.222281 -9 -3.3258784
        vertex 2.222281 -1 -3.3258784
    endloop
endfacet
facet normal 0.51410306 0 -0.85772842
    outer loop
        vertex 2.222281 -1 -3.3258784
        vertex 2.222281 -9 -3.3258784
        vertex 1.885587 -1 -3.5276852
    endloop
endfacet
facet normal 0.42755458 0 -0.90398949
    outer loop
        vertex 1.885587 -1 -3.5276852
        vertex 1.885587 -9 -3.5276852
        vertex 1.5307337 -1 -3.695518
    endloop
endfacet
facet normal 0.42755458 0 -0.90398949
    outer loop
        vertex 1.5307337 -1 -3.695518
        vertex 1.885587 -9 -3.5276852
        vertex 1.5307337 -9 -3.695518
    endloop
endfacet
facet normal 0.33689025 0 -0.941544
    outer loop
        vertex 1.1611387 -1 -3.8277614
        vertex 1.5307337 -9 -3.695518
        vertex 1.1611387 -9 -3.8277614
    endloop
endfacet
facet normal 0.24297976 0 -0.97003138
    outer loop
        vertex 0.7803613 -1 -3.923141
        vertex 1.1611387 -1 -3.8277614
        vertex 1.1611387 -9 -3.8277614
    endloop
endfacet
facet normal 0.14673129 0 -0.98917633
    outer loop
        vertex 0.39206856 -1 -3.980739
        vertex 0.7803613 -1 -3.923141
        vertex 0.7803613 -9 -3.923141
    endloop
endfacet
facet normal 0.14673129 0 -0.98917633
    outer loop
        vertex 0.39206856 -9 -3.980739
        vertex 0.39206856 -1 -3.980739
        vertex 0.7803613 -9 -3.923141
    endloop
endfacet
facet normal 0.04906714 0 -0.99879545
    outer loop
        vertex 0.00000000000000024492937 -9 -4
        vertex -0.00000000000000073478806 -1 -4
        vertex 0.39206856 -9 -3.980739
    endloop
endfacet
facet normal -0.04906714 -0 -0.99879545
    outer loop
        vertex 0.00000000000000024492937 -9 -4
        vertex -0.39206856 -1 -3.980739
        vertex -0.00000000000000073478806 -1 -4
    endloop
endfacet
facet normal -0.14673129 0 -0.98917633
    outer loop
        vertex -0.39206856 -9 -3.980739
        vertex -0.7803613 -1 -3.923141
        vertex -0.39206856 -1 -3.980739
    endloop
endfacet
facet normal -0.14673129 0 -0.98917633
    outer loop
        vertex -0.39206856 -9 -3.980739
        vertex -0.7803613 -9 -3.923141
        vertex -0.7803613 -1 -3.923141
    endloop
endfacet
facet normal -0.24297976 0 -0.97003138
    outer loop
        vertex -0.7803613 -9 -3.923141
        vertex -1.1611387 -9 -3.8277614
        vertex -1.1611387 -1 -3.8277614
    endloop
endfacet
facet normal -0.33689025 -0 -0.941544
    outer loop
        vertex -1.1611387 -1 -3.8277614
        vertex -1.1611387 -9 -3.8277614
        vertex -1.5307337 -1 -3.695518
    endloop
endfacet
facet normal -0.42755458 -0 -0.90398949
    outer loop
        vertex -1.5307337 -1 -3.695518
        vertex -1.5307337 -9 -3.695518
        vertex -1.885587 -1 -3.5276852
    endloop
endfacet
facet normal -0.42755458 -0 -0.90398949
    outer loop
        vertex -1.885587 -1 -3.5276852
        vertex -1.5307337 -9 -3.695518
        vertex -1.885587 -9 -3.5276852
    endloop
endfacet
facet normal -0.51410306 -0 -0.85772842
    outer loop
        vertex -2.222281 -1 -3.3258784
        vertex -1.885587 -9 -3.5276852
        vertex -2.222281 -9 -3.3258784
    endloop
endfacet
facet normal -0.59569943 0 -0.8032074
    outer loop
        vertex -2.537573 -1 -3.0920417
        vertex -2.222281 -1 -3.3258784
        vertex -2.222281 -9 -3.3258784
    endloop
endfacet
facet normal -0.67155892 0 -0.74095118
    outer loop
        vertex -2.828427 -1 -2.828427
        vertex -2.537573 -1 -3.0920417
        vertex -2.537573 -9 -3.0920417
    endloop
endfacet
facet normal -0.67155892 0 -0.74095118
    outer loop
        vertex -2.828427 -9 -2.828427
        vertex -2.828427 -1 -2.828427
        vertex -2.537573 -9 -3.0920417
    endloop
endfacet
facet normal -0.74095118 0 -0.67155892
    outer loop
        vertex -3.0920417 -9 -2.537573
        vertex -3.0920417 -1 -2.537573
        vertex -2.828427 -9 -2.828427
    endloop
endfacet
facet normal -0.8032074 0 -0.59569943
    outer loop
        vertex -3.0920417 -9 -2.537573
        vertex -3.3258784 -1 -2.222281
        vertex -3.0920417 -1 -2.537573
    endloop
endfacet
facet normal -0.85772842 0 -0.51410306
    outer loop
        vertex -3.3258784 -9 -2.222281
        vertex -3.5276852 -1 -1.885587
        vertex -3.3258784 -1 -2.222281
    endloop
endfacet
facet normal -0.85772842 0 -0.51410306
    outer loop
        vertex -3.3258784 -9 -2.222281
        vertex -3.5276852 -9 -1.885587
        vertex -3.5276852 -1 -1.885587
    endloop
endfacet
facet normal -0.90398949 0 -0.42755458
    outer loop
        vertex -3.5276852 -9 -1.885587
        vertex -3.695518 -9 -1.5307337
        vertex -3.695518 -1 -1.5307337
    endloop
endfacet
facet normal -0.941544 -0 -0.33689025
    outer loop
        vertex -3.695518 -1 -1.5307337
        vertex -3.695518 -9 -1.5307337
        vertex -3.8277614 -1 -1.1611387
    endloop
endfacet
facet normal -0.97003138 -0 -0.24297976
    outer loop
        vertex -3.8277614 -1 -1.1611387
        vertex -3.8277614 -9 -1.1611387
        vertex -3.923141 -1 -0.7803613
    endloop
endfacet
facet normal -0.97003138 -0 -0.24297976
    outer loop
        vertex -3.923141 -1 -0.7803613
        vertex -3.8277614 -9 -1.1611387
        vertex -3.923141 -9 -0.7803613
    endloop
endfacet
facet normal -0.98917633 -0 -0.14673129
    outer loop
        vertex -3.980739 -1 -0.39206856
        vertex -3.923141 -9 -0.7803613
        vertex -3.980739 -9 -0.39206856
    endloop
endfacet
facet normal -0.99879545 0 -0.04906714
    outer loop
        vertex -4 -1 0.00000000000000048985874
        vertex -3.980739 -1 -0.39206856
        vertex -3.980739 -9 -0.39206856
    endloop
endfacet
facet normal -0.99879545 0 0.04906714
    outer loop
        vertex -3.980739 -1 0.39206856
        vertex -4 -1 0.00000000000000048985874
        vertex -4 -9 -0.00000000000000048985874
    endloop
endfacet
facet normal -0.99879545 0 0.04906714
    outer loop
        vertex -3.980739 -9 0.39206856
        vertex -3.980739 -1 0.39206856
        vertex -4 -9 -0.00000000000000048985874
    endloop
endfacet
facet normal -0.98917633 0 0.14673129
    outer loop
        vertex -3.923141 -9 0.7803613
        vertex -3.923141 -1 0.7803613
        vertex -3.980739 -9 0.39206856
    endloop
endfacet
facet normal -0.97003138 0 0.24297976
    outer loop
        vertex -3.8277614 -9 1.1611387
        vertex -3.8277614 -1 1.1611387
        vertex -3.923141 -9 0.7803613
    endloop
endfacet
facet normal -0.941544 0 0.33689025
    outer loop
        vertex -3.8277614 -9 1.1611387
        vertex -3.695518 -1 1.5307337
        vertex -3.8277614 -1 1.1611387
    endloop
endfacet
facet normal -0.90398949 0 0.42755458
    outer loop
        vertex -3.695518 -9 1.5307337
        vertex -3.5276852 -1 1.885587
        vertex -3.695518 -1 1.5307337
    endloop
endfacet
facet normal -0.90398949 0 0.42755458
    outer loop
        vertex -3.695518 -9 1.5307337
        vertex -3.5276852 -9 1.885587
        vertex -3.5276852 -1 1.885587
    endloop
endfacet
facet normal -0.85772842 0 0.51410306
    outer loop
        vertex -3.5276852 -9 1.885587
        vertex -3.3258784 -9 2.222281
        vertex -3.3258784 -1 2.222281
    endloop
endfacet
facet normal -0.8032074 0 0.59569943
    outer loop
        vertex -3.3258784 -1 2.222281
        vertex -3.3258784 -9 2.222281
        vertex -3.0920417 -1 2.537573
    endloop
endfacet
facet normal -0.74095118 0 0.67155892
    outer loop
        vertex -3.0920417 -1 2.537573
        vertex -3.0920417 -9 2.537573
        vertex -2.828427 -1 2.828427
    endloop
endfacet
facet normal -0.74095118 0 0.67155892
    outer loop
        vertex -2.828427 -1 2.828427
        vertex -3.0920417 -9 2.537573
        vertex -2.828427 -9 2.828427
    endloop
endfacet
facet normal -0.67155892 0 0.74095118
    outer loop
        vertex -2.537573 -1 3.0920417
        vertex -2.828427 -9 2.828427
        vertex -2.537573 -9 3.0920417
    endloop
endfacet
facet normal -0.59569943 0 0.8032074
    outer loop
        vertex -2.222281 -1 3.3258784
        vertex -2.537573 -1 3.0920417
        vertex -2.537573 -9 3.0920417
    endloop
endfacet
facet normal -0.51410306 0 0.85772842
    outer loop
        vertex -1.885587 -1 3.5276852
        vertex -2.222281 -1 3.3258784
        vertex -2.222281 -9 3.3258784
    endloop
endfacet
facet normal -0.51410306 0 0.85772842
    outer loop
        vertex -1.885587 -9 3.5276852
        vertex -1.885587 -1 3.5276852
        vertex -2.222281 -9 3.3258784
    endloop
endfacet
facet normal -0.42755458 0 0.90398949
    outer loop
        vertex -1.5307337 -9 3.695518
        vertex -1.5307337 -1 3.695518
        vertex -1.885587 -9 3.5276852
    endloop
endfacet
facet normal -0.33689025 0 0.941544
    outer loop
        vertex -1.5307337 -9 3.695518
        vertex -1.1611387 -1 3.8277614
        vertex -1.5307337 -1 3.695518
    endloop
endfacet
facet normal -0.24297976 0 0.97003138
    outer loop
        vertex -1.1611387 -9 3.8277614
        vertex -0.7803613 -1 3.923141
        vertex -1.1611387 -1 3.8277614
    endloop
endfacet
facet normal -0.24297976 0 0.97003138
    outer loop
        vertex -1.1611387 -9 3.8277614
        vertex -0.7803613 -9 3.923141
        vertex -0.7803613 -1 3.923141
    endloop
endfacet
facet normal -0.14673129 0 0.98917633
    outer loop
        vertex -0.7803613 -9 3.923141
        vertex -0.39206856 -9 3.980739
        vertex -0.39206856 -1 3.980739
    endloop
endfacet
facet normal 0.33689025 -0 0.941544
    outer loop
        vertex 1.5307337 -9 3.695518
        vertex 1.5307337 -1 3.695518
        vertex 1.1611387 -9 3.8277614
    endloop
endfacet
facet normal 0.8032074 0 0.59569943
    outer loop
        vertex 3.0920417 -9 2.537573
        vertex 3.3258784 -9 2.222281
        vertex 3.3258784 -1 2.222281
    endloop
endfacet
facet normal 0.85772842 -0 0.51410306
    outer loop
        vertex 3.3258784 -9 2.222281
        vertex 3.5276852 -1 1.885587
        vertex 3.3258784 -1 2.222281
    endloop
endfacet
facet normal 0.99879545 0 0.04906714
    outer loop
        vertex 3.980739 -9 0.39206856
        vertex 4 -9 0
        vertex 4 -1 0
    endloop
endfacet
facet normal 0.99879545 0 0.04906714
    outer loop
        vertex 3.980739 -1 0.39206856
        vertex 3.980739 -9 0.39206856
        vertex 4 -1 0
    endloop
endfacet
facet normal 0.98917633 0 0.14673129
    outer loop
        vertex 3.980739 -1 0.39206856
        vertex 3.923141 -9 0.7803613
        vertex 3.980739 -9 0.39206856
    endloop
endfacet
facet normal 0.98917633 0 0.14673129
    outer loop
        vertex 3.980739 -1 0.39206856
        vertex 3.923141 -1 0.7803613
        vertex 3.923141 -9 0.7803613
    endloop
endfacet
facet normal 0.97003138 -0 0.24297976
    outer loop
        vertex 3.923141 -9 0.7803613
        vertex 3.923141 -1 0.7803613
        vertex 3.8277614 -9 1.1611387
    endloop
endfacet
facet normal 0.97003138 0 0.24297976
    outer loop
        vertex 3.8277614 -1 1.1611387
        vertex 3.8277614 -9 1.1611387
        vertex 3.923141 -1 0.7803613
    endloop
endfacet
facet normal 0.941544 0 0.33689025
    outer loop
        vertex 3.8277614 -1 1.1611387
        vertex 3.695518 -9 1.5307337
        vertex 3.8277614 -9 1.1611387
    endloop
endfacet
facet normal 0.941544 0 0.33689025
    outer loop
        vertex 3.8277614 -1 1.1611387
        vertex 3.695518 -1 1.5307337
        vertex 3.695518 -9 1.5307337
    endloop
endfacet
facet normal 0.90398949 -0 0.42755458
    outer loop
        vertex 3.695518 -9 1.5307337
        vertex 3.695518 -1 1.5307337
        vertex 3.5276852 -9 1.885587
    endloop
endfacet
facet normal 0.90398949 -0 0.42755458
    outer loop
        vertex 3.5276852 -9 1.885587
        vertex 3.695518 -1 1.5307337
        vertex 3.5276852 -1 1.885587
    endloop
endfacet
facet normal 0.85772842 0 0.51410306
    outer loop
        vertex 3.3258784 -9 2.222281
        vertex 3.5276852 -9 1.885587
        vertex 3.5276852 -1 1.885587
    endloop
endfacet
facet normal 0.8032074 0 0.59569943
    outer loop
        vertex 3.0920417 -1 2.537573
        vertex 3.0920417 -9 2.537573
        vertex 3.3258784 -1 2.222281
    endloop
endfacet
facet normal 0.74095118 0 0.67155892
    outer loop
        vertex 3.0920417 -1 2.537573
        vertex 2.828427 -9 2.828427
        vertex 3.0920417 -9 2.537573
    endloop
endfacet
facet normal 0.74095118 0 0.67155892
    outer loop
        vertex 3.0920417 -1 2.537573
        vertex 2.828427 -1 2.828427
        vertex 2.828427 -9 2.828427
    endloop
endfacet
facet normal 0.67155892 -0 0.74095118
    outer loop
        vertex 2.828427 -9 2.828427
        vertex 2.828427 -1 2.828427
        vertex 2.537573 -9 3.0920417
    endloop
endfacet
facet normal 0.67155892 -0 0.74095118
    outer loop
        vertex 2.537573 -9 3.0920417
        vertex 2.828427 -1 2.828427
        vertex 2.537573 -1 3.0920417
    endloop
endfacet
facet normal 0.59569943 0 0.8032074
    outer loop
        vertex 2.222281 -9 3.3258784
        vertex 2.537573 -9 3.0920417
        vertex 2.537573 -1 3.0920417
    endloop
endfacet
facet normal 0.59569943 0 0.8032074
    outer loop
        vertex 2.222281 -1 3.3258784
        vertex 2.222281 -9 3.3258784
        vertex 2.537573 -1 3.0920417
    endloop
endfacet
facet normal 0.51410306 0 0.85772842
    outer loop
        vertex 2.222281 -1 3.3258784
        vertex 1.885587 -9 3.5276852
        vertex 2.222281 -9 3.3258784
    endloop
endfacet
facet normal 0.51410306 0 0.85772842
    outer loop
        vertex 2.222281 -1 3.3258784
        vertex 1.885587 -1 3.5276852
        vertex 1.885587 -9 3.5276852
    endloop
endfacet
facet normal 0.42755458 -0 0.90398949
    outer loop
        vertex 1.885587 -9 3.5276852
        vertex 1.885587 -1 3.5276852
        vertex 1.5307337 -9 3.695518
    endloop
endfacet
facet normal 0.42755458 -0 0.90398949
    outer loop
        vertex 1.5307337 -9 3.695518
        vertex 1.885587 -1 3.5276852
        vertex 1.5307337 -1 3.695518
    endloop
endfacet
facet normal 0.33689025 -0 0.941544
    outer loop
        vertex 1.1611387 -9 3.8277614
        vertex 1.5307337 -1 3.695518
        vertex 1.1611387 -1 3.8277614
    endloop
endfacet
facet normal 0.24297976 0 0.97003138
    outer loop
        vertex 0.7803613 -9 3.923141
        vertex 1.1611387 -9 3.8277614
        vertex 1.1611387 -1 3.8277614
    endloop
endfacet
facet normal 0.24297976 0 0.97003138
    outer loop
        vertex 0.7803613 -1 3.923141
        vertex 0.7803613 -9 3.923141
        vertex 1.1611387 -1 3.8277614
    endloop
endfacet
facet normal 0.14673129 0 0.98917633
    outer loop
        vertex 0.7803613 -1 3.923141
        vertex 0.39206856 -9 3.980739
        vertex 0.7803613 -9 3.923141
    endloop
endfacet
facet normal 0.14673129 0 0.98917633
    outer loop
        vertex 0.7803613 -1 3.923141
        vertex 0.39206856 -1 3.980739
        vertex 0.39206856 -9 3.980739
    endloop
endfacet
facet normal 0.04906714 -0 0.99879545
    outer loop
        vertex 0.39206856 -9 3.980739
        vertex 0.39206856 -1 3.980739
        vertex -0.00000000000000073478806 -9 4
    endloop
endfacet
facet normal 0.04906714 -0 0.99879545
    outer loop
        vertex -0.00000000000000073478806 -9 4
        vertex 0.39206856 -1 3.980739
        vertex 0.00000000000000024492937 -1 4
    endloop
endfacet
facet normal -0.04906714 0 0.99879545
    outer loop
        vertex -0.39206856 -9 3.980739
        vertex -0.00000000000000073478806 -9 4
        vertex 0.00000000000000024492937 -1 4
    endloop
endfacet
facet normal -0.04906714 0 0.99879545
    outer loop
        vertex -0.39206856 -1 3.980739
        vertex -0.39206856 -9 3.980739
        vertex 0.00000000000000024492937 -1 4
    endloop
endfacet
facet normal -0.14673129 0 0.98917633
    outer loop
        vertex -0.39206856 -1 3.980739
        vertex -0.7803613 -1 3.923141
        vertex -0.7803613 -9 3.923141
    endloop
endfacet
facet normal -0.33689025 0 0.941544
    outer loop
        vertex -1.1611387 -1 3.8277614
        vertex -1.5307337 -9 3.695518
        vertex -1.1611387 -9 3.8277614
    endloop
endfacet
facet normal -0.42755458 0 0.90398949
    outer loop
        vertex -1.885587 -1 3.5276852
        vertex -1.885587 -9 3.5276852
        vertex -1.5307337 -1 3.695518
    endloop
endfacet
facet normal -0.59569943 0 0.8032074
    outer loop
        vertex -2.537573 -9 3.0920417
        vertex -2.222281 -9 3.3258784
        vertex -2.222281 -1 3.3258784
    endloop
endfacet
facet normal -0.67155892 0 0.74095118
    outer loop
        vertex -2.828427 -9 2.828427
        vertex -2.537573 -1 3.0920417
        vertex -2.828427 -1 2.828427
    endloop
endfacet
facet normal -0.8032074 0 0.59569943
    outer loop
        vertex -3.0920417 -9 2.537573
        vertex -3.0920417 -1 2.537573
        vertex -3.3258784 -9 2.222281
    endloop
endfacet
facet normal -0.85772842 0 0.51410306
    outer loop
        vertex -3.3258784 -1 2.222281
        vertex -3.5276852 -1 1.885587
        vertex -3.5276852 -9 1.885587
    endloop
endfacet
facet normal -0.941544 0 0.33689025
    outer loop
        vertex -3.695518 -1 1.5307337
        vertex -3.8277614 -9 1.1611387
        vertex -3.695518 -9 1.5307337
    endloop
endfacet
facet normal -0.97003138 0 0.24297976
    outer loop
        vertex -3.923141 -1 0.7803613
        vertex -3.923141 -9 0.7803613
        vertex -3.8277614 -1 1.1611387
    endloop
endfacet
facet normal -0.98917633 0 0.14673129
    outer loop
        vertex -3.980739 -1 0.39206856
        vertex -3.980739 -9 0.39206856
        vertex -3.923141 -1 0.7803613
    endloop
endfacet
facet normal -0.99879545 0 -0.04906714
    outer loop
        vertex -3.980739 -9 -0.39206856
        vertex -4 -9 -0.00000000000000048985874
        vertex -4 -1 0.00000000000000048985874
    endloop
endfacet
facet normal -0.98917633 0 -0.14673129
    outer loop
        vertex -3.923141 -9 -0.7803613
        vertex -3.980739 -1 -0.39206856
        vertex -3.923141 -1 -0.7803613
    endloop
endfacet
facet normal -0.941544 0 -0.33689025
    outer loop
        vertex -3.8277614 -9 -1.1611387
        vertex -3.8277614 -1 -1.1611387
        vertex -3.695518 -9 -1.5307337
    endloop
endfacet
facet normal -0.90398949 0 -0.42755458
    outer loop
        vertex -3.695518 -1 -1.5307337
        vertex -3.5276852 -1 -1.885587
        vertex -3.5276852 -9 -1.885587
    endloop
endfacet
facet normal -0.8032074 -0 -0.59569943
    outer loop
        vertex -3.3258784 -1 -2.222281
        vertex -3.0920417 -9 -2.537573
        vertex -3.3258784 -9 -2.222281
    endloop
endfacet
facet normal -0.74095118 -0 -0.67155892
    outer loop
        vertex -2.828427 -1 -2.828427
        vertex -2.828427 -9 -2.828427
        vertex -3.0920417 -1 -2.537573
    endloop
endfacet
facet normal -0.59569943 0 -0.8032074
    outer loop
        vertex -2.222281 -9 -3.3258784
        vertex -2.537573 -9 -3.0920417
        vertex -2.537573 -1 -3.0920417
    endloop
endfacet
facet normal -0.51410306 0 -0.85772842
    outer loop
        vertex -1.885587 -9 -3.5276852
        vertex -2.222281 -1 -3.3258784
        vertex -1.885587 -1 -3.5276852
    endloop
endfacet
facet normal -0.33689025 0 -0.941544
    outer loop
        vertex -1.5307337 -9 -3.695518
        vertex -1.5307337 -1 -3.695518
        vertex -1.1611387 -9 -3.8277614
    endloop
endfacet
facet normal -0.24297976 0 -0.97003138
    outer loop
        vertex -1.1611387 -1 -3.8277614
        vertex -0.7803613 -1 -3.923141
        vertex -0.7803613 -9 -3.923141
    endloop
endfacet
facet normal -0.04906714 -0 -0.99879545
    outer loop
        vertex -0.39206856 -1 -3.980739
        vertex 0.00000000000000024492937 -9 -4
        vertex -0.39206856 -9 -3.980739
    endloop
endfacet
facet normal 0.04906714 0 -0.99879545
    outer loop
        vertex 0.39206856 -1 -3.980739
        vertex 0.39206856 -9 -3.980739
        vertex -0.00000000000000073478806 -1 -4
    endloop
endfacet
facet normal 0.24297976 0 -0.97003138
    outer loop
        vertex 1.1611387 -9 -3.8277614
        vertex 0.7803613 -9 -3.923141
        vertex 0.7803613 -1 -3.923141
    endloop
endfacet
facet normal 0.33689025 0 -0.941544
    outer loop
        vertex 1.5307337 -9 -3.695518
        vertex 1.1611387 -1 -3.8277614
        vertex 1.5307337 -1 -3.695518
    endloop
endfacet
facet normal 0.51410306 0 -0.85772842
    outer loop
        vertex 1.885587 -9 -3.5276852
        vertex 1.885587 -1 -3.5276852
        vertex 2.222281 -9 -3.3258784
    endloop
endfacet
facet normal 0.59569943 0 -0.8032074
    outer loop
        vertex 2.222281 -1 -3.3258784
        vertex 2.537573 -1 -3.0920417
        vertex 2.537573 -9 -3.0920417
    endloop
endfacet
facet normal 0.74095118 0 -0.67155892
    outer loop
        vertex 2.828427 -1 -2.828427
        vertex 3.0920417 -9 -2.537573
        vertex 2.828427 -9 -2.828427
    endloop
endfacet
facet normal 0.99879545 0 -0.04906714
    outer loop
        vertex 3.980739 -9 -0.39206856
        vertex 3.980739 -1 -0.39206856
        vertex 4 -1 0
    endloop
endfacet
facet normal 0.8032074 0 -0.59569943
    outer loop
        vertex 3.0920417 -1 -2.537573
        vertex 3.3258784 -1 -2.222281
        vertex 3.3258784 -9 -2.222281
    endloop
endfacet
facet normal 0.941544 0 -0.33689025
    outer loop
        vertex 3.695518 -1 -1.5307337
        vertex 3.8277614 -1 -1.1611387
        vertex 3.8277614 -9 -1.1611387
    endloop
endfacet
facet normal 0.90398949 0 -0.42755458
    outer loop
        vertex 3.5276852 -9 -1.885587
        vertex 3.5276852 -1 -1.885587
        vertex 3.695518 -9 -1.5307337
    endloop
endfacet
facet normal 0.98917633 0 -0.14673129
    outer loop
        vertex 3.980739 -9 -0.39206856
        vertex 3.923141 -9 -0.7803613
        vertex 3.923141 -1 -0.7803613
    endloop
endfacet
facet normal 0.99879545 0 -0.04906714
    outer loop
        vertex 4 -1 0
        vertex 4 -9 0
        vertex 3.980739 -9 -0.39206856
    endloop
endfacet
facet normal 0 1 -0
    outer loop
        vertex 3.980739 -9 0.39206856
        vertex 3.923141 -9 0.7803613
        vertex 25 -9 10
    endloop
endfacet
facet normal -0 1 0
    outer loop
        vertex 3.980739 -9 0.39206856
        vertex 25 -9 10
        vertex 4 -9 0
    endloop
endfacet
facet normal 0 1 -0
    outer loop
        vertex 3.923141 -9 0.7803613
        vertex 3.8277614 -9 1.1611387
        vertex 25 -9 10
    endloop
endfacet
facet normal 0 1 -0
    outer loop
        vertex 3.8277614 -9 1.1611387
        vertex 3.695518 -9 1.5307337
        vertex 25 -9 10
    endloop
endfacet
facet normal 0 1 -0
    outer loop
        vertex 3.695518 -9 1.5307337
        vertex 3.5276852 -9 1.885587
        vertex 25 -9 10
    endloop
endfacet
facet normal 0 1 -0
    outer loop
        vertex 3.5276852 -9 1.885587
        vertex 3.3258784 -9 2.222281
        vertex 25 -9 10
    endloop
endfacet
facet normal 0 1 -0
    outer loop
        vertex 3.3258784 -9 2.222281
        vertex 3.0920417 -9 2.537573
        vertex 25 -9 10
    endloop
endfacet
facet normal 0 1 -0
    outer loop
        vertex 3.0920417 -9 2.537573
        vertex 2.828427 -9 2.828427
        vertex 25 -9 10
    endloop
endfacet
facet normal 0 1 -0
    outer loop
        vertex 2.828427 -9 2.828427
        vertex 2.537573 -9 3.0920417
        vertex 25 -9 10
    endloop
endfacet
facet normal 0 1 -0
    outer loop
        vertex 2.537573 -9 3.0920417
        vertex 2.222281 -9 3.3258784
        vertex 25 -9 10
    endloop
endfacet
facet normal 0 1 -0
    outer loop
        vertex 2.222281 -9 3.3258784
        vertex 1.885587 -9 3.5276852
        vertex 25 -9 10
    endloop
endfacet
facet normal 0 1 -0
    outer loop
        vertex 1.885587 -9 3.5276852
        vertex 1.5307337 -9 3.695518
        vertex 25 -9 10
    endloop
endfacet
facet normal 0 1 -0
    outer loop
        vertex 1.5307337 -9 3.695518
        vertex 1.1611387 -9 3.8277614
        vertex 25 -9 10
    endloop
endfacet
facet normal -0 1 0
    outer loop
        vertex 0.7803613 -9 3.923141
        vertex 25 -9 10
        vertex 1.1611387 -9 3.8277614
    endloop
endfacet
facet normal -0 1 0
    outer loop
        vertex 0.39206856 -9 3.980739
        vertex 25 -9 10
        vertex 0.7803613 -9 3.923141
    endloop
endfacet
facet normal -0 1 0
    outer loop
        vertex -0.00000000000000073478806 -9 4
        vertex 25 -9 10
        vertex 0.39206856 -9 3.980739
    endloop
endfacet
facet normal -0 1 0
    outer loop
        vertex -25 -9 10
        vertex 25 -9 10
        vertex -0.00000000000000073478806 -9 4
    endloop
endfacet
facet normal 0 1 0
    outer loop
        vertex -0.7803613 -9 3.923141
        vertex -1.1611387 -9 3.8277614
        vertex -25 -9 10
    endloop
endfacet
facet normal 0 1 -0
    outer loop
        vertex -0.7803613 -9 3.923141
        vertex -25 -9 10
        vertex -0.39206856 -9 3.980739
    endloop
endfacet
facet normal 0 1 0
    outer loop
        vertex -1.1611387 -9 3.8277614
        vertex -1.5307337 -9 3.695518
        vertex -25 -9 10
    endloop
endfacet
facet normal 0 0.99999994 0
    outer loop
        vertex -1.5307337 -9 3.695518
        vertex -1.885587 -9 3.5276852
        vertex -25 -9 10
    endloop
endfacet
facet normal 0 1 0
    outer loop
        vertex -1.885587 -9 3.5276852
        vertex -2.222281 -9 3.3258784
        vertex -25 -9 10
    endloop
endfacet
facet normal 0 1 0
    outer loop
        vertex -2.222281 -9 3.3258784
        vertex -2.537573 -9 3.0920417
        vertex -25 -9 10
    endloop
endfacet
facet normal 0 1 0
    outer loop
        vertex -2.537573 -9 3.0920417
        vertex -2.828427 -9 2.828427
        vertex -25 -9 10
    endloop
endfacet
facet normal 0 1 0
    outer loop
        vertex -2.828427 -9 2.828427
        vertex -3.0920417 -9 2.537573
        vertex -25 -9 10
    endloop
endfacet
facet normal 0 1 0
    outer loop
        vertex -3.0920417 -9 2.537573
        vertex -3.3258784 -9 2.222281
        vertex -25 -9 10
    endloop
endfacet
facet normal 0 1 0
    outer loop
        vertex -3.3258784 -9 2.222281
        vertex -3.5276852 -9 1.885587
        vertex -25 -9 10
    endloop
endfacet
facet normal 0 1 0
    outer loop
        vertex -3.5276852 -9 1.885587
        vertex -3.695518 -9 1.5307337
        vertex -25 -9 10
    endloop
endfacet
facet normal 0 1 0
    outer loop
        vertex -3.695518 -9 1.5307337
        vertex -3.8277614 -9 1.1611387
        vertex -25 -9 10
    endloop
endfacet
facet normal 0 1 0
    outer loop
        vertex -3.8277614 -9 1.1611387
        vertex -3.923141 -9 0.7803613
        vertex -25 -9 10
    endloop
endfacet
facet normal 0 1 0
    outer loop
        vertex -3.923141 -9 0.7803613
        vertex -3.980739 -9 0.39206856
        vertex -25 -9 10
    endloop
endfacet
facet normal 0 0.99999994 0
    outer loop
        vertex -25 -9 10
        vertex -0.00000000000000073478806 -9 4
        vertex -0.39206856 -9 3.980739
    endloop
endfacet
facet normal 0 1 -0
    outer loop
        vertex -4 -9 -0.00000000000000048985874
        vertex -25 -9 10
        vertex -3.980739 -9 0.39206856
    endloop
endfacet
facet normal 0 1 0
    outer loop
        vertex -25 -9 -10
        vertex -25 -9 10
        vertex -4 -9 -0.00000000000000048985874
    endloop
endfacet
facet normal 0 1 0
    outer loop
        vertex -25 -9 -10
        vertex -4 -9 -0.00000000000000048985874
        vertex -3.980739 -9 -0.39206856
    endloop
endfacet
facet normal 0 1 0
    outer loop
        vertex -25 -9 -10
        vertex -3.980739 -9 -0.39206856
        vertex -3.923141 -9 -0.7803613
    endloop
endfacet
facet normal 0 1 0
    outer loop
        vertex -25 -9 -10
        vertex -3.923141 -9 -0.7803613
        vertex -3.8277614 -9 -1.1611387
    endloop
endfacet
facet normal 0 0.99999994 0
    outer loop
        vertex -25 -9 -10
        vertex -3.8277614 -9 -1.1611387
        vertex -3.695518 -9 -1.5307337
    endloop
endfacet
facet normal 0 1 0
    outer loop
        vertex -25 -9 -10
        vertex -3.695518 -9 -1.5307337
        vertex -3.5276852 -9 -1.885587
    endloop
endfacet
facet normal 0 1 0
    outer loop
        vertex -25 -9 -10
        vertex -3.5276852 -9 -1.885587
        vertex -3.3258784 -9 -2.222281
    endloop
endfacet
facet normal 0 1 0
    outer loop
        vertex -25 -9 -10
        vertex -3.3258784 -9 -2.222281
        vertex -3.0920417 -9 -2.537573
    endloop
endfacet
facet normal 0 1 0
    outer loop
        vertex -25 -9 -10
        vertex -3.0920417 -9 -2.537573
        vertex -2.828427 -9 -2.828427
    endloop
endfacet
facet normal 0 1 0
    outer loop
        vertex -25 -9 -10
        vertex -2.828427 -9 -2.828427
        vertex -2.537573 -9 -3.0920417
    endloop
endfacet
facet normal 0 1 0
    outer loop
        vertex -1.885587 -9 -3.5276852
        vertex -1.5307337 -9 -3.695518
        vertex -25 -9 -10
    endloop
endfacet
facet normal 0 1 0
    outer loop
        vertex -1.885587 -9 -3.5276852
        vertex -25 -9 -10
        vertex -2.222281 -9 -3.3258784
    endloop
endfacet
facet normal 0 1 0
    outer loop
        vertex -1.5307337 -9 -3.695518
        vertex -1.1611387 -9 -3.8277614
        vertex -25 -9 -10
    endloop
endfacet
facet normal 0 1 0
    outer loop
        vertex -1.1611387 -9 -3.8277614
        vertex -0.7803613 -9 -3.923141
        vertex -25 -9 -10
    endloop
endfacet
facet normal 0 1 0
    outer loop
        vertex -0.7803613 -9 -3.923141
        vertex -0.39206856 -9 -3.980739
        vertex -25 -9 -10
    endloop
endfacet
facet normal 0 1 0
    outer loop
        vertex 0.00000000000000024492937 -9 -4
        vertex -25 -9 -10
        vertex -0.39206856 -9 -3.980739
    endloop
endfacet
facet normal 0 1 0
    outer loop
        vertex 25 -9 -10
        vertex -25 -9 -10
        vertex 0.00000000000000024492937 -9 -4
    endloop
endfacet
facet normal -0 1 0
    outer loop
        vertex 0.7803613 -9 -3.923141
        vertex 1.1611387 -9 -3.8277614
        vertex 25 -9 -10
    endloop
endfacet
facet normal 0 1 0
    outer loop
        vertex 0.7803613 -9 -3.923141
        vertex 25 -9 -10
        vertex 0.39206856 -9 -3.980739
    endloop
endfacet
facet normal -0 1 0
    outer loop
        vertex 1.1611387 -9 -3.8277614
        vertex 1.5307337 -9 -3.695518
        vertex 25 -9 -10
    endloop
endfacet
facet normal -0 0.99999994 0
    outer loop
        vertex 1.5307337 -9 -3.695518
        vertex 1.885587 -9 -3.5276852
        vertex 25 -9 -10
    endloop
endfacet
facet normal -0 1 0
    outer loop
        vertex 1.885587 -9 -3.5276852
        vertex 2.222281 -9 -3.3258784
        vertex 25 -9 -10
    endloop
endfacet
facet normal -0 1 0
    outer loop
        vertex 2.222281 -9 -3.3258784
        vertex 2.537573 -9 -3.0920417
        vertex 25 -9 -10
    endloop
endfacet
facet normal -0 1 0
    outer loop
        vertex 2.537573 -9 -3.0920417
        vertex 2.828427 -9 -2.828427
        vertex 25 -9 -10
    endloop
endfacet
facet normal -0 1 0
    outer loop
        vertex 2.828427 -9 -2.828427
        vertex 3.0920417 -9 -2.537573
        vertex 25 -9 -10
    endloop
endfacet
facet normal -0 1 0
    outer loop
        vertex 3.0920417 -9 -2.537573
        vertex 3.3258784 -9 -2.222281
        vertex 25 -9 -10
    endloop
endfacet
facet normal -0 1 0
    outer loop
        vertex 3.3258784 -9 -2.222281
        vertex 3.5276852 -9 -1.885587
        vertex 25 -9 -10
    endloop
endfacet
facet normal -0 1 0
    outer loop
        vertex 3.5276852 -9 -1.885587
        vertex 3.695518 -9 -1.5307337
        vertex 25 -9 -10
    endloop
endfacet
facet normal -0 1 0
    outer loop
        vertex 3.695518 -9 -1.5307337
        vertex 3.8277614 -9 -1.1611387
        vertex 25 -9 -10
    endloop
endfacet
facet normal -0 1 0
    outer loop
        vertex 3.8277614 -9 -1.1611387
        vertex 3.923141 -9 -0.7803613
        vertex 25 -9 -10
    endloop
endfacet
facet normal -0 1 0
    outer loop
        vertex 3.923141 -9 -0.7803613
        vertex 3.980739 -9 -0.39206856
        vertex 25 -9 -10
    endloop
endfacet
facet normal 0 1 0
    outer loop
        vertex -25 -9 -10
        vertex -2.537573 -9 -3.0920417
        vertex -2.222281 -9 -3.3258784
    endloop
endfacet
facet normal -0 1 0
    outer loop
        vertex 4 -9 0
        vertex 25 -9 10
        vertex 25 -9 -10
    endloop
endfacet
facet normal 0 1 0
    outer loop
        vertex 4 -9 0
        vertex 25 -9 -10
        vertex 3.980739 -9 -0.39206856
    endloop
endfacet
facet normal 0 0.99999994 0
    outer loop
        vertex 25 -9 -10
        vertex 0.00000000000000024492937 -9 -4
        vertex 0.39206856 -9 -3.980739
    endloop
endfacet
facet normal -1 0 0
    outer loop
        vertex -25 -11 10
        vertex -25 -9 10
        vertex -25 -11 -10
    endloop
endfacet
facet normal -1 0 -0
    outer loop
        vertex -25 -9 10
        vertex -25 -9 -10
        vertex -25 -11 -10
    endloop
endfacet
facet normal 0 -0 1
    outer loop
        vertex 25 -11 10
        vertex 25 -9 10
        vertex -25 -9 10
    endloop
endfacet
facet normal 0 0 1
    outer loop
        vertex -25 -11 10
        vertex 25 -11 10
        vertex -25 -9 10
    endloop
endfacet
facet normal 0 0 -1
    outer loop
        vertex 25 -11 -10
        vertex -25 -9 -10
        vertex 25 -9 -10
    endloop
endfacet
facet normal 0 0 -1
    outer loop
        vertex -25 -11 -10
        vertex -25 -9 -10
        vertex 25 -11 -10
    endloop
endfacet
facet normal 1 -0 0
    outer loop
        vertex 25 -11 10
        vertex 25 -11 -10
        vertex 25 -9 10
    endloop
endfacet
facet normal 1 0 0
    outer loop
        vertex 25 -9 10
        vertex 25 -11 -10
        vertex 25 -9 -10
    endloop
endfacet
facet normal 0 -1 0
    outer loop
        vertex 3.980739 -11 0.39206856
        vertex 25 -11 10
        vertex 3.923141 -11 0.7803613
    endloop
endfacet
facet normal 0 -1 0
    outer loop
        vertex 3.980739 -11 0.39206856
        vertex 4 -11 0
        vertex 25 -11 10
    endloop
endfacet
facet normal 0 -1 0
    outer loop
        vertex 3.923141 -11 0.7803613
        vertex 25 -11 10
        vertex 3.8277614 -11 1.1611387
    endloop
endfacet
facet normal 0 -1 0
    outer loop
        vertex 3.8277614 -11 1.1611387
        vertex 25 -11 10
        vertex 3.695518 -11 1.5307337
    endloop
endfacet
facet normal 0 -1 0
    outer loop
        vertex 3.695518 -11 1.5307337
        vertex 25 -11 10
        vertex 3.5276852 -11 1.885587
    endloop
endfacet
facet normal 0 -1 0
    outer loop
        vertex 3.5276852 -11 1.885587
        vertex 25 -11 10
        vertex 3.3258784 -11 2.222281
    endloop
endfacet
facet normal 0 -1 0
    outer loop
        vertex 3.3258784 -11 2.222281
        vertex 25 -11 10
        vertex 3.0920417 -11 2.537573
    endloop
endfacet
facet normal 0 -1 0
    outer loop
        vertex 3.0920417 -11 2.537573
        vertex 25 -11 10
        vertex 2.828427 -11 2.828427
    endloop
endfacet
facet normal 0 -1 0
    outer loop
        vertex 2.828427 -11 2.828427
        vertex 25 -11 10
        vertex 2.537573 -11 3.0920417
    endloop
endfacet
facet normal 0 -1 0
    outer loop
        vertex 2.537573 -11 3.0920417
        vertex 25 -11 10
        vertex 2.222281 -11 3.3258784
    endloop
endfacet
facet normal 0 -1 0
    outer loop
        vertex 2.222281 -11 3.3258784
        vertex 25 -11 10
        vertex 1.885587 -11 3.5276852
    endloop
endfacet
facet normal 0 -1 0
    outer loop
        vertex 1.885587 -11 3.5276852
        vertex 25 -11 10
        vertex 1.5307337 -11 3.695518
    endloop
endfacet
facet normal 0 -1 0
    outer loop
        vertex 1.5307337 -11 3.695518
        vertex 25 -11 10
        vertex 1.1611387 -11 3.8277614
    endloop
endfacet
facet normal 0 -1 0
    outer loop
        vertex 0.7803613 -11 3.923141
        vertex 1.1611387 -11 3.8277614
        vertex 25 -11 10
    endloop
endfacet
facet normal 0 -1 0
    outer loop
        vertex 0.39206856 -11 3.980739
        vertex 0.7803613 -11 3.923141
        vertex 25 -11 10
    endloop
endfacet
facet normal 0 -1 0
    outer loop
        vertex 0.00000000000000024492937 -11 4
        vertex 0.39206856 -11 3.980739
        vertex 25 -11 10
    endloop
endfacet
facet normal 0 -1 0
    outer loop
        vertex -25 -11 10
        vertex 0.00000000000000024492937 -11 4
        vertex 25 -11 10
    endloop
endfacet
facet normal -0 -1 0
    outer loop
        vertex -0.7803613 -11 3.923141
        vertex -25 -11 10
        vertex -1.1611387 -11 3.8277614
    endloop
endfacet
facet normal 0 -1 0
    outer loop
        vertex -0.7803613 -11 3.923141
        vertex -0.39206856 -11 3.980739
        vertex -25 -11 10
    endloop
endfacet
facet normal -0 -1 0
    outer loop
        vertex -1.1611387 -11 3.8277614
        vertex -25 -11 10
        vertex -1.5307337 -11 3.695518
    endloop
endfacet
facet normal -0 -0.99999994 0
    outer loop
        vertex -1.5307337 -11 3.695518
        vertex -25 -11 10
        vertex -1.885587 -11 3.5276852
    endloop
endfacet
facet normal -0 -1 0
    outer loop
        vertex -1.885587 -11 3.5276852
        vertex -25 -11 10
        vertex -2.222281 -11 3.3258784
    endloop
endfacet
facet normal -0 -1 0
    outer loop
        vertex -2.222281 -11 3.3258784
        vertex -25 -11 10
        vertex -2.537573 -11 3.0920417
    endloop
endfacet
facet normal -0 -1 0
    outer loop
        vertex -2.537573 -11 3.0920417
        vertex -25 -11 10
        vertex -2.828427 -11 2.828427
    endloop
endfacet
facet normal -0 -1 0
    outer loop
        vertex -2.828427 -11 2.828427
        vertex -25 -11 10
        vertex -3.0920417 -11 2.537573
    endloop
endfacet
facet normal -0 -1 0
    outer loop
        vertex -3.0920417 -11 2.537573
        vertex -25 -11 10
        vertex -3.3258784 -11 2.222281
    endloop
endfacet
facet normal -0 -1 0
    outer loop
        vertex -3.3258784 -11 2.222281
        vertex -25 -11 10
        vertex -3.5276852 -11 1.885587
    endloop
endfacet
facet normal -0 -1 0
    outer loop
        vertex -3.5276852 -11 1.885587
        vertex -25 -11 10
        vertex -3.695518 -11 1.5307337
    endloop
endfacet
facet normal -0 -1 0
    outer loop
        vertex -3.695518 -11 1.5307337
        vertex -25 -11 10
        vertex -3.8277614 -11 1.1611387
    endloop
endfacet
facet normal -0 -1 0
    outer loop
        vertex -3.8277614 -11 1.1611387
        vertex -25 -11 10
        vertex -3.923141 -11 0.7803613
    endloop
endfacet
facet normal -0 -1 0
    outer loop
        vertex -3.923141 -11 0.7803613
        vertex -25 -11 10
        vertex -3.980739 -11 0.39206856
    endloop
endfacet
facet normal 0 -0.99999994 0
    outer loop
        vertex -25 -11 10
        vertex -0.39206856 -11 3.980739
        vertex 0.00000000000000024492937 -11 4
    endloop
endfacet
facet normal 0 -1 0
    outer loop
        vertex -4 -11 0.00000000000000048985874
        vertex -3.980739 -11 0.39206856
        vertex -25 -11 10
    endloop
endfacet
facet normal 0 -1 0
    outer loop
        vertex -25 -11 -10
        vertex -4 -11 0.00000000000000048985874
        vertex -25 -11 10
    endloop
endfacet
facet normal 0 -1 0
    outer loop
        vertex -25 -11 -10
        vertex -3.980739 -11 -0.39206856
        vertex -4 -11 0.00000000000000048985874
    endloop
endfacet
facet normal 0 -1 0
    outer loop
        vertex -25 -11 -10
        vertex -3.923141 -11 -0.7803613
        vertex -3.980739 -11 -0.39206856
    endloop
endfacet
facet normal 0 -1 0
    outer loop
        vertex -25 -11 -10
        vertex -3.8277614 -11 -1.1611387
        vertex -3.923141 -11 -0.7803613
    endloop
endfacet
facet normal 0 -0.99999994 0
    outer loop
        vertex -25 -11 -10
        vertex -3.695518 -11 -1.5307337
        vertex -3.8277614 -11 -1.1611387
    endloop
endfacet
facet normal 0 -1 0
    outer loop
        vertex -25 -11 -10
        vertex -3.5276852 -11 -1.885587
        vertex -3.695518 -11 -1.5307337
    endloop
endfacet
facet normal 0 -1 0
    outer loop
        vertex -25 -11 -10
        vertex -3.3258784 -11 -2.222281
        vertex -3.5276852 -11 -1.885587
    endloop
endfacet
facet normal 0 -1 0
    outer loop
        vertex -25 -11 -10
        vertex -3.0920417 -11 -2.537573
        vertex -3.3258784 -11 -2.222281
    endloop
endfacet
facet normal 0 -1 0
    outer loop
        vertex -25 -11 -10
        vertex -2.828427 -11 -2.828427
        vertex -3.0920417 -11 -2.537573
    endloop
endfacet
facet normal 0 -1 0
    outer loop
        vertex -25 -11 -10
        vertex -2.537573 -11 -3.0920417
        vertex -2.828427 -11 -2.828427
    endloop
endfacet
facet normal 0 -1 -0
    outer loop
        vertex -1.885587 -11 -3.5276852
        vertex -25 -11 -10
        vertex -1.5307337 -11 -3.695518
    endloop
endfacet
facet normal -0 -1 0
    outer loop
        vertex -1.885587 -11 -3.5276852
        vertex -2.222281 -11 -3.3258784
        vertex -25 -11 -10
    endloop
endfacet
facet normal 0 -1 -0
    outer loop
        vertex -1.5307337 -11 -3.695518
        vertex -25 -11 -10
        vertex -1.1611387 -11 -3.8277614
    endloop
endfacet
facet normal 0 -1 -0
    outer loop
        vertex -1.1611387 -11 -3.8277614
        vertex -25 -11 -10
        vertex -0.7803613 -11 -3.923141
    endloop
endfacet
facet normal 0 -1 -0
    outer loop
        vertex -0.7803613 -11 -3.923141
        vertex -25 -11 -10
        vertex -0.39206856 -11 -3.980739
    endloop
endfacet
facet normal -0 -1 0
    outer loop
        vertex -0.00000000000000073478806 -11 -4
        vertex -0.39206856 -11 -3.980739
        vertex -25 -11 -10
    endloop
endfacet
facet normal 0 -1 0
    outer loop
        vertex 25 -11 -10
        vertex -0.00000000000000073478806 -11 -4
        vertex -25 -11 -10
    endloop
endfacet
facet normal 0 -1 0
    outer loop
        vertex 0.7803613 -11 -3.923141
        vertex 25 -11 -10
        vertex 1.1611387 -11 -3.8277614
    endloop
endfacet
facet normal 0 -1 -0
    outer loop
        vertex 0.7803613 -11 -3.923141
        vertex 0.39206856 -11 -3.980739
        vertex 25 -11 -10
    endloop
endfacet
facet normal 0 -1 0
    outer loop
        vertex 1.1611387 -11 -3.8277614
        vertex 25 -11 -10
        vertex 1.5307337 -11 -3.695518
    endloop
endfacet
facet normal 0 -0.99999994 0
    outer loop
        vertex 1.5307337 -11 -3.695518
        vertex 25 -11 -10
        vertex 1.885587 -11 -3.5276852
    endloop
endfacet
facet normal 0 -1 0
    outer loop
        vertex 1.885587 -11 -3.5276852
        vertex 25 -11 -10
        vertex 2.222281 -11 -3.3258784
    endloop
endfacet
facet normal 0 -1 0
    outer loop
        vertex 2.222281 -11 -3.3258784
        vertex 25 -11 -10
        vertex 2.537573 -11 -3.0920417
    endloop
endfacet
facet normal 0 -1 0
    outer loop
        vertex 2.537573 -11 -3.0920417
        vertex 25 -11 -10
        vertex 2.828427 -11 -2.828427
    endloop
endfacet
facet normal 0 -1 0
    outer loop
        vertex 2.828427 -11 -2.828427
        vertex 25 -11 -10
        vertex 3.0920417 -11 -2.537573
    endloop
endfacet
facet normal 0 -1 0
    outer loop
        vertex 3.0920417 -11 -2.537573
        vertex 25 -11 -10
        vertex 3.3258784 -11 -2.222281
    endloop
endfacet
facet normal 0 -1 0
    outer loop
        vertex 3.3258784 -11 -2.222281
        vertex 25 -11 -10
        vertex 3.5276852 -11 -1.885587
    endloop
endfacet
facet normal 0 -1 0
    outer loop
        vertex 3.5276852 -11 -1.885587
        vertex 25 -11 -10
        vertex 3.695518 -11 -1.5307337
    endloop
endfacet
facet normal 0 -1 0
    outer loop
        vertex 3.695518 -11 -1.5307337
        vertex 25 -11 -10
        vertex 3.8277614 -11 -1.1611387
    endloop
endfacet
facet normal 0 -1 0
    outer loop
        vertex 3.8277614 -11 -1.1611387
        vertex 25 -11 -10
        vertex 3.923141 -11 -0.7803613
    endloop
endfacet
facet normal 0 -1 0
    outer loop
        vertex 3.923141 -11 -0.7803613
        vertex 25 -11 -10
        vertex 3.980739 -11 -0.39206856
    endloop
endfacet
facet normal 0 -1 0
    outer loop
        vertex -25 -11 -10
        vertex -2.222281 -11 -3.3258784
        vertex -2.537573 -11 -3.0920417
    endloop
endfacet
facet normal 0 -1 0
    outer loop
        vertex 4 -11 0
        vertex 25 -11 -10
        vertex 25 -11 10
    endloop
endfacet
facet normal 0 -1 -0
    outer loop
        vertex 4 -11 0
        vertex 3.980739 -11 -0.39206856
        vertex 25 -11 -10
    endloop
endfacet
facet normal 0 -0.99999994 0
    outer loop
        vertex 25 -11 -10
        vertex 0.39206856 -11 -3.980739
        vertex -0.00000000000000073478806 -11 -4
    endloop
endfacet
facet normal 0.98917639 -0 0.14673129
    outer loop
        vertex 3.980739 -21 0.39206856
        vertex 3.980739 -11 0.39206856
        vertex 3.923141 -21 0.7803613
    endloop
endfacet
facet normal 0.97003138 -0 0.24297978
    outer loop
        vertex 3.923141 -21 0.7803613
        vertex 3.923141 -11 0.7803613
        vertex 3.8277614 -21 1.1611387
    endloop
endfacet
facet normal 0.97003138 -0 0.24297978
    outer loop
        vertex 3.8277614 -21 1.1611387
        vertex 3.923141 -11 0.7803613
        vertex 3.8277614 -11 1.1611387
    endloop
endfacet
facet normal 0.941544 -0 0.33689025
    outer loop
        vertex 3.695518 -21 1.5307337
        vertex 3.8277614 -11 1.1611387
        vertex 3.695518 -11 1.5307337
    endloop
endfacet
facet normal 0.90398949 0 0.42755455
    outer loop
        vertex 3.5276852 -21 1.885587
        vertex 3.695518 -21 1.5307337
        vertex 3.695518 -11 1.5307337
    endloop
endfacet
facet normal 0.85772854 0 0.51410311
    outer loop
        vertex 3.3258784 -21 2.222281
        vertex 3.5276852 -21 1.885587
        vertex 3.5276852 -11 1.885587
    endloop
endfacet
facet normal 0.85772854 0 0.51410311
    outer loop
        vertex 3.3258784 -11 2.222281
        vertex 3.3258784 -21 2.222281
        vertex 3.5276852 -11 1.885587
    endloop
endfacet
facet normal 0.80320746 0 0.59569943
    outer loop
        vertex 3.0920417 -11 2.537573
        vertex 3.0920417 -21 2.537573
        vertex 3.3258784 -11 2.222281
    endloop
endfacet
facet normal 0.74095118 0 0.67155892
    outer loop
        vertex 3.0920417 -11 2.537573
        vertex 2.828427 -21 2.828427
        vertex 3.0920417 -21 2.537573
    endloop
endfacet
facet normal 0.67155892 0 0.74095118
    outer loop
        vertex 2.828427 -11 2.828427
        vertex 2.537573 -21 3.0920417
        vertex 2.828427 -21 2.828427
    endloop
endfacet
facet normal 0.67155892 0 0.74095118
    outer loop
        vertex 2.828427 -11 2.828427
        vertex 2.537573 -11 3.0920417
        vertex 2.537573 -21 3.0920417
    endloop
endfacet
facet normal 0.59569943 0 0.80320746
    outer loop
        vertex 2.537573 -11 3.0920417
        vertex 2.222281 -11 3.3258784
        vertex 2.222281 -21 3.3258784
    endloop
endfacet
facet normal 0.51410311 -0 0.85772854
    outer loop
        vertex 2.222281 -21 3.3258784
        vertex 2.222281 -11 3.3258784
        vertex 1.885587 -21 3.5276852
    endloop
endfacet
facet normal 0.42755455 -0 0.90398949
    outer loop
        vertex 1.885587 -21 3.5276852
        vertex 1.885587 -11 3.5276852
        vertex 1.5307337 -21 3.695518
    endloop
endfacet
facet normal 0.42755455 -0 0.90398949
    outer loop
        vertex 1.5307337 -21 3.695518
        vertex 1.885587 -11 3.5276852
        vertex 1.5307337 -11 3.695518
    endloop
endfacet
facet normal 0.33689025 -0 0.941544
    outer loop
        vertex 1.1611387 -21 3.8277614
        vertex 1.5307337 -11 3.695518
        vertex 1.1611387 -11 3.8277614
    endloop
endfacet
facet normal 0.24297978 0 0.97003138
    outer loop
        vertex 0.7803613 -21 3.923141
        vertex 1.1611387 -21 3.8277614
        vertex 1.1611387 -11 3.8277614
    endloop
endfacet
facet normal 0.14673129 0 0.98917639
    outer loop
        vertex 0.39206856 -21 3.980739
        vertex 0.7803613 -21 3.923141
        vertex 0.7803613 -11 3.923141
    endloop
endfacet
facet normal 0.14673129 0 0.98917639
    outer loop
        vertex 0.39206856 -11 3.980739
        vertex 0.39206856 -21 3.980739
        vertex 0.7803613 -11 3.923141
    endloop
endfacet
facet normal 0.04906714 0 0.99879557
    outer loop
        vertex 0.00000000000000024492937 -11 4
        vertex 0.00000000000000024492937 -21 4
        vertex 0.39206856 -11 3.980739
    endloop
endfacet
facet normal -0.04906714 0 0.99879557
    outer loop
        vertex 0.00000000000000024492937 -11 4
        vertex -0.39206856 -21 3.980739
        vertex 0.00000000000000024492937 -21 4
    endloop
endfacet
facet normal -0.14673129 0 0.98917639
    outer loop
        vertex -0.39206856 -11 3.980739
        vertex -0.7803613 -21 3.923141
        vertex -0.39206856 -21 3.980739
    endloop
endfacet
facet normal -0.14673129 0 0.98917639
    outer loop
        vertex -0.39206856 -11 3.980739
        vertex -0.7803613 -11 3.923141
        vertex -0.7803613 -21 3.923141
    endloop
endfacet
facet normal -0.24297978 0 0.97003138
    outer loop
        vertex -0.7803613 -11 3.923141
        vertex -1.1611387 -11 3.8277614
        vertex -1.1611387 -21 3.8277614
    endloop
endfacet
facet normal -0.33689025 0 0.941544
    outer loop
        vertex -1.1611387 -21 3.8277614
        vertex -1.1611387 -11 3.8277614
        vertex -1.5307337 -21 3.695518
    endloop
endfacet
facet normal -0.42755455 0 0.90398949
    outer loop
        vertex -1.5307337 -21 3.695518
        vertex -1.5307337 -11 3.695518
        vertex -1.885587 -21 3.5276852
    endloop
endfacet
facet normal -0.42755455 0 0.90398949
    outer loop
        vertex -1.885587 -21 3.5276852
        vertex -1.5307337 -11 3.695518
        vertex -1.885587 -11 3.5276852
    endloop
endfacet
facet normal -0.51410311 0 0.85772854
    outer loop
        vertex -2.222281 -21 3.3258784
        vertex -1.885587 -11 3.5276852
        vertex -2.222281 -11 3.3258784
    endloop
endfacet
facet normal -0.59569943 0 0.80320746
    outer loop
        vertex -2.537573 -21 3.0920417
        vertex -2.222281 -21 3.3258784
        vertex -2.222281 -11 3.3258784
    endloop
endfacet
facet normal -0.67155892 0 0.74095118
    outer loop
        vertex -2.828427 -21 2.828427
        vertex -2.537573 -21 3.0920417
        vertex -2.537573 -11 3.0920417
    endloop
endfacet
facet normal -0.67155892 0 0.74095118
    outer loop
        vertex -2.828427 -11 2.828427
        vertex -2.828427 -21 2.828427
        vertex -2.537573 -11 3.0920417
    endloop
endfacet
facet normal -0.74095118 0 0.67155892
    outer loop
        vertex -3.0920417 -11 2.537573
        vertex -3.0920417 -21 2.537573
        vertex -2.828427 -11 2.828427
    endloop
endfacet
facet normal -0.80320746 0 0.59569943
    outer loop
        vertex -3.0920417 -11 2.537573
        vertex -3.3258784 -21 2.222281
        vertex -3.0920417 -21 2.537573
    endloop
endfacet
facet normal -0.85772854 0 0.51410311
    outer loop
        vertex -3.3258784 -11 2.222281
        vertex -3.5276852 -21 1.885587
        vertex -3.3258784 -21 2.222281
    endloop
endfacet
facet normal -0.85772854 0 0.51410311
    outer loop
        vertex -3.3258784 -11 2.222281
        vertex -3.5276852 -11 1.885587
        vertex -3.5276852 -21 1.885587
    endloop
endfacet
facet normal -0.90398949 0 0.42755455
    outer loop
        vertex -3.5276852 -11 1.885587
        vertex -3.695518 -11 1.5307337
        vertex -3.695518 -21 1.5307337
    endloop
endfacet
facet normal -0.941544 0 0.33689025
    outer loop
        vertex -3.695518 -21 1.5307337
        vertex -3.695518 -11 1.5307337
        vertex -3.8277614 -21 1.1611387
    endloop
endfacet
facet normal -0.97003138 0 0.24297978
    outer loop
        vertex -3.8277614 -21 1.1611387
        vertex -3.8277614 -11 1.1611387
        vertex -3.923141 -21 0.7803613
    endloop
endfacet
facet normal -0.97003138 0 0.24297978
    outer loop
        vertex -3.923141 -21 0.7803613
        vertex -3.8277614 -11 1.1611387
        vertex -3.923141 -11 0.7803613
    endloop
endfacet
facet normal -0.98917639 0 0.14673129
    outer loop
        vertex -3.980739 -21 0.39206856
        vertex -3.923141 -11 0.7803613
        vertex -3.980739 -11 0.39206856
    endloop
endfacet
facet normal -0.99879557 0 0.04906714
    outer loop
        vertex -4 -21 0.00000000000000048985874
        vertex -3.980739 -21 0.39206856
        vertex -3.980739 -11 0.39206856
    endloop
endfacet
facet normal -0.99879557 0 -0.04906714
    outer loop
        vertex -3.980739 -21 -0.39206856
        vertex -4 -21 0.00000000000000048985874
        vertex -4 -11 0.00000000000000048985874
    endloop
endfacet
facet normal -0.99879557 -0 -0.04906714
    outer loop
        vertex -3.980739 -11 -0.39206856
        vertex -3.980739 -21 -0.39206856
        vertex -4 -11 0.00000000000000048985874
    endloop
endfacet
facet normal -0.98917639 -0 -0.14673129
    outer loop
        vertex -3.923141 -11 -0.7803613
        vertex -3.923141 -21 -0.7803613
        vertex -3.980739 -11 -0.39206856
    endloop
endfacet
facet normal -0.97003138 -0 -0.24297978
    outer loop
        vertex -3.8277614 -11 -1.1611387
        vertex -3.8277614 -21 -1.1611387
        vertex -3.923141 -11 -0.7803613
    endloop
endfacet
facet normal -0.941544 -0 -0.33689025
    outer loop
        vertex -3.8277614 -11 -1.1611387
        vertex -3.695518 -21 -1.5307337
        vertex -3.8277614 -21 -1.1611387
    endloop
endfacet
facet normal -0.90398949 -0 -0.42755455
    outer loop
        vertex -3.695518 -11 -1.5307337
        vertex -3.5276852 -21 -1.885587
        vertex -3.695518 -21 -1.5307337
    endloop
endfacet
facet normal -0.90398949 0 -0.42755455
    outer loop
        vertex -3.695518 -11 -1.5307337
        vertex -3.5276852 -11 -1.885587
        vertex -3.5276852 -21 -1.885587
    endloop
endfacet
facet normal -0.85772854 0 -0.51410311
    outer loop
        vertex -3.5276852 -11 -1.885587
        vertex -3.3258784 -11 -2.222281
        vertex -3.3258784 -21 -2.222281
    endloop
endfacet
facet normal -0.80320746 0 -0.59569943
    outer loop
        vertex -3.3258784 -21 -2.222281
        vertex -3.3258784 -11 -2.222281
        vertex -3.0920417 -21 -2.537573
    endloop
endfacet
facet normal -0.74095118 0 -0.67155892
    outer loop
        vertex -3.0920417 -21 -2.537573
        vertex -3.0920417 -11 -2.537573
        vertex -2.828427 -21 -2.828427
    endloop
endfacet
facet normal -0.74095118 0 -0.67155892
    outer loop
        vertex -2.828427 -21 -2.828427
        vertex -3.0920417 -11 -2.537573
        vertex -2.828427 -11 -2.828427
    endloop
endfacet
facet normal -0.67155892 0 -0.74095118
    outer loop
        vertex -2.537573 -21 -3.0920417
        vertex -2.828427 -11 -2.828427
        vertex -2.537573 -11 -3.0920417
    endloop
endfacet
facet normal -0.59569943 0 -0.80320746
    outer loop
        vertex -2.222281 -21 -3.3258784
        vertex -2.537573 -21 -3.0920417
        vertex -2.537573 -11 -3.0920417
    endloop
endfacet
facet normal -0.51410311 0 -0.85772854
    outer loop
        vertex -1.885587 -21 -3.5276852
        vertex -2.222281 -21 -3.3258784
        vertex -2.222281 -11 -3.3258784
    endloop
endfacet
facet normal -0.51410311 -0 -0.85772854
    outer loop
        vertex -1.885587 -11 -3.5276852
        vertex -1.885587 -21 -3.5276852
        vertex -2.222281 -11 -3.3258784
    endloop
endfacet
facet normal -0.42755455 -0 -0.90398949
    outer loop
        vertex -1.5307337 -11 -3.695518
        vertex -1.5307337 -21 -3.695518
        vertex -1.885587 -11 -3.5276852
    endloop
endfacet
facet normal -0.33689025 -0 -0.941544
    outer loop
        vertex -1.5307337 -11 -3.695518
        vertex -1.1611387 -21 -3.8277614
        vertex -1.5307337 -21 -3.695518
    endloop
endfacet
facet normal -0.24297978 -0 -0.97003138
    outer loop
        vertex -1.1611387 -11 -3.8277614
        vertex -0.7803613 -21 -3.923141
        vertex -1.1611387 -21 -3.8277614
    endloop
endfacet
facet normal -0.24297978 0 -0.97003138
    outer loop
        vertex -1.1611387 -11 -3.8277614
        vertex -0.7803613 -11 -3.923141
        vertex -0.7803613 -21 -3.923141
    endloop
endfacet
facet normal -0.14673129 0 -0.98917639
    outer loop
        vertex -0.7803613 -11 -3.923141
        vertex -0.39206856 -11 -3.980739
        vertex -0.39206856 -21 -3.980739
    endloop
endfacet
facet normal 0.33689025 0 -0.941544
    outer loop
        vertex 1.5307337 -11 -3.695518
        vertex 1.5307337 -21 -3.695518
        vertex 1.1611387 -11 -3.8277614
    endloop
endfacet
facet normal 0.80320746 0 -0.59569943
    outer loop
        vertex 3.0920417 -11 -2.537573
        vertex 3.3258784 -11 -2.222281
        vertex 3.3258784 -21 -2.222281
    endloop
endfacet
facet normal 0.85772854 0 -0.51410311
    outer loop
        vertex 3.3258784 -11 -2.222281
        vertex 3.5276852 -21 -1.885587
        vertex 3.3258784 -21 -2.222281
    endloop
endfacet
facet normal 0.98917639 -0 0.14673129
    outer loop
        vertex 3.923141 -21 0.7803613
        vertex 3.980739 -11 0.39206856
        vertex 3.923141 -11 0.7803613
    endloop
endfacet
facet normal 0.99879557 0 -0.04906714
    outer loop
        vertex 3.980739 -11 -0.39206856
        vertex 4 -11 0
        vertex 4 -21 0
    endloop
endfacet
facet normal 0.99879557 0 -0.04906714
    outer loop
        vertex 3.980739 -21 -0.39206856
        vertex 3.980739 -11 -0.39206856
        vertex 4 -21 0
    endloop
endfacet
facet normal 0.98917639 0 -0.14673129
    outer loop
        vertex 3.980739 -21 -0.39206856
        vertex 3.923141 -11 -0.7803613
        vertex 3.980739 -11 -0.39206856
    endloop
endfacet
facet normal 0.98917639 0 -0.14673129
    outer loop
        vertex 3.980739 -21 -0.39206856
        vertex 3.923141 -21 -0.7803613
        vertex 3.923141 -11 -0.7803613
    endloop
endfacet
facet normal 0.97003138 0 -0.24297978
    outer loop
        vertex 3.923141 -11 -0.7803613
        vertex 3.923141 -21 -0.7803613
        vertex 3.8277614 -11 -1.1611387
    endloop
endfacet
facet normal 0.97003138 0 -0.24297978
    outer loop
        vertex 3.8277614 -11 -1.1611387
        vertex 3.923141 -21 -0.7803613
        vertex 3.8277614 -21 -1.1611387
    endloop
endfacet
facet normal 0.941544 0 -0.33689025
    outer loop
        vertex 3.695518 -11 -1.5307337
        vertex 3.8277614 -11 -1.1611387
        vertex 3.8277614 -21 -1.1611387
    endloop
endfacet
facet normal 0.941544 0 -0.33689025
    outer loop
        vertex 3.695518 -21 -1.5307337
        vertex 3.695518 -11 -1.5307337
        vertex 3.8277614 -21 -1.1611387
    endloop
endfacet
facet normal 0.90398949 0 -0.42755455
    outer loop
        vertex 3.695518 -21 -1.5307337
        vertex 3.5276852 -11 -1.885587
        vertex 3.695518 -11 -1.5307337
    endloop
endfacet
facet normal 0.90398949 0 -0.42755455
    outer loop
        vertex 3.695518 -21 -1.5307337
        vertex 3.5276852 -21 -1.885587
        vertex 3.5276852 -11 -1.885587
    endloop
endfacet
facet normal 0.85772854 0 -0.51410311
    outer loop
        vertex 3.5276852 -11 -1.885587
        vertex 3.5276852 -21 -1.885587
        vertex 3.3258784 -11 -2.222281
    endloop
endfacet
facet normal 0.80320746 0 -0.59569943
    outer loop
        vertex 3.0920417 -11 -2.537573
        vertex 3.3258784 -21 -2.222281
        vertex 3.0920417 -21 -2.537573
    endloop
endfacet
facet normal 0.74095118 0 -0.67155892
    outer loop
        vertex 2.828427 -11 -2.828427
        vertex 3.0920417 -11 -2.537573
        vertex 3.0920417 -21 -2.537573
    endloop
endfacet
facet normal 0.74095118 0 -0.67155892
    outer loop
        vertex 2.828427 -21 -2.828427
        vertex 2.828427 -11 -2.828427
        vertex 3.0920417 -21 -2.537573
    endloop
endfacet
facet normal 0.67155892 0 -0.74095118
    outer loop
        vertex 2.828427 -21 -2.828427
        vertex 2.537573 -11 -3.0920417
        vertex 2.828427 -11 -2.828427
    endloop
endfacet
facet normal 0.67155892 0 -0.74095118
    outer loop
        vertex 2.828427 -21 -2.828427
        vertex 2.537573 -21 -3.0920417
        vertex 2.537573 -11 -3.0920417
    endloop
endfacet
facet normal 0.59569943 0 -0.80320746
    outer loop
        vertex 2.537573 -11 -3.0920417
        vertex 2.537573 -21 -3.0920417
        vertex 2.222281 -11 -3.3258784
    endloop
endfacet
facet normal 0.59569943 0 -0.80320746
    outer loop
        vertex 2.222281 -11 -3.3258784
        vertex 2.537573 -21 -3.0920417
        vertex 2.222281 -21 -3.3258784
    endloop
endfacet
facet normal 0.51410311 0 -0.85772854
    outer loop
        vertex 1.885587 -11 -3.5276852
        vertex 2.222281 -11 -3.3258784
        vertex 2.222281 -21 -3.3258784
    endloop
endfacet
facet normal 0.51410311 0 -0.85772854
    outer loop
        vertex 1.885587 -21 -3.5276852
        vertex 1.885587 -11 -3.5276852
        vertex 2.222281 -21 -3.3258784
    endloop
endfacet
facet normal 0.42755455 0 -0.90398949
    outer loop
        vertex 1.885587 -21 -3.5276852
        vertex 1.5307337 -11 -3.695518
        vertex 1.885587 -11 -3.5276852
    endloop
endfacet
facet normal 0.42755455 0 -0.90398949
    outer loop
        vertex 1.885587 -21 -3.5276852
        vertex 1.5307337 -21 -3.695518
        vertex 1.5307337 -11 -3.695518
    endloop
endfacet
facet normal 0.33689025 0 -0.941544
    outer loop
        vertex 1.5307337 -21 -3.695518
        vertex 1.1611387 -21 -3.8277614
        vertex 1.1611387 -11 -3.8277614
    endloop
endfacet
facet normal 0.24297978 0 -0.97003138
    outer loop
        vertex 1.1611387 -11 -3.8277614
        vertex 1.1611387 -21 -3.8277614
        vertex 0.7803613 -11 -3.923141
    endloop
endfacet
facet normal 0.24297978 0 -0.97003138
    outer loop
        vertex 0.7803613 -11 -3.923141
        vertex 1.1611387 -21 -3.8277614
        vertex 0.7803613 -21 -3.923141
    endloop
endfacet
facet normal 0.14673129 0 -0.98917639
    outer loop
        vertex 0.39206856 -11 -3.980739
        vertex 0.7803613 -11 -3.923141
        vertex 0.7803613 -21 -3.923141
    endloop
endfacet
facet normal 0.14673129 0 -0.98917639
    outer loop
        vertex 0.39206856 -21 -3.980739
        vertex 0.39206856 -11 -3.980739
        vertex 0.7803613 -21 -3.923141
    endloop
endfacet
facet normal 0.04906714 0 -0.99879557
    outer loop
        vertex 0.39206856 -21 -3.980739
        vertex -0.00000000000000073478806 -11 -4
        vertex 0.39206856 -11 -3.980739
    endloop
endfacet
facet normal 0.04906714 0 -0.99879557
    outer loop
        vertex 0.39206856 -21 -3.980739
        vertex -0.00000000000000073478806 -21 -4
        vertex -0.00000000000000073478806 -11 -4
    endloop
endfacet
facet normal -0.04906714 -0 -0.99879557
    outer loop
        vertex -0.00000000000000073478806 -11 -4
        vertex -0.00000000000000073478806 -21 -4
        vertex -0.39206856 -11 -3.980739
    endloop
endfacet
facet normal -0.04906714 -0 -0.99879557
    outer loop
        vertex -0.39206856 -11 -3.980739
        vertex -0.00000000000000073478806 -21 -4
        vertex -0.39206856 -21 -3.980739
    endloop
endfacet
facet normal -0.14673129 0 -0.98917639
    outer loop
        vertex -0.7803613 -21 -3.923141
        vertex -0.7803613 -11 -3.923141
        vertex -0.39206856 -21 -3.980739
    endloop
endfacet
facet normal -0.33689025 0 -0.941544
    outer loop
        vertex -1.5307337 -11 -3.695518
        vertex -1.1611387 -11 -3.8277614
        vertex -1.1611387 -21 -3.8277614
    endloop
endfacet
facet normal -0.42755455 -0 -0.90398949
    outer loop
        vertex -1.885587 -11 -3.5276852
        vertex -1.5307337 -21 -3.695518
        vertex -1.885587 -21 -3.5276852
    endloop
endfacet
facet normal -0.59569943 -0 -0.80320746
    outer loop
        vertex -2.222281 -11 -3.3258784
        vertex -2.222281 -21 -3.3258784
        vertex -2.537573 -11 -3.0920417
    endloop
endfacet
facet normal -0.67155892 0 -0.74095118
    outer loop
        vertex -2.537573 -21 -3.0920417
        vertex -2.828427 -21 -2.828427
        vertex -2.828427 -11 -2.828427
    endloop
endfacet
facet normal -0.80320746 0 -0.59569943
    outer loop
        vertex -3.0920417 -21 -2.537573
        vertex -3.3258784 -11 -2.222281
        vertex -3.0920417 -11 -2.537573
    endloop
endfacet
facet normal -0.85772854 0 -0.51410311
    outer loop
        vertex -3.5276852 -21 -1.885587
        vertex -3.5276852 -11 -1.885587
        vertex -3.3258784 -21 -2.222281
    endloop
endfacet
facet normal -0.941544 0 -0.33689025
    outer loop
        vertex -3.8277614 -11 -1.1611387
        vertex -3.695518 -11 -1.5307337
        vertex -3.695518 -21 -1.5307337
    endloop
endfacet
facet normal -0.97003138 -0 -0.24297978
    outer loop
        vertex -3.923141 -11 -0.7803613
        vertex -3.8277614 -21 -1.1611387
        vertex -3.923141 -21 -0.7803613
    endloop
endfacet
facet normal -0.98917639 -0 -0.14673129
    outer loop
        vertex -3.980739 -11 -0.39206856
        vertex -3.923141 -21 -0.7803613
        vertex -3.980739 -21 -0.39206856
    endloop
endfacet
facet normal -0.99879557 0 0.04906714
    outer loop
        vertex -4 -11 0.00000000000000048985874
        vertex -4 -21 0.00000000000000048985874
        vertex -3.980739 -11 0.39206856
    endloop
endfacet
facet normal -0.98917639 0 0.14673129
    outer loop
        vertex -3.980739 -21 0.39206856
        vertex -3.923141 -21 0.7803613
        vertex -3.923141 -11 0.7803613
    endloop
endfacet
facet normal -0.941544 0 0.33689025
    outer loop
        vertex -3.8277614 -21 1.1611387
        vertex -3.695518 -11 1.5307337
        vertex -3.8277614 -11 1.1611387
    endloop
endfacet
facet normal -0.90398949 0 0.42755455
    outer loop
        vertex -3.5276852 -21 1.885587
        vertex -3.5276852 -11 1.885587
        vertex -3.695518 -21 1.5307337
    endloop
endfacet
facet normal -0.80320746 0 0.59569943
    outer loop
        vertex -3.0920417 -11 2.537573
        vertex -3.3258784 -11 2.222281
        vertex -3.3258784 -21 2.222281
    endloop
endfacet
facet normal -0.74095118 0 0.67155892
    outer loop
        vertex -2.828427 -11 2.828427
        vertex -3.0920417 -21 2.537573
        vertex -2.828427 -21 2.828427
    endloop
endfacet
facet normal -0.59569943 0 0.80320746
    outer loop
        vertex -2.537573 -11 3.0920417
        vertex -2.537573 -21 3.0920417
        vertex -2.222281 -11 3.3258784
    endloop
endfacet
facet normal -0.51410311 0 0.85772854
    outer loop
        vertex -2.222281 -21 3.3258784
        vertex -1.885587 -21 3.5276852
        vertex -1.885587 -11 3.5276852
    endloop
endfacet
facet normal -0.33689025 0 0.941544
    outer loop
        vertex -1.5307337 -21 3.695518
        vertex -1.1611387 -11 3.8277614
        vertex -1.5307337 -11 3.695518
    endloop
endfacet
facet normal -0.24297978 0 0.97003138
    outer loop
        vertex -0.7803613 -21 3.923141
        vertex -0.7803613 -11 3.923141
        vertex -1.1611387 -21 3.8277614
    endloop
endfacet
facet normal -0.04906714 0 0.99879557
    outer loop
        vertex 0.00000000000000024492937 -11 4
        vertex -0.39206856 -11 3.980739
        vertex -0.39206856 -21 3.980739
    endloop
endfacet
facet normal 0.04906714 0 0.99879557
    outer loop
        vertex 0.39206856 -11 3.980739
        vertex 0.00000000000000024492937 -21 4
        vertex 0.39206856 -21 3.980739
    endloop
endfacet
facet normal 0.24297978 0 0.97003138
    outer loop
        vertex 0.7803613 -11 3.923141
        vertex 0.7803613 -21 3.923141
        vertex 1.1611387 -11 3.8277614
    endloop
endfacet
facet normal 0.33689025 0 0.941544
    outer loop
        vertex 1.1611387 -21 3.8277614
        vertex 1.5307337 -21 3.695518
        vertex 1.5307337 -11 3.695518
    endloop
endfacet
facet normal 0.51410311 -0 0.85772854
    outer loop
        vertex 1.885587 -21 3.5276852
        vertex 2.222281 -11 3.3258784
        vertex 1.885587 -11 3.5276852
    endloop
endfacet
facet normal 0.99879557 0 0.04906714
    outer loop
        vertex 3.980739 -21 0.39206856
        vertex 4 -21 0
        vertex 4 -11 0
    endloop
endfacet
facet normal 0.59569943 0 0.80320746
    outer loop
        vertex 2.222281 -21 3.3258784
        vertex 2.537573 -21 3.0920417
        vertex 2.537573 -11 3.0920417
    endloop
endfacet
facet normal 0.74095118 -0 0.67155892
    outer loop
        vertex 2.828427 -21 2.828427
        vertex 3.0920417 -11 2.537573
        vertex 2.828427 -11 2.828427
    endloop
endfacet
facet normal 0.80320746 -0 0.59569943
    outer loop
        vertex 3.3258784 -21 2.222281
        vertex 3.3258784 -11 2.222281
        vertex 3.0920417 -21 2.537573
    endloop
endfacet
facet normal 0.90398949 0 0.42755455
    outer loop
        vertex 3.695518 -11 1.5307337
        vertex 3.5276852 -11 1.885587
        vertex 3.5276852 -21 1.885587
    endloop
endfacet
facet normal 0.99879557 0 0.04906714
    outer loop
        vertex 4 -11 0
        vertex 3.980739 -11 0.39206856
        vertex 3.980739 -21 0.39206856
    endloop
endfacet
facet normal 0.941544 0 0.33689025
    outer loop
        vertex 3.695518 -21 1.5307337
        vertex 3.8277614 -21 1.1611387
        vertex 3.8277614 -11 1.1611387
    endloop
endfacet
facet normal 0 -0.99999994 0
    outer loop
        vertex 3.923141 -21 -0.7803613
        vertex 3.980739 -21 -0.39206856
        vertex 4 -21 0
    endloop
endfacet
facet normal 0 -1 0
    outer loop
        vertex 3.8277614 -21 -1.1611387
        vertex 3.923141 -21 -0.7803613
        vertex 4 -21 0
    endloop
endfacet
facet normal 0 -1 0
    outer loop
        vertex 3.695518 -21 -1.5307337
        vertex 3.8277614 -21 -1.1611387
        vertex 4 -21 0
    endloop
endfacet
facet normal 0 -1 0
    outer loop
        vertex 3.5276852 -21 -1.885587
        vertex 3.695518 -21 -1.5307337
        vertex 4 -21 0
    endloop
endfacet
facet normal 0 -1 0
    outer loop
        vertex 3.3258784 -21 -2.222281
        vertex 3.5276852 -21 -1.885587
        vertex 4 -21 0
    endloop
endfacet
facet normal 0 -1 0
    outer loop
        vertex 3.0920417 -21 -2.537573
        vertex 3.3258784 -21 -2.222281
        vertex 4 -21 0
    endloop
endfacet
facet normal 0 -1 0
    outer loop
        vertex 2.828427 -21 -2.828427
        vertex 3.0920417 -21 -2.537573
        vertex 4 -21 0
    endloop
endfacet
facet normal 0 -1 0
    outer loop
        vertex 2.537573 -21 -3.0920417
        vertex 2.828427 -21 -2.828427
        vertex 4 -21 0
    endloop
endfacet
facet normal 0 -1 0
    outer loop
        vertex 2.222281 -21 -3.3258784
        vertex 2.537573 -21 -3.0920417
        vertex 4 -21 0
    endloop
endfacet
facet normal 0 -1 0
    outer loop
        vertex 1.885587 -21 -3.5276852
        vertex 2.222281 -21 -3.3258784
        vertex 4 -21 0
    endloop
endfacet
facet normal 0 -1 0
    outer loop
        vertex 1.5307337 -21 -3.695518
        vertex 1.885587 -21 -3.5276852
        vertex 4 -21 0
    endloop
endfacet
facet normal -0 -1 0
    outer loop
        vertex 1.1611387 -21 -3.8277614
        vertex 4 -21 0
        vertex 0.7803613 -21 -3.923141
    endloop
endfacet
facet normal 0 -1 0
    outer loop
        vertex 1.1611387 -21 -3.8277614
        vertex 1.5307337 -21 -3.695518
        vertex 4 -21 0
    endloop
endfacet
facet normal -0 -1 0
    outer loop
        vertex 0.7803613 -21 -3.923141
        vertex 4 -21 0
        vertex 0.39206856 -21 -3.980739
    endloop
endfacet
facet normal -0 -1 0
    outer loop
        vertex 0.39206856 -21 -3.980739
        vertex 4 -21 0
        vertex -0.00000000000000073478806 -21 -4
    endloop
endfacet
facet normal 0 -1 0
    outer loop
        vertex -0.00000000000000073478806 -21 -4
        vertex 4 -21 0
        vertex -0.39206856 -21 -3.980739
    endloop
endfacet
facet normal 0 -0.99999994 0
    outer loop
        vertex -0.39206856 -21 -3.980739
        vertex 4 -21 0
        vertex -0.7803613 -21 -3.923141
    endloop
endfacet
facet normal 0 -1 0
    outer loop
        vertex 4 -21 0
        vertex -1.1611387 -21 -3.8277614
        vertex -0.7803613 -21 -3.923141
    endloop
endfacet
facet normal 0 -1 0
    outer loop
        vertex 4 -21 0
        vertex -1.5307337 -21 -3.695518
        vertex -1.1611387 -21 -3.8277614
    endloop
endfacet
facet normal 0 -1 0
    outer loop
        vertex 4 -21 0
        vertex -1.885587 -21 -3.5276852
        vertex -1.5307337 -21 -3.695518
    endloop
endfacet
facet normal 0 -1 0
    outer loop
        vertex 4 -21 0
        vertex -2.222281 -21 -3.3258784
        vertex -1.885587 -21 -3.5276852
    endloop
endfacet
facet normal 0 -1 0
    outer loop
        vertex 4 -21 0
        vertex -2.537573 -21 -3.0920417
        vertex -2.222281 -21 -3.3258784
    endloop
endfacet
facet normal 0 -0.99999994 0
    outer loop
        vertex 4 -21 0
        vertex -2.828427 -21 -2.828427
        vertex -2.537573 -21 -3.0920417
    endloop
endfacet
facet normal 0 -1 0
    outer loop
        vertex 4 -21 0
        vertex -3.0920417 -21 -2.537573
        vertex -2.828427 -21 -2.828427
    endloop
endfacet
facet normal 0 -1 0
    outer loop
        vertex 4 -21 0
        vertex -3.3258784 -21 -2.222281
        vertex -3.0920417 -21 -2.537573
    endloop
endfacet
facet normal 0 -1 0
    outer loop
        vertex -3.695518 -21 -1.5307337
        vertex -3.5276852 -21 -1.885587
        vertex 4 -21 0
    endloop
endfacet
facet normal 0 -1 0
    outer loop
        vertex 4 -21 0
        vertex -3.5276852 -21 -1.885587
        vertex -3.3258784 -21 -2.222281
    endloop
endfacet
facet normal 0 -1 0
    outer loop
        vertex -3.8277614 -21 -1.1611387
        vertex -3.695518 -21 -1.5307337
        vertex 4 -21 0
    endloop
endfacet
facet normal 0 -1 0
    outer loop
        vertex -3.923141 -21 -0.7803613
        vertex -3.8277614 -21 -1.1611387
        vertex 4 -21 0
    endloop
endfacet
facet normal 0 -1 0
    outer loop
        vertex -3.980739 -21 -0.39206856
        vertex 4 -21 0
        vertex -4 -21 0.00000000000000048985874
    endloop
endfacet
facet normal 0 -1 0
    outer loop
        vertex -4 -21 0.00000000000000048985874
        vertex 4 -21 0
        vertex -3.980739 -21 0.39206856
    endloop
endfacet
facet normal 0 -0.99999994 0
    outer loop
        vertex -3.980739 -21 0.39206856
        vertex 4 -21 0
        vertex -3.923141 -21 0.7803613
    endloop
endfacet
facet normal 0 -1 0
    outer loop
        vertex 4 -21 0
        vertex -3.8277614 -21 1.1611387
        vertex -3.923141 -21 0.7803613
    endloop
endfacet
facet normal 0 -1 0
    outer loop
        vertex 4 -21 0
        vertex -3.695518 -21 1.5307337
        vertex -3.8277614 -21 1.1611387
    endloop
endfacet
facet normal 0 -1 0
    outer loop
        vertex 4 -21 0
        vertex -3.5276852 -21 1.885587
        vertex -3.695518 -21 1.5307337
    endloop
endfacet
facet normal 0 -1 0
    outer loop
        vertex 4 -21 0
        vertex -3.3258784 -21 2.222281
        vertex -3.5276852 -21 1.885587
    endloop
endfacet
facet normal 0 -1 0
    outer loop
        vertex 4 -21 0
        vertex -3.0920417 -21 2.537573
        vertex -3.3258784 -21 2.222281
    endloop
endfacet
facet normal 0 -1 0
    outer loop
        vertex 4 -21 0
        vertex -2.828427 -21 2.828427
        vertex -3.0920417 -21 2.537573
    endloop
endfacet
facet normal 0 -0.99999994 0
    outer loop
        vertex 4 -21 0
        vertex -2.537573 -21 3.0920417
        vertex -2.828427 -21 2.828427
    endloop
endfacet
facet normal 0 -1 0
    outer loop
        vertex 4 -21 0
        vertex -2.222281 -21 3.3258784
        vertex -2.537573 -21 3.0920417
    endloop
endfacet
facet normal 0 -1 -0
    outer loop
        vertex -1.5307337 -21 3.695518
        vertex -1.885587 -21 3.5276852
        vertex 4 -21 0
    endloop
endfacet
facet normal 0 -1 0
    outer loop
        vertex 4 -21 0
        vertex -1.885587 -21 3.5276852
        vertex -2.222281 -21 3.3258784
    endloop
endfacet
facet normal 0 -1 -0
    outer loop
        vertex -1.1611387 -21 3.8277614
        vertex -1.5307337 -21 3.695518
        vertex 4 -21 0
    endloop
endfacet
facet normal 0 -1 -0
    outer loop
        vertex -0.7803613 -21 3.923141
        vertex -1.1611387 -21 3.8277614
        vertex 4 -21 0
    endloop
endfacet
facet normal 0 -0.99999994 -0
    outer loop
        vertex -0.39206856 -21 3.980739
        vertex -0.7803613 -21 3.923141
        vertex 4 -21 0
    endloop
endfacet
facet normal 0 -1 -0
    outer loop
        vertex 0.00000000000000024492937 -21 4
        vertex -0.39206856 -21 3.980739
        vertex 4 -21 0
    endloop
endfacet
facet normal -0 -1 -0
    outer loop
        vertex 0.39206856 -21 3.980739
        vertex 0.00000000000000024492937 -21 4
        vertex 4 -21 0
    endloop
endfacet
facet normal 0 -1 0
    outer loop
        vertex 0.39206856 -21 3.980739
        vertex 4 -21 0
        vertex 0.7803613 -21 3.923141
    endloop
endfacet
facet normal 0 -1 0
    outer loop
        vertex 0.7803613 -21 3.923141
        vertex 4 -21 0
        vertex 1.1611387 -21 3.8277614
    endloop
endfacet
facet normal 0 -1 0
    outer loop
        vertex 1.1611387 -21 3.8277614
        vertex 4 -21 0
        vertex 1.5307337 -21 3.695518
    endloop
endfacet
facet normal 0 -1 0
    outer loop
        vertex 1.5307337 -21 3.695518
        vertex 4 -21 0
        vertex 1.885587 -21 3.5276852
    endloop
endfacet
facet normal 0 -1 0
    outer loop
        vertex 1.885587 -21 3.5276852
        vertex 4 -21 0
        vertex 2.222281 -21 3.3258784
    endloop
endfacet
facet normal 0 -1 0
    outer loop
        vertex 2.222281 -21 3.3258784
        vertex 4 -21 0
        vertex 2.537573 -21 3.0920417
    endloop
endfacet
facet normal 0 -1 0
    outer loop
        vertex 2.537573 -21 3.0920417
        vertex 4 -21 0
        vertex 2.828427 -21 2.828427
    endloop
endfacet
facet normal 0 -1 0
    outer loop
        vertex 2.828427 -21 2.828427
        vertex 4 -21 0
        vertex 3.0920417 -21 2.537573
    endloop
endfacet
facet normal 0 -1 0
    outer loop
        vertex 4 -21 0
        vertex 3.5276852 -21 1.885587
        vertex 3.3258784 -21 2.222281
    endloop
endfacet
facet normal 0 -1 0
    outer loop
        vertex 3.0920417 -21 2.537573
        vertex 4 -21 0
        vertex 3.3258784 -21 2.222281
    endloop
endfacet
facet normal 0 -1 0
    outer loop
        vertex 4 -21 0
        vertex 3.695518 -21 1.5307337
        vertex 3.5276852 -21 1.885587
    endloop
endfacet
facet normal 0 -1 0
    outer loop
        vertex 4 -21 0
        vertex 3.8277614 -21 1.1611387
        vertex 3.695518 -21 1.5307337
    endloop
endfacet
facet normal 0 -1 0
    outer loop
        vertex 4 -21 0
        vertex 3.923141 -21 0.7803613
        vertex 3.8277614 -21 1.1611387
    endloop
endfacet
facet normal 0 -0.99999994 0
    outer loop
        vertex 4 -21 0
        vertex 3.980739 -21 0.39206856
        vertex 3.923141 -21 0.7803613
    endloop
endfacet
facet normal 0 -0.99999994 0
    outer loop
        vertex -3.980739 -21 -0.39206856
        vertex -3.923141 -21 -0.7803613
        vertex 4 -21 0
    endloop
endfacet
endsolid unnamed
