solid unnamed
facet normal 0 0 -1
    outer loop
        vertex 45 -10 -30
        vertex -45 -10 -30
        vertex 45 -0 -30
    endloop
endfacet
facet normal 0 0 -1
    outer loop
        vertex -45 -10 -30
        vertex -45 -0 -30
        vertex 45 -0 -30
    endloop
endfacet
facet normal 0 1 0
    outer loop
        vertex -4.9759235 -0 -0.4900857
        vertex -4.9039264 -0 -0.9754516
        vertex -50 -0 -25
    endloop
endfacet
facet normal 0 1 0
    outer loop
        vertex -4.9759235 -0 -0.4900857
        vertex -50 -0 -25
        vertex -5 -0 -0.0000000000000012246468
    endloop
endfacet
facet normal 0 1 0
    outer loop
        vertex -4.9039264 -0 -0.9754516
        vertex -4.784702 -0 -1.4514234
        vertex -50 -0 -25
    endloop
endfacet
facet normal 0 0.99999994 0
    outer loop
        vertex -4.784702 -0 -1.4514234
        vertex -45 -0 -30
        vertex -50 -0 -25
    endloop
endfacet
facet normal 0 1 0
    outer loop
        vertex -4.6193976 -0 -1.9134172
        vertex -45 -0 -30
        vertex -4.784702 -0 -1.4514234
    endloop
endfacet
facet normal 0 1 0
    outer loop
        vertex -4.4096065 -0 -2.3569837
        vertex -45 -0 -30
        vertex -4.6193976 -0 -1.9134172
    endloop
endfacet
facet normal 0 1 0
    outer loop
        vertex -4.157348 -0 -2.777851
        vertex -3.8650522 -0 -3.1719663
        vertex -45 -0 -30
    endloop
endfacet
facet normal 0 1 0
    outer loop
        vertex -3.8650522 -0 -3.1719663
        vertex -3.535534 -0 -3.535534
        vertex -45 -0 -30
    endloop
endfacet
facet normal 0 0.99999994 0
    outer loop
        vertex -3.535534 -0 -3.535534
        vertex -3.1719663 -0 -3.8650522
        vertex -45 -0 -30
    endloop
endfacet
facet normal 0 1 0
    outer loop
        vertex -3.1719663 -0 -3.8650522
        vertex -2.777851 -0 -4.157348
        vertex -45 -0 -30
    endloop
endfacet
facet normal 0 1 0
    outer loop
        vertex -2.777851 -0 -4.157348
        vertex -2.3569837 -0 -4.4096065
        vertex -45 -0 -30
    endloop
endfacet
facet normal 0 1 0
    outer loop
        vertex -2.3569837 -0 -4.4096065
        vertex -1.9134172 -0 -4.6193976
        vertex -45 -0 -30
    endloop
endfacet
facet normal 0 1 0
    outer loop
        vertex -1.9134172 -0 -4.6193976
        vertex -1.4514234 -0 -4.784702
        vertex -45 -0 -30
    endloop
endfacet
facet normal 0 1 0
    outer loop
        vertex -1.4514234 -0 -4.784702
        vertex -0.9754516 -0 -4.9039264
        vertex -45 -0 -30
    endloop
endfacet
facet normal 0 1 0
    outer loop
        vertex -0.4900857 -0 -4.9759235
        vertex -45 -0 -30
        vertex -0.9754516 -0 -4.9039264
    endloop
endfacet
facet normal 0 1 0
    outer loop
        vertex 0.000000000000000918485 -0 -5
        vertex -45 -0 -30
        vertex -0.4900857 -0 -4.9759235
    endloop
endfacet
facet normal 0 1 0
    outer loop
        vertex 45 -0 -30
        vertex -45 -0 -30
        vertex 0.000000000000000918485 -0 -5
    endloop
endfacet
facet normal 0 1 0
    outer loop
        vertex 45 -0 -30
        vertex 0.000000000000000918485 -0 -5
        vertex 0.4900857 -0 -4.9759235
    endloop
endfacet
facet normal 0 1 0
    outer loop
        vertex 45 -0 -30
        vertex 0.4900857 -0 -4.9759235
        vertex 0.9754516 -0 -4.9039264
    endloop
endfacet
facet normal 0 1 0
    outer loop
        vertex 45 -0 -30
        vertex 0.9754516 -0 -4.9039264
        vertex 1.4514234 -0 -4.784702
    endloop
endfacet
facet normal -0 1 0
    outer loop
        vertex 2.3569837 -0 -4.4096065
        vertex 2.777851 -0 -4.157348
        vertex 45 -0 -30
    endloop
endfacet
facet normal 0 1 0
    outer loop
        vertex 2.3569837 -0 -4.4096065
        vertex 45 -0 -30
        vertex 1.9134172 -0 -4.6193976
    endloop
endfacet
facet normal -0 1 0
    outer loop
        vertex 2.777851 -0 -4.157348
        vertex 3.1719663 -0 -3.8650522
        vertex 45 -0 -30
    endloop
endfacet
facet normal -0 0.99999994 0
    outer loop
        vertex 3.1719663 -0 -3.8650522
        vertex 3.535534 -0 -3.535534
        vertex 45 -0 -30
    endloop
endfacet
facet normal -0 1 0
    outer loop
        vertex 3.535534 -0 -3.535534
        vertex 3.8650522 -0 -3.1719663
        vertex 45 -0 -30
    endloop
endfacet
facet normal -0 1 0
    outer loop
        vertex 3.8650522 -0 -3.1719663
        vertex 4.157348 -0 -2.777851
        vertex 45 -0 -30
    endloop
endfacet
facet normal -0 1 0
    outer loop
        vertex 4.157348 -0 -2.777851
        vertex 4.4096065 -0 -2.3569837
        vertex 45 -0 -30
    endloop
endfacet
facet normal -0 1 0
    outer loop
        vertex 4.4096065 -0 -2.3569837
        vertex 4.6193976 -0 -1.9134172
        vertex 45 -0 -30
    endloop
endfacet
facet normal -0 1 0
    outer loop
        vertex 4.6193976 -0 -1.9134172
        vertex 4.784702 -0 -1.4514234
        vertex 45 -0 -30
    endloop
endfacet
facet normal 0 0.99999994 0
    outer loop
        vertex 4.784702 -0 -1.4514234
        vertex 50 -0 -25
        vertex 45 -0 -30
    endloop
endfacet
facet normal 0 1 0
    outer loop
        vertex 4.9039264 -0 -0.9754516
        vertex 50 -0 -25
        vertex 4.784702 -0 -1.4514234
    endloop
endfacet
facet normal 0 1 0
    outer loop
        vertex 45 -0 -30
        vertex 1.4514234 -0 -4.784702
        vertex 1.9134172 -0 -4.6193976
    endloop
endfacet
facet normal 0 1 0
    outer loop
        vertex 50 -0 -25
        vertex 4.9039264 -0 -0.9754516
        vertex 4.9759235 -0 -0.4900857
    endloop
endfacet
facet normal 0 1 0
    outer loop
        vertex 50 -0 -25
        vertex 4.9759235 -0 -0.4900857
        vertex 5 -0 0.0000000000000006123234
    endloop
endfacet
facet normal 0 1 -0
    outer loop
        vertex 50 -0 -25
        vertex 5 -0 0.0000000000000006123234
        vertex 50 -0 25
    endloop
endfacet
facet normal 0 1 -0
    outer loop
        vertex 5 -0 0.0000000000000006123234
        vertex 4.9759235 -0 0.4900857
        vertex 50 -0 25
    endloop
endfacet
facet normal 0 1 -0
    outer loop
        vertex 4.9759235 -0 0.4900857
        vertex 4.9039264 -0 0.9754516
        vertex 50 -0 25
    endloop
endfacet
facet normal 0 1 -0
    outer loop
        vertex 4.9039264 -0 0.9754516
        vertex 4.784702 -0 1.4514234
        vertex 50 -0 25
    endloop
endfacet
facet normal 0 0.99999994 0
    outer loop
        vertex 4.784702 -0 1.4514234
        vertex 45 -0 30
        vertex 50 -0 25
    endloop
endfacet
facet normal -0 1 0
    outer loop
        vertex 4.6193976 -0 1.9134172
        vertex 45 -0 30
        vertex 4.784702 -0 1.4514234
    endloop
endfacet
facet normal -0 1 0
    outer loop
        vertex 4.4096065 -0 2.3569837
        vertex 45 -0 30
        vertex 4.6193976 -0 1.9134172
    endloop
endfacet
facet normal 0 0.99999994 0
    outer loop
        vertex 45 -0 30
        vertex 3.8650522 -0 3.1719663
        vertex 3.535534 -0 3.535534
    endloop
endfacet
facet normal 0 1 -0
    outer loop
        vertex 4.157348 -0 2.777851
        vertex 3.8650522 -0 3.1719663
        vertex 45 -0 30
    endloop
endfacet
facet normal -0 1 0
    outer loop
        vertex 2.777851 -0 4.157348
        vertex 45 -0 30
        vertex 3.1719663 -0 3.8650522
    endloop
endfacet
facet normal 0 1 0
    outer loop
        vertex 45 -0 30
        vertex 3.535534 -0 3.535534
        vertex 3.1719663 -0 3.8650522
    endloop
endfacet
facet normal -0 1 0
    outer loop
        vertex 2.3569837 -0 4.4096065
        vertex 45 -0 30
        vertex 2.777851 -0 4.157348
    endloop
endfacet
facet normal -0 1 0
    outer loop
        vertex 1.9134172 -0 4.6193976
        vertex 45 -0 30
        vertex 2.3569837 -0 4.4096065
    endloop
endfacet
facet normal -0 1 0
    outer loop
        vertex 1.4514234 -0 4.784702
        vertex 45 -0 30
        vertex 1.9134172 -0 4.6193976
    endloop
endfacet
facet normal -0 1 0
    outer loop
        vertex 0.9754516 -0 4.9039264
        vertex 45 -0 30
        vertex 1.4514234 -0 4.784702
    endloop
endfacet
facet normal 0 1 0
    outer loop
        vertex 45 -0 30
        vertex 0.9754516 -0 4.9039264
        vertex 0.4900857 -0 4.9759235
    endloop
endfacet
facet normal 0 1 0
    outer loop
        vertex 45 -0 30
        vertex 0.4900857 -0 4.9759235
        vertex -0.0000000000000003061617 -0 5
    endloop
endfacet
facet normal 0 1 0
    outer loop
        vertex 45 -0 30
        vertex -0.0000000000000003061617 -0 5
        vertex -45 -0 30
    endloop
endfacet
facet normal 0 1 0
    outer loop
        vertex -0.0000000000000003061617 -0 5
        vertex -0.4900857 -0 4.9759235
        vertex -45 -0 30
    endloop
endfacet
facet normal 0 1 0
    outer loop
        vertex -45 -0 30
        vertex -0.9754516 -0 4.9039264
        vertex -1.4514234 -0 4.784702
    endloop
endfacet
facet normal 0 1 0
    outer loop
        vertex -2.3569837 -0 4.4096065
        vertex -2.777851 -0 4.157348
        vertex -45 -0 30
    endloop
endfacet
facet normal 0 1 -0
    outer loop
        vertex -2.3569837 -0 4.4096065
        vertex -45 -0 30
        vertex -1.9134172 -0 4.6193976
    endloop
endfacet
facet normal 0 1 0
    outer loop
        vertex -2.777851 -0 4.157348
        vertex -3.1719663 -0 3.8650522
        vertex -45 -0 30
    endloop
endfacet
facet normal 0 0.99999994 0
    outer loop
        vertex -3.1719663 -0 3.8650522
        vertex -3.535534 -0 3.535534
        vertex -45 -0 30
    endloop
endfacet
facet normal 0 1 0
    outer loop
        vertex -3.535534 -0 3.535534
        vertex -3.8650522 -0 3.1719663
        vertex -45 -0 30
    endloop
endfacet
facet normal 0 1 0
    outer loop
        vertex -3.8650522 -0 3.1719663
        vertex -4.157348 -0 2.777851
        vertex -45 -0 30
    endloop
endfacet
facet normal 0 1 0
    outer loop
        vertex -4.157348 -0 2.777851
        vertex -4.4096065 -0 2.3569837
        vertex -45 -0 30
    endloop
endfacet
facet normal 0 1 0
    outer loop
        vertex -4.4096065 -0 2.3569837
        vertex -4.6193976 -0 1.9134172
        vertex -45 -0 30
    endloop
endfacet
facet normal 0 1 0
    outer loop
        vertex -4.6193976 -0 1.9134172
        vertex -4.784702 -0 1.4514234
        vertex -45 -0 30
    endloop
endfacet
facet normal 0 0.99999994 0
    outer loop
        vertex -4.784702 -0 1.4514234
        vertex -50 -0 25
        vertex -45 -0 30
    endloop
endfacet
facet normal 0 1 -0
    outer loop
        vertex -4.9039264 -0 0.9754516
        vertex -50 -0 25
        vertex -4.784702 -0 1.4514234
    endloop
endfacet
facet normal -0 1 0
    outer loop
        vertex 4.157348 -0 2.777851
        vertex 45 -0 30
        vertex 4.4096065 -0 2.3569837
    endloop
endfacet
facet normal 0 1 -0
    outer loop
        vertex -5 -0 -0.0000000000000012246468
        vertex -50 -0 25
        vertex -4.9759235 -0 0.4900857
    endloop
endfacet
facet normal 0 1 0
    outer loop
        vertex -50 -0 25
        vertex -4.9039264 -0 0.9754516
        vertex -4.9759235 -0 0.4900857
    endloop
endfacet
facet normal 0 1 0
    outer loop
        vertex -45.975452 -0 -29.903927
        vertex -45 -0 -30
        vertex -45.490086 -0 -29.975924
    endloop
endfacet
facet normal 0 0.99999994 0
    outer loop
        vertex -46.451424 -0 -29.784702
        vertex -45 -0 -30
        vertex -45.975452 -0 -29.903927
    endloop
endfacet
facet normal 0 1 0
    outer loop
        vertex -46.913418 -0 -29.619398
        vertex -45 -0 -30
        vertex -46.451424 -0 -29.784702
    endloop
endfacet
facet normal 0 0.99999994 0
    outer loop
        vertex -47.356983 -0 -29.409607
        vertex -45 -0 -30
        vertex -46.913418 -0 -29.619398
    endloop
endfacet
facet normal 0 1 0
    outer loop
        vertex -47.77785 -0 -29.157349
        vertex -45 -0 -30
        vertex -47.356983 -0 -29.409607
    endloop
endfacet
facet normal 0 1 0
    outer loop
        vertex -48.171967 -0 -28.865053
        vertex -45 -0 -30
        vertex -47.77785 -0 -29.157349
    endloop
endfacet
facet normal 0 1 0
    outer loop
        vertex -48.535534 -0 -28.535534
        vertex -45 -0 -30
        vertex -48.171967 -0 -28.865053
    endloop
endfacet
facet normal 0 1 0
    outer loop
        vertex -48.86505 -0 -28.171967
        vertex -45 -0 -30
        vertex -48.535534 -0 -28.535534
    endloop
endfacet
facet normal 0 0.99999994 0
    outer loop
        vertex -49.15735 -0 -27.777851
        vertex -45 -0 -30
        vertex -48.86505 -0 -28.171967
    endloop
endfacet
facet normal 0 1 0
    outer loop
        vertex -49.409607 -0 -27.356983
        vertex -45 -0 -30
        vertex -49.15735 -0 -27.777851
    endloop
endfacet
facet normal 0 1 0
    outer loop
        vertex -49.619396 -0 -26.913418
        vertex -45 -0 -30
        vertex -49.409607 -0 -27.356983
    endloop
endfacet
facet normal 0 0.99999994 0
    outer loop
        vertex -49.784702 -0 -26.451424
        vertex -45 -0 -30
        vertex -49.619396 -0 -26.913418
    endloop
endfacet
facet normal 0 1 0
    outer loop
        vertex -49.903927 -0 -25.975452
        vertex -45 -0 -30
        vertex -49.784702 -0 -26.451424
    endloop
endfacet
facet normal 0 1 0
    outer loop
        vertex -49.975925 -0 -25.490086
        vertex -45 -0 -30
        vertex -49.903927 -0 -25.975452
    endloop
endfacet
facet normal 0 1 0
    outer loop
        vertex -50 -0 -25
        vertex -45 -0 -30
        vertex -49.975925 -0 -25.490086
    endloop
endfacet
facet normal 0 1 0
    outer loop
        vertex -50 -0 25
        vertex -5 -0 -0.0000000000000012246468
        vertex -50 -0 -25
    endloop
endfacet
facet normal 0 1 0
    outer loop
        vertex -4.157348 -0 -2.777851
        vertex -45 -0 -30
        vertex -4.4096065 -0 -2.3569837
    endloop
endfacet
facet normal -0 1 0
    outer loop
        vertex -49.975925 -0 25.490086
        vertex -45 -0 30
        vertex -50 -0 25
    endloop
endfacet
facet normal 0 1 0
    outer loop
        vertex -49.975925 -0 25.490086
        vertex -49.903927 -0 25.975452
        vertex -45 -0 30
    endloop
endfacet
facet normal 0 1 0
    outer loop
        vertex -49.903927 -0 25.975452
        vertex -49.784702 -0 26.451424
        vertex -45 -0 30
    endloop
endfacet
facet normal 0 0.99999994 0
    outer loop
        vertex -49.784702 -0 26.451424
        vertex -49.619396 -0 26.913418
        vertex -45 -0 30
    endloop
endfacet
facet normal 0 1 0
    outer loop
        vertex -49.619396 -0 26.913418
        vertex -49.409607 -0 27.356983
        vertex -45 -0 30
    endloop
endfacet
facet normal 0 1 0
    outer loop
        vertex -49.409607 -0 27.356983
        vertex -49.15735 -0 27.777851
        vertex -45 -0 30
    endloop
endfacet
facet normal 0 0.99999994 0
    outer loop
        vertex -49.15735 -0 27.777851
        vertex -48.86505 -0 28.171967
        vertex -45 -0 30
    endloop
endfacet
facet normal 0 1 0
    outer loop
        vertex -48.86505 -0 28.171967
        vertex -48.535534 -0 28.535534
        vertex -45 -0 30
    endloop
endfacet
facet normal 0 1 0
    outer loop
        vertex -45 -0 30
        vertex -48.171967 -0 28.865053
        vertex -47.77785 -0 29.157349
    endloop
endfacet
facet normal 0 1 0
    outer loop
        vertex -48.535534 -0 28.535534
        vertex -48.171967 -0 28.865053
        vertex -45 -0 30
    endloop
endfacet
facet normal 0 0.99999994 0
    outer loop
        vertex -45 -0 30
        vertex -47.77785 -0 29.157349
        vertex -47.356983 -0 29.409607
    endloop
endfacet
facet normal 0 1 0
    outer loop
        vertex -45 -0 30
        vertex -47.356983 -0 29.409607
        vertex -46.913418 -0 29.619398
    endloop
endfacet
facet normal 0 1 0
    outer loop
        vertex -45 -0 30
        vertex -46.913418 -0 29.619398
        vertex -46.451424 -0 29.784702
    endloop
endfacet
facet normal -0 1 0
    outer loop
        vertex -45.490086 -0 29.975924
        vertex -45 -0 30
        vertex -45.975452 -0 29.903927
    endloop
endfacet
facet normal 0 1 0
    outer loop
        vertex -1.4514234 -0 4.784702
        vertex -1.9134172 -0 4.6193976
        vertex -45 -0 30
    endloop
endfacet
facet normal 0 1 0
    outer loop
        vertex 45.490086 -0 29.975924
        vertex 50 -0 25
        vertex 45 -0 30
    endloop
endfacet
facet normal 0 1 0
    outer loop
        vertex 45.975452 -0 29.903927
        vertex 50 -0 25
        vertex 45.490086 -0 29.975924
    endloop
endfacet
facet normal 0 1 0
    outer loop
        vertex 46.451424 -0 29.784702
        vertex 50 -0 25
        vertex 45.975452 -0 29.903927
    endloop
endfacet
facet normal 0 1 0
    outer loop
        vertex 46.913418 -0 29.619398
        vertex 50 -0 25
        vertex 46.451424 -0 29.784702
    endloop
endfacet
facet normal 0 1 0
    outer loop
        vertex 47.356983 -0 29.409607
        vertex 50 -0 25
        vertex 46.913418 -0 29.619398
    endloop
endfacet
facet normal 0 1 0
    outer loop
        vertex 47.77785 -0 29.157349
        vertex 48.171967 -0 28.865053
        vertex 50 -0 25
    endloop
endfacet
facet normal 0 1 0
    outer loop
        vertex 48.171967 -0 28.865053
        vertex 48.535534 -0 28.535534
        vertex 50 -0 25
    endloop
endfacet
facet normal 0 1 0
    outer loop
        vertex 48.535534 -0 28.535534
        vertex 48.86505 -0 28.171967
        vertex 50 -0 25
    endloop
endfacet
facet normal 0 1 0
    outer loop
        vertex 48.86505 -0 28.171967
        vertex 49.15735 -0 27.777851
        vertex 50 -0 25
    endloop
endfacet
facet normal 0 1 0
    outer loop
        vertex 49.784702 -0 26.451424
        vertex 50 -0 25
        vertex 49.619396 -0 26.913418
    endloop
endfacet
facet normal 0 1 0
    outer loop
        vertex 50 -0 25
        vertex 49.409607 -0 27.356983
        vertex 49.619396 -0 26.913418
    endloop
endfacet
facet normal 0 0.99999994 0
    outer loop
        vertex 49.903927 -0 25.975452
        vertex 50 -0 25
        vertex 49.784702 -0 26.451424
    endloop
endfacet
facet normal 0 0.99999994 0
    outer loop
        vertex 49.975925 -0 25.490086
        vertex 50 -0 25
        vertex 49.903927 -0 25.975452
    endloop
endfacet
facet normal 0 1 -0
    outer loop
        vertex -0.9754516 -0 4.9039264
        vertex -45 -0 30
        vertex -0.4900857 -0 4.9759235
    endloop
endfacet
facet normal 0 1 0
    outer loop
        vertex 50 -0 25
        vertex 47.356983 -0 29.409607
        vertex 47.77785 -0 29.157349
    endloop
endfacet
facet normal 0 1 0
    outer loop
        vertex 50 -0 -25
        vertex 49.975925 -0 -25.490086
        vertex 45 -0 -30
    endloop
endfacet
facet normal 0 1 0
    outer loop
        vertex 49.975925 -0 -25.490086
        vertex 49.903927 -0 -25.975452
        vertex 45 -0 -30
    endloop
endfacet
facet normal 0 1 0
    outer loop
        vertex 45 -0 -30
        vertex 49.903927 -0 -25.975452
        vertex 49.784702 -0 -26.451424
    endloop
endfacet
facet normal 0 0.99999994 0
    outer loop
        vertex 45 -0 -30
        vertex 49.784702 -0 -26.451424
        vertex 49.619396 -0 -26.913418
    endloop
endfacet
facet normal 0 1 0
    outer loop
        vertex 45 -0 -30
        vertex 49.619396 -0 -26.913418
        vertex 49.409607 -0 -27.356983
    endloop
endfacet
facet normal 0 1 0
    outer loop
        vertex 45 -0 -30
        vertex 49.409607 -0 -27.356983
        vertex 49.15735 -0 -27.777851
    endloop
endfacet
facet normal 0 0.99999994 0
    outer loop
        vertex 45 -0 -30
        vertex 49.15735 -0 -27.777851
        vertex 48.86505 -0 -28.171967
    endloop
endfacet
facet normal 0 1 0
    outer loop
        vertex 45 -0 -30
        vertex 48.86505 -0 -28.171967
        vertex 48.535534 -0 -28.535534
    endloop
endfacet
facet normal 0 1 0
    outer loop
        vertex 45 -0 -30
        vertex 48.535534 -0 -28.535534
        vertex 48.171967 -0 -28.865053
    endloop
endfacet
facet normal 0 0.99999994 -0
    outer loop
        vertex 47.356983 -0 -29.409607
        vertex 45 -0 -30
        vertex 47.77785 -0 -29.157349
    endloop
endfacet
facet normal 0 1 0
    outer loop
        vertex 45 -0 -30
        vertex 48.171967 -0 -28.865053
        vertex 47.77785 -0 -29.157349
    endloop
endfacet
facet normal 0 0.99999994 -0
    outer loop
        vertex 46.913418 -0 -29.619398
        vertex 45 -0 -30
        vertex 47.356983 -0 -29.409607
    endloop
endfacet
facet normal 0 1 -0
    outer loop
        vertex 46.451424 -0 -29.784702
        vertex 45 -0 -30
        vertex 46.913418 -0 -29.619398
    endloop
endfacet
facet normal 0 0.99999994 -0
    outer loop
        vertex 45.975452 -0 -29.903927
        vertex 45 -0 -30
        vertex 46.451424 -0 -29.784702
    endloop
endfacet
facet normal 0 1 -0
    outer loop
        vertex 45.490086 -0 -29.975924
        vertex 45 -0 -30
        vertex 45.975452 -0 -29.903927
    endloop
endfacet
facet normal 0 0.99999994 0
    outer loop
        vertex -46.451424 -0 29.784702
        vertex -45.975452 -0 29.903927
        vertex -45 -0 30
    endloop
endfacet
facet normal 0 0.99999994 0
    outer loop
        vertex 50 -0 25
        vertex 49.15735 -0 27.777851
        vertex 49.409607 -0 27.356983
    endloop
endfacet
facet normal -0.14672911 -0 -0.98917669
    outer loop
        vertex -45.490086 -0 -29.975924
        vertex -45.490086 -10 -29.975924
        vertex -45.975452 -0 -29.903927
    endloop
endfacet
facet normal -0.24298012 -0 -0.97003132
    outer loop
        vertex -45.975452 -0 -29.903927
        vertex -45.975452 -10 -29.903927
        vertex -46.451424 -0 -29.784702
    endloop
endfacet
facet normal -0.24298012 -0 -0.97003132
    outer loop
        vertex -46.451424 -0 -29.784702
        vertex -45.975452 -10 -29.903927
        vertex -46.451424 -10 -29.784702
    endloop
endfacet
facet normal -0.33688992 -0 -0.94154412
    outer loop
        vertex -46.913418 -0 -29.619398
        vertex -46.451424 -10 -29.784702
        vertex -46.913418 -10 -29.619398
    endloop
endfacet
facet normal -0.42755574 0 -0.90398896
    outer loop
        vertex -47.356983 -0 -29.409607
        vertex -46.913418 -0 -29.619398
        vertex -46.913418 -10 -29.619398
    endloop
endfacet
facet normal -0.51410246 0 -0.85772884
    outer loop
        vertex -47.77785 -0 -29.157349
        vertex -47.356983 -0 -29.409607
        vertex -47.356983 -10 -29.409607
    endloop
endfacet
facet normal -0.51410246 0 -0.85772884
    outer loop
        vertex -47.77785 -10 -29.157349
        vertex -47.77785 -0 -29.157349
        vertex -47.356983 -10 -29.409607
    endloop
endfacet
facet normal -0.59569865 0 -0.80320799
    outer loop
        vertex -48.171967 -10 -28.865053
        vertex -48.171967 -0 -28.865053
        vertex -47.77785 -10 -29.157349
    endloop
endfacet
facet normal -0.67156011 0 -0.74095005
    outer loop
        vertex -48.171967 -10 -28.865053
        vertex -48.535534 -0 -28.535534
        vertex -48.171967 -0 -28.865053
    endloop
endfacet
facet normal -0.74095201 0 -0.67155796
    outer loop
        vertex -48.535534 -10 -28.535534
        vertex -48.86505 -0 -28.171967
        vertex -48.535534 -0 -28.535534
    endloop
endfacet
facet normal -0.74095201 0 -0.67155796
    outer loop
        vertex -48.535534 -10 -28.535534
        vertex -48.86505 -10 -28.171967
        vertex -48.86505 -0 -28.171967
    endloop
endfacet
facet normal -0.80320615 0 -0.59570116
    outer loop
        vertex -48.86505 -10 -28.171967
        vertex -49.15735 -10 -27.777851
        vertex -49.15735 -0 -27.777851
    endloop
endfacet
facet normal -0.85772884 -0 -0.51410246
    outer loop
        vertex -49.15735 -0 -27.777851
        vertex -49.15735 -10 -27.777851
        vertex -49.409607 -0 -27.356983
    endloop
endfacet
facet normal -0.90399051 -0 -0.42755255
    outer loop
        vertex -49.409607 -0 -27.356983
        vertex -49.409607 -10 -27.356983
        vertex -49.619396 -0 -26.913418
    endloop
endfacet
facet normal -0.90399051 -0 -0.42755255
    outer loop
        vertex -49.619396 -0 -26.913418
        vertex -49.409607 -10 -27.356983
        vertex -49.619396 -10 -26.913418
    endloop
endfacet
facet normal -0.99879569 -0 -0.049064
    outer loop
        vertex -50 -0 -25
        vertex -49.975925 -10 -25.490086
        vertex -50 -10 -25
    endloop
endfacet
facet normal -0.99879569 0 -0.049064
    outer loop
        vertex -50 -0 -25
        vertex -49.975925 -0 -25.490086
        vertex -49.975925 -10 -25.490086
    endloop
endfacet
facet normal -0.98917615 0 -0.14673293
    outer loop
        vertex -49.975925 -10 -25.490086
        vertex -49.975925 -0 -25.490086
        vertex -49.903927 -10 -25.975452
    endloop
endfacet
facet normal -0.98917615 0 -0.14673293
    outer loop
        vertex -49.903927 -10 -25.975452
        vertex -49.975925 -0 -25.490086
        vertex -49.903927 -0 -25.975452
    endloop
endfacet
facet normal -0.97003132 0 -0.24298012
    outer loop
        vertex -49.784702 -10 -26.451424
        vertex -49.903927 -10 -25.975452
        vertex -49.903927 -0 -25.975452
    endloop
endfacet
facet normal -0.97003132 -0 -0.24298012
    outer loop
        vertex -49.784702 -0 -26.451424
        vertex -49.784702 -10 -26.451424
        vertex -49.903927 -0 -25.975452
    endloop
endfacet
facet normal -0.9415428 -0 -0.33689332
    outer loop
        vertex -49.784702 -0 -26.451424
        vertex -49.619396 -10 -26.913418
        vertex -49.784702 -10 -26.451424
    endloop
endfacet
facet normal -0.9415428 0 -0.33689332
    outer loop
        vertex -49.784702 -0 -26.451424
        vertex -49.619396 -0 -26.913418
        vertex -49.619396 -10 -26.913418
    endloop
endfacet
facet normal -0.85772884 -0 -0.51410246
    outer loop
        vertex -49.409607 -0 -27.356983
        vertex -49.15735 -10 -27.777851
        vertex -49.409607 -10 -27.356983
    endloop
endfacet
facet normal -0.80320615 -0 -0.59570116
    outer loop
        vertex -48.86505 -0 -28.171967
        vertex -48.86505 -10 -28.171967
        vertex -49.15735 -0 -27.777851
    endloop
endfacet
facet normal -0.67156011 0 -0.74095005
    outer loop
        vertex -48.171967 -10 -28.865053
        vertex -48.535534 -10 -28.535534
        vertex -48.535534 -0 -28.535534
    endloop
endfacet
facet normal -0.04906788 0 -0.99879545
    outer loop
        vertex -45.490086 -0 -29.975924
        vertex -45 -0 -30
        vertex -45 -10 -30
    endloop
endfacet
facet normal -0.59569865 -0 -0.80320799
    outer loop
        vertex -47.77785 -0 -29.157349
        vertex -47.77785 -10 -29.157349
        vertex -48.171967 -0 -28.865053
    endloop
endfacet
facet normal -0.42755574 0 -0.90398896
    outer loop
        vertex -46.913418 -10 -29.619398
        vertex -47.356983 -10 -29.409607
        vertex -47.356983 -0 -29.409607
    endloop
endfacet
facet normal -0.04906788 0 -0.99879545
    outer loop
        vertex -45 -10 -30
        vertex -45.490086 -10 -29.975924
        vertex -45.490086 -0 -29.975924
    endloop
endfacet
facet normal -0.14672911 -0 -0.98917669
    outer loop
        vertex -45.975452 -0 -29.903927
        vertex -45.490086 -10 -29.975924
        vertex -45.975452 -10 -29.903927
    endloop
endfacet
facet normal -0.33688992 0 -0.94154412
    outer loop
        vertex -46.913418 -0 -29.619398
        vertex -46.451424 -0 -29.784702
        vertex -46.451424 -10 -29.784702
    endloop
endfacet
facet normal 0.04906788 0 -0.99879545
    outer loop
        vertex 45 -10 -30
        vertex 45 -0 -30
        vertex 45.490086 -10 -29.975924
    endloop
endfacet
facet normal 0.04906788 0 -0.99879545
    outer loop
        vertex 45.490086 -10 -29.975924
        vertex 45 -0 -30
        vertex 45.490086 -0 -29.975924
    endloop
endfacet
facet normal 0.14672911 0 -0.98917669
    outer loop
        vertex 45.975452 -10 -29.903927
        vertex 45.490086 -0 -29.975924
        vertex 45.975452 -0 -29.903927
    endloop
endfacet
facet normal 0.24298012 0 -0.97003132
    outer loop
        vertex 46.451424 -10 -29.784702
        vertex 45.975452 -0 -29.903927
        vertex 46.451424 -0 -29.784702
    endloop
endfacet
facet normal 0.33688992 0 -0.94154412
    outer loop
        vertex 46.913418 -10 -29.619398
        vertex 46.451424 -10 -29.784702
        vertex 46.451424 -0 -29.784702
    endloop
endfacet
facet normal 0.42755574 0 -0.90398896
    outer loop
        vertex 47.356983 -10 -29.409607
        vertex 46.913418 -10 -29.619398
        vertex 46.913418 -0 -29.619398
    endloop
endfacet
facet normal 0.42755574 0 -0.90398896
    outer loop
        vertex 47.356983 -0 -29.409607
        vertex 47.356983 -10 -29.409607
        vertex 46.913418 -0 -29.619398
    endloop
endfacet
facet normal 0.51410246 0 -0.85772884
    outer loop
        vertex 47.77785 -0 -29.157349
        vertex 47.77785 -10 -29.157349
        vertex 47.356983 -0 -29.409607
    endloop
endfacet
facet normal 0.59569865 0 -0.80320799
    outer loop
        vertex 47.77785 -0 -29.157349
        vertex 48.171967 -10 -28.865053
        vertex 47.77785 -10 -29.157349
    endloop
endfacet
facet normal 0.67156011 0 -0.74095005
    outer loop
        vertex 48.171967 -0 -28.865053
        vertex 48.535534 -10 -28.535534
        vertex 48.171967 -10 -28.865053
    endloop
endfacet
facet normal 0.74095201 0 -0.67155796
    outer loop
        vertex 48.535534 -0 -28.535534
        vertex 48.86505 -10 -28.171967
        vertex 48.535534 -10 -28.535534
    endloop
endfacet
facet normal 0.74095201 0 -0.67155796
    outer loop
        vertex 48.535534 -0 -28.535534
        vertex 48.86505 -0 -28.171967
        vertex 48.86505 -10 -28.171967
    endloop
endfacet
facet normal 0.80320615 0 -0.59570116
    outer loop
        vertex 48.86505 -0 -28.171967
        vertex 49.15735 -0 -27.777851
        vertex 49.15735 -10 -27.777851
    endloop
endfacet
facet normal 0.85772884 0 -0.51410246
    outer loop
        vertex 49.15735 -10 -27.777851
        vertex 49.15735 -0 -27.777851
        vertex 49.409607 -10 -27.356983
    endloop
endfacet
facet normal 0.90399051 0 -0.42755255
    outer loop
        vertex 49.409607 -10 -27.356983
        vertex 49.409607 -0 -27.356983
        vertex 49.619396 -10 -26.913418
    endloop
endfacet
facet normal 0.90399051 0 -0.42755255
    outer loop
        vertex 49.619396 -10 -26.913418
        vertex 49.409607 -0 -27.356983
        vertex 49.619396 -0 -26.913418
    endloop
endfacet
facet normal 0.99879569 0 -0.049064
    outer loop
        vertex 49.975925 -0 -25.490086
        vertex 50 -0 -25
        vertex 50 -10 -25
    endloop
endfacet
facet normal 0.99879569 0 -0.049064
    outer loop
        vertex 49.975925 -10 -25.490086
        vertex 49.975925 -0 -25.490086
        vertex 50 -10 -25
    endloop
endfacet
facet normal 0.98917615 0 -0.14673293
    outer loop
        vertex 49.975925 -10 -25.490086
        vertex 49.903927 -0 -25.975452
        vertex 49.975925 -0 -25.490086
    endloop
endfacet
facet normal 0.98917615 0 -0.14673293
    outer loop
        vertex 49.975925 -10 -25.490086
        vertex 49.903927 -10 -25.975452
        vertex 49.903927 -0 -25.975452
    endloop
endfacet
facet normal 0.97003132 0 -0.24298012
    outer loop
        vertex 49.903927 -0 -25.975452
        vertex 49.903927 -10 -25.975452
        vertex 49.784702 -0 -26.451424
    endloop
endfacet
facet normal 0.97003132 0 -0.24298012
    outer loop
        vertex 49.784702 -0 -26.451424
        vertex 49.903927 -10 -25.975452
        vertex 49.784702 -10 -26.451424
    endloop
endfacet
facet normal 0.9415428 0 -0.33689332
    outer loop
        vertex 49.619396 -0 -26.913418
        vertex 49.784702 -0 -26.451424
        vertex 49.784702 -10 -26.451424
    endloop
endfacet
facet normal 0.9415428 0 -0.33689332
    outer loop
        vertex 49.619396 -10 -26.913418
        vertex 49.619396 -0 -26.913418
        vertex 49.784702 -10 -26.451424
    endloop
endfacet
facet normal 0.85772884 0 -0.51410246
    outer loop
        vertex 49.15735 -0 -27.777851
        vertex 49.409607 -0 -27.356983
        vertex 49.409607 -10 -27.356983
    endloop
endfacet
facet normal 0.80320615 0 -0.59570116
    outer loop
        vertex 48.86505 -0 -28.171967
        vertex 49.15735 -10 -27.777851
        vertex 48.86505 -10 -28.171967
    endloop
endfacet
facet normal 0.67156011 0 -0.74095005
    outer loop
        vertex 48.535534 -0 -28.535534
        vertex 48.535534 -10 -28.535534
        vertex 48.171967 -0 -28.865053
    endloop
endfacet
facet normal 0.59569865 0 -0.80320799
    outer loop
        vertex 48.171967 -0 -28.865053
        vertex 48.171967 -10 -28.865053
        vertex 47.77785 -0 -29.157349
    endloop
endfacet
facet normal 0.51410246 0 -0.85772884
    outer loop
        vertex 47.77785 -10 -29.157349
        vertex 47.356983 -10 -29.409607
        vertex 47.356983 -0 -29.409607
    endloop
endfacet
facet normal 0.33688992 0 -0.94154412
    outer loop
        vertex 46.913418 -10 -29.619398
        vertex 46.451424 -0 -29.784702
        vertex 46.913418 -0 -29.619398
    endloop
endfacet
facet normal 0.24298012 0 -0.97003132
    outer loop
        vertex 45.975452 -10 -29.903927
        vertex 45.975452 -0 -29.903927
        vertex 46.451424 -10 -29.784702
    endloop
endfacet
facet normal 0.14672911 0 -0.98917669
    outer loop
        vertex 45.490086 -0 -29.975924
        vertex 45.975452 -10 -29.903927
        vertex 45.490086 -10 -29.975924
    endloop
endfacet
facet normal 0 -1 -0
    outer loop
        vertex -4.9759235 -10 -0.4900857
        vertex -50 -10 -25
        vertex -4.9039264 -10 -0.9754516
    endloop
endfacet
facet normal -0 -1 0
    outer loop
        vertex -4.9759235 -10 -0.4900857
        vertex -5 -10 -0.0000000000000012246468
        vertex -50 -10 -25
    endloop
endfacet
facet normal 0 -1 -0
    outer loop
        vertex -4.9039264 -10 -0.9754516
        vertex -50 -10 -25
        vertex -4.784702 -10 -1.4514234
    endloop
endfacet
facet normal 0 -0.99999994 0
    outer loop
        vertex -4.784702 -10 -1.4514234
        vertex -50 -10 -25
        vertex -45 -10 -30
    endloop
endfacet
facet normal -0 -1 0
    outer loop
        vertex -4.6193976 -10 -1.9134172
        vertex -4.784702 -10 -1.4514234
        vertex -45 -10 -30
    endloop
endfacet
facet normal -0 -1 0
    outer loop
        vertex -4.4096065 -10 -2.3569837
        vertex -4.6193976 -10 -1.9134172
        vertex -45 -10 -30
    endloop
endfacet
facet normal 0 -1 -0
    outer loop
        vertex -4.157348 -10 -2.777851
        vertex -45 -10 -30
        vertex -3.8650522 -10 -3.1719663
    endloop
endfacet
facet normal 0 -1 -0
    outer loop
        vertex -3.8650522 -10 -3.1719663
        vertex -45 -10 -30
        vertex -3.535534 -10 -3.535534
    endloop
endfacet
facet normal 0 -0.99999994 -0
    outer loop
        vertex -3.535534 -10 -3.535534
        vertex -45 -10 -30
        vertex -3.1719663 -10 -3.8650522
    endloop
endfacet
facet normal 0 -1 -0
    outer loop
        vertex -3.1719663 -10 -3.8650522
        vertex -45 -10 -30
        vertex -2.777851 -10 -4.157348
    endloop
endfacet
facet normal 0 -1 -0
    outer loop
        vertex -2.777851 -10 -4.157348
        vertex -45 -10 -30
        vertex -2.3569837 -10 -4.4096065
    endloop
endfacet
facet normal 0 -1 -0
    outer loop
        vertex -2.3569837 -10 -4.4096065
        vertex -45 -10 -30
        vertex -1.9134172 -10 -4.6193976
    endloop
endfacet
facet normal 0 -1 -0
    outer loop
        vertex -1.9134172 -10 -4.6193976
        vertex -45 -10 -30
        vertex -1.4514234 -10 -4.784702
    endloop
endfacet
facet normal 0 -1 -0
    outer loop
        vertex -1.4514234 -10 -4.784702
        vertex -45 -10 -30
        vertex -0.9754516 -10 -4.9039264
    endloop
endfacet
facet normal -0 -1 0
    outer loop
        vertex -0.4900857 -10 -4.9759235
        vertex -0.9754516 -10 -4.9039264
        vertex -45 -10 -30
    endloop
endfacet
facet normal -0 -1 0
    outer loop
        vertex 0.000000000000000918485 -10 -5
        vertex -0.4900857 -10 -4.9759235
        vertex -45 -10 -30
    endloop
endfacet
facet normal 0 -1 0
    outer loop
        vertex 45 -10 -30
        vertex 0.000000000000000918485 -10 -5
        vertex -45 -10 -30
    endloop
endfacet
facet normal 0 -1 0
    outer loop
        vertex 45 -10 -30
        vertex 0.4900857 -10 -4.9759235
        vertex 0.000000000000000918485 -10 -5
    endloop
endfacet
facet normal 0 -1 0
    outer loop
        vertex 45 -10 -30
        vertex 0.9754516 -10 -4.9039264
        vertex 0.4900857 -10 -4.9759235
    endloop
endfacet
facet normal 0 -1 0
    outer loop
        vertex 45 -10 -30
        vertex 1.4514234 -10 -4.784702
        vertex 0.9754516 -10 -4.9039264
    endloop
endfacet
facet normal 0 -1 0
    outer loop
        vertex 2.3569837 -10 -4.4096065
        vertex 45 -10 -30
        vertex 2.777851 -10 -4.157348
    endloop
endfacet
facet normal 0 -1 -0
    outer loop
        vertex 2.3569837 -10 -4.4096065
        vertex 1.9134172 -10 -4.6193976
        vertex 45 -10 -30
    endloop
endfacet
facet normal 0 -1 0
    outer loop
        vertex 2.777851 -10 -4.157348
        vertex 45 -10 -30
        vertex 3.1719663 -10 -3.8650522
    endloop
endfacet
facet normal 0 -0.99999994 0
    outer loop
        vertex 3.1719663 -10 -3.8650522
        vertex 45 -10 -30
        vertex 3.535534 -10 -3.535534
    endloop
endfacet
facet normal 0 -1 0
    outer loop
        vertex 3.535534 -10 -3.535534
        vertex 45 -10 -30
        vertex 3.8650522 -10 -3.1719663
    endloop
endfacet
facet normal 0 -1 0
    outer loop
        vertex 3.8650522 -10 -3.1719663
        vertex 45 -10 -30
        vertex 4.157348 -10 -2.777851
    endloop
endfacet
facet normal 0 -1 0
    outer loop
        vertex 4.157348 -10 -2.777851
        vertex 45 -10 -30
        vertex 4.4096065 -10 -2.3569837
    endloop
endfacet
facet normal 0 -1 0
    outer loop
        vertex 4.4096065 -10 -2.3569837
        vertex 45 -10 -30
        vertex 4.6193976 -10 -1.9134172
    endloop
endfacet
facet normal 0 -1 0
    outer loop
        vertex 4.6193976 -10 -1.9134172
        vertex 45 -10 -30
        vertex 4.784702 -10 -1.4514234
    endloop
endfacet
facet normal 0 -0.99999994 0
    outer loop
        vertex 4.784702 -10 -1.4514234
        vertex 45 -10 -30
        vertex 50 -10 -25
    endloop
endfacet
facet normal 0 -1 -0
    outer loop
        vertex 4.9039264 -10 -0.9754516
        vertex 4.784702 -10 -1.4514234
        vertex 50 -10 -25
    endloop
endfacet
facet normal 0 -1 0
    outer loop
        vertex 45 -10 -30
        vertex 1.9134172 -10 -4.6193976
        vertex 1.4514234 -10 -4.784702
    endloop
endfacet
facet normal 0 -1 0
    outer loop
        vertex 50 -10 -25
        vertex 4.9759235 -10 -0.4900857
        vertex 4.9039264 -10 -0.9754516
    endloop
endfacet
facet normal 0 -1 0
    outer loop
        vertex 50 -10 -25
        vertex 5 -10 0.0000000000000006123234
        vertex 4.9759235 -10 -0.4900857
    endloop
endfacet
facet normal 0 -1 0
    outer loop
        vertex 50 -10 -25
        vertex 50 -10 25
        vertex 5 -10 0.0000000000000006123234
    endloop
endfacet
facet normal 0 -1 0
    outer loop
        vertex 5 -10 0.0000000000000006123234
        vertex 50 -10 25
        vertex 4.9759235 -10 0.4900857
    endloop
endfacet
facet normal 0 -1 0
    outer loop
        vertex 4.9759235 -10 0.4900857
        vertex 50 -10 25
        vertex 4.9039264 -10 0.9754516
    endloop
endfacet
facet normal 0 -1 0
    outer loop
        vertex 4.9039264 -10 0.9754516
        vertex 50 -10 25
        vertex 4.784702 -10 1.4514234
    endloop
endfacet
facet normal 0 -0.99999994 0
    outer loop
        vertex 4.784702 -10 1.4514234
        vertex 50 -10 25
        vertex 45 -10 30
    endloop
endfacet
facet normal 0 -1 0
    outer loop
        vertex 4.6193976 -10 1.9134172
        vertex 4.784702 -10 1.4514234
        vertex 45 -10 30
    endloop
endfacet
facet normal 0 -1 0
    outer loop
        vertex 4.4096065 -10 2.3569837
        vertex 4.6193976 -10 1.9134172
        vertex 45 -10 30
    endloop
endfacet
facet normal 0 -0.99999994 0
    outer loop
        vertex 45 -10 30
        vertex 3.535534 -10 3.535534
        vertex 3.8650522 -10 3.1719663
    endloop
endfacet
facet normal 0 -1 0
    outer loop
        vertex 4.157348 -10 2.777851
        vertex 45 -10 30
        vertex 3.8650522 -10 3.1719663
    endloop
endfacet
facet normal 0 -1 0
    outer loop
        vertex 2.777851 -10 4.157348
        vertex 3.1719663 -10 3.8650522
        vertex 45 -10 30
    endloop
endfacet
facet normal 0 -1 0
    outer loop
        vertex 45 -10 30
        vertex 3.1719663 -10 3.8650522
        vertex 3.535534 -10 3.535534
    endloop
endfacet
facet normal 0 -1 0
    outer loop
        vertex 2.3569837 -10 4.4096065
        vertex 2.777851 -10 4.157348
        vertex 45 -10 30
    endloop
endfacet
facet normal 0 -1 0
    outer loop
        vertex 1.9134172 -10 4.6193976
        vertex 2.3569837 -10 4.4096065
        vertex 45 -10 30
    endloop
endfacet
facet normal 0 -1 0
    outer loop
        vertex 1.4514234 -10 4.784702
        vertex 1.9134172 -10 4.6193976
        vertex 45 -10 30
    endloop
endfacet
facet normal 0 -1 0
    outer loop
        vertex 0.9754516 -10 4.9039264
        vertex 1.4514234 -10 4.784702
        vertex 45 -10 30
    endloop
endfacet
facet normal 0 -1 0
    outer loop
        vertex 45 -10 30
        vertex 0.4900857 -10 4.9759235
        vertex 0.9754516 -10 4.9039264
    endloop
endfacet
facet normal 0 -1 0
    outer loop
        vertex 45 -10 30
        vertex -0.0000000000000003061617 -10 5
        vertex 0.4900857 -10 4.9759235
    endloop
endfacet
facet normal -0 -1 0
    outer loop
        vertex 45 -10 30
        vertex -45 -10 30
        vertex -0.0000000000000003061617 -10 5
    endloop
endfacet
facet normal -0 -1 0
    outer loop
        vertex -0.0000000000000003061617 -10 5
        vertex -45 -10 30
        vertex -0.4900857 -10 4.9759235
    endloop
endfacet
facet normal 0 -1 0
    outer loop
        vertex -45 -10 30
        vertex -1.4514234 -10 4.784702
        vertex -0.9754516 -10 4.9039264
    endloop
endfacet
facet normal -0 -1 0
    outer loop
        vertex -2.3569837 -10 4.4096065
        vertex -45 -10 30
        vertex -2.777851 -10 4.157348
    endloop
endfacet
facet normal 0 -1 0
    outer loop
        vertex -2.3569837 -10 4.4096065
        vertex -1.9134172 -10 4.6193976
        vertex -45 -10 30
    endloop
endfacet
facet normal -0 -1 0
    outer loop
        vertex -2.777851 -10 4.157348
        vertex -45 -10 30
        vertex -3.1719663 -10 3.8650522
    endloop
endfacet
facet normal -0 -0.99999994 0
    outer loop
        vertex -3.1719663 -10 3.8650522
        vertex -45 -10 30
        vertex -3.535534 -10 3.535534
    endloop
endfacet
facet normal -0 -1 0
    outer loop
        vertex -3.535534 -10 3.535534
        vertex -45 -10 30
        vertex -3.8650522 -10 3.1719663
    endloop
endfacet
facet normal -0 -1 0
    outer loop
        vertex -3.8650522 -10 3.1719663
        vertex -45 -10 30
        vertex -4.157348 -10 2.777851
    endloop
endfacet
facet normal -0 -1 0
    outer loop
        vertex -4.157348 -10 2.777851
        vertex -45 -10 30
        vertex -4.4096065 -10 2.3569837
    endloop
endfacet
facet normal -0 -1 0
    outer loop
        vertex -4.4096065 -10 2.3569837
        vertex -45 -10 30
        vertex -4.6193976 -10 1.9134172
    endloop
endfacet
facet normal -0 -1 0
    outer loop
        vertex -4.6193976 -10 1.9134172
        vertex -45 -10 30
        vertex -4.784702 -10 1.4514234
    endloop
endfacet
facet normal 0 -0.99999994 0
    outer loop
        vertex -4.784702 -10 1.4514234
        vertex -45 -10 30
        vertex -50 -10 25
    endloop
endfacet
facet normal 0 -1 0
    outer loop
        vertex -4.9039264 -10 0.9754516
        vertex -4.784702 -10 1.4514234
        vertex -50 -10 25
    endloop
endfacet
facet normal 0 -1 0
    outer loop
        vertex 4.157348 -10 2.777851
        vertex 4.4096065 -10 2.3569837
        vertex 45 -10 30
    endloop
endfacet
facet normal 0 -1 0
    outer loop
        vertex -5 -10 -0.0000000000000012246468
        vertex -4.9759235 -10 0.4900857
        vertex -50 -10 25
    endloop
endfacet
facet normal 0 -1 0
    outer loop
        vertex -50 -10 25
        vertex -4.9759235 -10 0.4900857
        vertex -4.9039264 -10 0.9754516
    endloop
endfacet
facet normal 0 -1 0
    outer loop
        vertex -45.975452 -10 -29.903927
        vertex -45.490086 -10 -29.975924
        vertex -45 -10 -30
    endloop
endfacet
facet normal 0 -0.99999994 0
    outer loop
        vertex -46.451424 -10 -29.784702
        vertex -45.975452 -10 -29.903927
        vertex -45 -10 -30
    endloop
endfacet
facet normal 0 -1 0
    outer loop
        vertex -46.913418 -10 -29.619398
        vertex -46.451424 -10 -29.784702
        vertex -45 -10 -30
    endloop
endfacet
facet normal 0 -0.99999994 0
    outer loop
        vertex -47.356983 -10 -29.409607
        vertex -46.913418 -10 -29.619398
        vertex -45 -10 -30
    endloop
endfacet
facet normal 0 -1 0
    outer loop
        vertex -47.77785 -10 -29.157349
        vertex -47.356983 -10 -29.409607
        vertex -45 -10 -30
    endloop
endfacet
facet normal 0 -1 0
    outer loop
        vertex -48.171967 -10 -28.865053
        vertex -47.77785 -10 -29.157349
        vertex -45 -10 -30
    endloop
endfacet
facet normal 0 -1 0
    outer loop
        vertex -48.535534 -10 -28.535534
        vertex -48.171967 -10 -28.865053
        vertex -45 -10 -30
    endloop
endfacet
facet normal 0 -1 0
    outer loop
        vertex -48.86505 -10 -28.171967
        vertex -48.535534 -10 -28.535534
        vertex -45 -10 -30
    endloop
endfacet
facet normal 0 -0.99999994 0
    outer loop
        vertex -49.15735 -10 -27.777851
        vertex -48.86505 -10 -28.171967
        vertex -45 -10 -30
    endloop
endfacet
facet normal 0 -1 0
    outer loop
        vertex -49.409607 -10 -27.356983
        vertex -49.15735 -10 -27.777851
        vertex -45 -10 -30
    endloop
endfacet
facet normal 0 -1 0
    outer loop
        vertex -49.619396 -10 -26.913418
        vertex -49.409607 -10 -27.356983
        vertex -45 -10 -30
    endloop
endfacet
facet normal 0 -0.99999994 0
    outer loop
        vertex -49.784702 -10 -26.451424
        vertex -49.619396 -10 -26.913418
        vertex -45 -10 -30
    endloop
endfacet
facet normal 0 -1 0
    outer loop
        vertex -49.903927 -10 -25.975452
        vertex -49.784702 -10 -26.451424
        vertex -45 -10 -30
    endloop
endfacet
facet normal 0 -1 0
    outer loop
        vertex -49.975925 -10 -25.490086
        vertex -49.903927 -10 -25.975452
        vertex -45 -10 -30
    endloop
endfacet
facet normal 0 -1 0
    outer loop
        vertex -50 -10 -25
        vertex -49.975925 -10 -25.490086
        vertex -45 -10 -30
    endloop
endfacet
facet normal 0 -1 0
    outer loop
        vertex -50 -10 25
        vertex -50 -10 -25
        vertex -5 -10 -0.0000000000000012246468
    endloop
endfacet
facet normal -0 -1 0
    outer loop
        vertex -4.157348 -10 -2.777851
        vertex -4.4096065 -10 -2.3569837
        vertex -45 -10 -30
    endloop
endfacet
facet normal 0 -1 -0
    outer loop
        vertex -49.975925 -10 25.490086
        vertex -50 -10 25
        vertex -45 -10 30
    endloop
endfacet
facet normal 0 -1 0
    outer loop
        vertex -49.975925 -10 25.490086
        vertex -45 -10 30
        vertex -49.903927 -10 25.975452
    endloop
endfacet
facet normal 0 -1 0
    outer loop
        vertex -49.903927 -10 25.975452
        vertex -45 -10 30
        vertex -49.784702 -10 26.451424
    endloop
endfacet
facet normal 0 -0.99999994 0
    outer loop
        vertex -49.784702 -10 26.451424
        vertex -45 -10 30
        vertex -49.619396 -10 26.913418
    endloop
endfacet
facet normal 0 -1 0
    outer loop
        vertex -49.619396 -10 26.913418
        vertex -45 -10 30
        vertex -49.409607 -10 27.356983
    endloop
endfacet
facet normal 0 -1 0
    outer loop
        vertex -49.409607 -10 27.356983
        vertex -45 -10 30
        vertex -49.15735 -10 27.777851
    endloop
endfacet
facet normal 0 -0.99999994 0
    outer loop
        vertex -49.15735 -10 27.777851
        vertex -45 -10 30
        vertex -48.86505 -10 28.171967
    endloop
endfacet
facet normal 0 -1 0
    outer loop
        vertex -48.86505 -10 28.171967
        vertex -45 -10 30
        vertex -48.535534 -10 28.535534
    endloop
endfacet
facet normal 0 -1 0
    outer loop
        vertex -45 -10 30
        vertex -47.77785 -10 29.157349
        vertex -48.171967 -10 28.865053
    endloop
endfacet
facet normal 0 -1 0
    outer loop
        vertex -48.535534 -10 28.535534
        vertex -45 -10 30
        vertex -48.171967 -10 28.865053
    endloop
endfacet
facet normal 0 -0.99999994 0
    outer loop
        vertex -45 -10 30
        vertex -47.356983 -10 29.409607
        vertex -47.77785 -10 29.157349
    endloop
endfacet
facet normal 0 -1 0
    outer loop
        vertex -45 -10 30
        vertex -46.913418 -10 29.619398
        vertex -47.356983 -10 29.409607
    endloop
endfacet
facet normal 0 -1 0
    outer loop
        vertex -45 -10 30
        vertex -46.451424 -10 29.784702
        vertex -46.913418 -10 29.619398
    endloop
endfacet
facet normal 0 -1 -0
    outer loop
        vertex -45.490086 -10 29.975924
        vertex -45.975452 -10 29.903927
        vertex -45 -10 30
    endloop
endfacet
facet normal -0 -1 0
    outer loop
        vertex -1.4514234 -10 4.784702
        vertex -45 -10 30
        vertex -1.9134172 -10 4.6193976
    endloop
endfacet
facet normal -0 -1 -0
    outer loop
        vertex 45.490086 -10 29.975924
        vertex 45 -10 30
        vertex 50 -10 25
    endloop
endfacet
facet normal -0 -1 -0
    outer loop
        vertex 45.975452 -10 29.903927
        vertex 45.490086 -10 29.975924
        vertex 50 -10 25
    endloop
endfacet
facet normal -0 -1 -0
    outer loop
        vertex 46.451424 -10 29.784702
        vertex 45.975452 -10 29.903927
        vertex 50 -10 25
    endloop
endfacet
facet normal -0 -1 -0
    outer loop
        vertex 46.913418 -10 29.619398
        vertex 46.451424 -10 29.784702
        vertex 50 -10 25
    endloop
endfacet
facet normal -0 -1 -0
    outer loop
        vertex 47.356983 -10 29.409607
        vertex 46.913418 -10 29.619398
        vertex 50 -10 25
    endloop
endfacet
facet normal 0 -1 0
    outer loop
        vertex 47.77785 -10 29.157349
        vertex 50 -10 25
        vertex 48.171967 -10 28.865053
    endloop
endfacet
facet normal 0 -1 0
    outer loop
        vertex 48.171967 -10 28.865053
        vertex 50 -10 25
        vertex 48.535534 -10 28.535534
    endloop
endfacet
facet normal 0 -1 0
    outer loop
        vertex 48.535534 -10 28.535534
        vertex 50 -10 25
        vertex 48.86505 -10 28.171967
    endloop
endfacet
facet normal 0 -1 0
    outer loop
        vertex 48.86505 -10 28.171967
        vertex 50 -10 25
        vertex 49.15735 -10 27.777851
    endloop
endfacet
facet normal -0 -1 -0
    outer loop
        vertex 49.784702 -10 26.451424
        vertex 49.619396 -10 26.913418
        vertex 50 -10 25
    endloop
endfacet
facet normal 0 -1 0
    outer loop
        vertex 50 -10 25
        vertex 49.619396 -10 26.913418
        vertex 49.409607 -10 27.356983
    endloop
endfacet
facet normal -0 -0.99999994 -0
    outer loop
        vertex 49.903927 -10 25.975452
        vertex 49.784702 -10 26.451424
        vertex 50 -10 25
    endloop
endfacet
facet normal -0 -0.99999994 -0
    outer loop
        vertex 49.975925 -10 25.490086
        vertex 49.903927 -10 25.975452
        vertex 50 -10 25
    endloop
endfacet
facet normal 0 -1 0
    outer loop
        vertex -0.9754516 -10 4.9039264
        vertex -0.4900857 -10 4.9759235
        vertex -45 -10 30
    endloop
endfacet
facet normal 0 -1 0
    outer loop
        vertex 50 -10 25
        vertex 47.77785 -10 29.157349
        vertex 47.356983 -10 29.409607
    endloop
endfacet
facet normal 0 -1 0
    outer loop
        vertex 50 -10 -25
        vertex 45 -10 -30
        vertex 49.975925 -10 -25.490086
    endloop
endfacet
facet normal 0 -1 0
    outer loop
        vertex 49.975925 -10 -25.490086
        vertex 45 -10 -30
        vertex 49.903927 -10 -25.975452
    endloop
endfacet
facet normal 0 -1 0
    outer loop
        vertex 45 -10 -30
        vertex 49.784702 -10 -26.451424
        vertex 49.903927 -10 -25.975452
    endloop
endfacet
facet normal 0 -0.99999994 0
    outer loop
        vertex 45 -10 -30
        vertex 49.619396 -10 -26.913418
        vertex 49.784702 -10 -26.451424
    endloop
endfacet
facet normal 0 -1 0
    outer loop
        vertex 45 -10 -30
        vertex 49.409607 -10 -27.356983
        vertex 49.619396 -10 -26.913418
    endloop
endfacet
facet normal 0 -1 0
    outer loop
        vertex 45 -10 -30
        vertex 49.15735 -10 -27.777851
        vertex 49.409607 -10 -27.356983
    endloop
endfacet
facet normal 0 -0.99999994 0
    outer loop
        vertex 45 -10 -30
        vertex 48.86505 -10 -28.171967
        vertex 49.15735 -10 -27.777851
    endloop
endfacet
facet normal 0 -1 0
    outer loop
        vertex 45 -10 -30
        vertex 48.535534 -10 -28.535534
        vertex 48.86505 -10 -28.171967
    endloop
endfacet
facet normal 0 -1 0
    outer loop
        vertex 45 -10 -30
        vertex 48.171967 -10 -28.865053
        vertex 48.535534 -10 -28.535534
    endloop
endfacet
facet normal -0 -0.99999994 0
    outer loop
        vertex 47.356983 -10 -29.409607
        vertex 47.77785 -10 -29.157349
        vertex 45 -10 -30
    endloop
endfacet
facet normal 0 -1 0
    outer loop
        vertex 45 -10 -30
        vertex 47.77785 -10 -29.157349
        vertex 48.171967 -10 -28.865053
    endloop
endfacet
facet normal -0 -0.99999994 0
    outer loop
        vertex 46.913418 -10 -29.619398
        vertex 47.356983 -10 -29.409607
        vertex 45 -10 -30
    endloop
endfacet
facet normal -0 -1 0
    outer loop
        vertex 46.451424 -10 -29.784702
        vertex 46.913418 -10 -29.619398
        vertex 45 -10 -30
    endloop
endfacet
facet normal -0 -0.99999994 0
    outer loop
        vertex 45.975452 -10 -29.903927
        vertex 46.451424 -10 -29.784702
        vertex 45 -10 -30
    endloop
endfacet
facet normal -0 -1 0
    outer loop
        vertex 45.490086 -10 -29.975924
        vertex 45.975452 -10 -29.903927
        vertex 45 -10 -30
    endloop
endfacet
facet normal 0 -0.99999994 0
    outer loop
        vertex -46.451424 -10 29.784702
        vertex -45 -10 30
        vertex -45.975452 -10 29.903927
    endloop
endfacet
facet normal 0 -0.99999994 0
    outer loop
        vertex 50 -10 25
        vertex 49.409607 -10 27.356983
        vertex 49.15735 -10 27.777851
    endloop
endfacet
facet normal -1 0 0
    outer loop
        vertex -50 -10 -25
        vertex -50 -10 25
        vertex -50 -0 -25
    endloop
endfacet
facet normal -1 0 0
    outer loop
        vertex -50 -10 25
        vertex -50 -0 25
        vertex -50 -0 -25
    endloop
endfacet
facet normal 1 -0 0
    outer loop
        vertex 50 -10 25
        vertex 50 -10 -25
        vertex 50 -0 25
    endloop
endfacet
facet normal 1 0 0
    outer loop
        vertex 50 -10 -25
        vertex 50 -0 -25
        vertex 50 -0 25
    endloop
endfacet
facet normal -0.04906788 0 0.99879545
    outer loop
        vertex -45 -10 30
        vertex -45 -0 30
        vertex -45.490086 -10 29.975924
    endloop
endfacet
facet normal -0.04906788 0 0.99879545
    outer loop
        vertex -45.490086 -10 29.975924
        vertex -45 -0 30
        vertex -45.490086 -0 29.975924
    endloop
endfacet
facet normal -0.14672911 0 0.98917669
    outer loop
        vertex -45.975452 -10 29.903927
        vertex -45.490086 -0 29.975924
        vertex -45.975452 -0 29.903927
    endloop
endfacet
facet normal -0.24298012 0 0.97003132
    outer loop
        vertex -46.451424 -10 29.784702
        vertex -45.975452 -0 29.903927
        vertex -46.451424 -0 29.784702
    endloop
endfacet
facet normal -0.33688992 0 0.94154412
    outer loop
        vertex -46.913418 -10 29.619398
        vertex -46.451424 -10 29.784702
        vertex -46.451424 -0 29.784702
    endloop
endfacet
facet normal -0.42755574 0 0.90398896
    outer loop
        vertex -47.356983 -10 29.409607
        vertex -46.913418 -10 29.619398
        vertex -46.913418 -0 29.619398
    endloop
endfacet
facet normal -0.42755574 0 0.90398896
    outer loop
        vertex -47.356983 -0 29.409607
        vertex -47.356983 -10 29.409607
        vertex -46.913418 -0 29.619398
    endloop
endfacet
facet normal -0.51410246 0 0.85772884
    outer loop
        vertex -47.77785 -0 29.157349
        vertex -47.77785 -10 29.157349
        vertex -47.356983 -0 29.409607
    endloop
endfacet
facet normal -0.59569865 0 0.80320799
    outer loop
        vertex -47.77785 -0 29.157349
        vertex -48.171967 -10 28.865053
        vertex -47.77785 -10 29.157349
    endloop
endfacet
facet normal -0.67156011 0 0.74095005
    outer loop
        vertex -48.171967 -0 28.865053
        vertex -48.535534 -10 28.535534
        vertex -48.171967 -10 28.865053
    endloop
endfacet
facet normal -0.74095201 0 0.67155796
    outer loop
        vertex -48.535534 -0 28.535534
        vertex -48.86505 -10 28.171967
        vertex -48.535534 -10 28.535534
    endloop
endfacet
facet normal -0.74095201 0 0.67155796
    outer loop
        vertex -48.535534 -0 28.535534
        vertex -48.86505 -0 28.171967
        vertex -48.86505 -10 28.171967
    endloop
endfacet
facet normal -0.80320615 0 0.59570116
    outer loop
        vertex -48.86505 -0 28.171967
        vertex -49.15735 -0 27.777851
        vertex -49.15735 -10 27.777851
    endloop
endfacet
facet normal -0.85772884 0 0.51410246
    outer loop
        vertex -49.15735 -10 27.777851
        vertex -49.15735 -0 27.777851
        vertex -49.409607 -10 27.356983
    endloop
endfacet
facet normal -0.90399051 0 0.42755255
    outer loop
        vertex -49.409607 -10 27.356983
        vertex -49.409607 -0 27.356983
        vertex -49.619396 -10 26.913418
    endloop
endfacet
facet normal -0.90399051 0 0.42755255
    outer loop
        vertex -49.619396 -10 26.913418
        vertex -49.409607 -0 27.356983
        vertex -49.619396 -0 26.913418
    endloop
endfacet
facet normal -0.99879569 0 0.049064
    outer loop
        vertex -49.975925 -0 25.490086
        vertex -50 -0 25
        vertex -50 -10 25
    endloop
endfacet
facet normal -0.99879569 0 0.049064
    outer loop
        vertex -49.975925 -10 25.490086
        vertex -49.975925 -0 25.490086
        vertex -50 -10 25
    endloop
endfacet
facet normal -0.98917615 0 0.14673293
    outer loop
        vertex -49.975925 -10 25.490086
        vertex -49.903927 -0 25.975452
        vertex -49.975925 -0 25.490086
    endloop
endfacet
facet normal -0.98917615 0 0.14673293
    outer loop
        vertex -49.975925 -10 25.490086
        vertex -49.903927 -10 25.975452
        vertex -49.903927 -0 25.975452
    endloop
endfacet
facet normal -0.97003132 0 0.24298012
    outer loop
        vertex -49.903927 -0 25.975452
        vertex -49.903927 -10 25.975452
        vertex -49.784702 -0 26.451424
    endloop
endfacet
facet normal -0.97003132 0 0.24298012
    outer loop
        vertex -49.784702 -0 26.451424
        vertex -49.903927 -10 25.975452
        vertex -49.784702 -10 26.451424
    endloop
endfacet
facet normal -0.9415428 0 0.33689332
    outer loop
        vertex -49.619396 -0 26.913418
        vertex -49.784702 -0 26.451424
        vertex -49.784702 -10 26.451424
    endloop
endfacet
facet normal -0.9415428 0 0.33689332
    outer loop
        vertex -49.619396 -10 26.913418
        vertex -49.619396 -0 26.913418
        vertex -49.784702 -10 26.451424
    endloop
endfacet
facet normal -0.85772884 0 0.51410246
    outer loop
        vertex -49.15735 -0 27.777851
        vertex -49.409607 -0 27.356983
        vertex -49.409607 -10 27.356983
    endloop
endfacet
facet normal -0.80320615 0 0.59570116
    outer loop
        vertex -48.86505 -0 28.171967
        vertex -49.15735 -10 27.777851
        vertex -48.86505 -10 28.171967
    endloop
endfacet
facet normal -0.67156011 0 0.74095005
    outer loop
        vertex -48.535534 -0 28.535534
        vertex -48.535534 -10 28.535534
        vertex -48.171967 -0 28.865053
    endloop
endfacet
facet normal -0.59569865 0 0.80320799
    outer loop
        vertex -48.171967 -0 28.865053
        vertex -48.171967 -10 28.865053
        vertex -47.77785 -0 29.157349
    endloop
endfacet
facet normal -0.51410246 0 0.85772884
    outer loop
        vertex -47.77785 -10 29.157349
        vertex -47.356983 -10 29.409607
        vertex -47.356983 -0 29.409607
    endloop
endfacet
facet normal -0.33688992 0 0.94154412
    outer loop
        vertex -46.913418 -10 29.619398
        vertex -46.451424 -0 29.784702
        vertex -46.913418 -0 29.619398
    endloop
endfacet
facet normal -0.24298012 0 0.97003132
    outer loop
        vertex -45.975452 -10 29.903927
        vertex -45.975452 -0 29.903927
        vertex -46.451424 -10 29.784702
    endloop
endfacet
facet normal -0.14672911 0 0.98917669
    outer loop
        vertex -45.490086 -0 29.975924
        vertex -45.975452 -10 29.903927
        vertex -45.490086 -10 29.975924
    endloop
endfacet
facet normal 0.99879569 -0 0.049064
    outer loop
        vertex 50 -10 25
        vertex 50 -0 25
        vertex 49.975925 -10 25.490086
    endloop
endfacet
facet normal 0.99879569 -0 0.049064
    outer loop
        vertex 49.975925 -10 25.490086
        vertex 50 -0 25
        vertex 49.975925 -0 25.490086
    endloop
endfacet
facet normal 0.98917615 -0 0.14673293
    outer loop
        vertex 49.903927 -10 25.975452
        vertex 49.975925 -0 25.490086
        vertex 49.903927 -0 25.975452
    endloop
endfacet
facet normal 0.97003132 -0 0.24298012
    outer loop
        vertex 49.784702 -10 26.451424
        vertex 49.903927 -0 25.975452
        vertex 49.784702 -0 26.451424
    endloop
endfacet
facet normal 0.9415428 0 0.33689332
    outer loop
        vertex 49.619396 -10 26.913418
        vertex 49.784702 -10 26.451424
        vertex 49.784702 -0 26.451424
    endloop
endfacet
facet normal 0.90399051 0 0.42755255
    outer loop
        vertex 49.409607 -10 27.356983
        vertex 49.619396 -10 26.913418
        vertex 49.619396 -0 26.913418
    endloop
endfacet
facet normal 0.90399051 0 0.42755255
    outer loop
        vertex 49.409607 -0 27.356983
        vertex 49.409607 -10 27.356983
        vertex 49.619396 -0 26.913418
    endloop
endfacet
facet normal 0.85772884 0 0.51410246
    outer loop
        vertex 49.15735 -0 27.777851
        vertex 49.15735 -10 27.777851
        vertex 49.409607 -0 27.356983
    endloop
endfacet
facet normal 0.80320615 0 0.59570116
    outer loop
        vertex 49.15735 -0 27.777851
        vertex 48.86505 -10 28.171967
        vertex 49.15735 -10 27.777851
    endloop
endfacet
facet normal 0.74095201 0 0.67155796
    outer loop
        vertex 48.86505 -0 28.171967
        vertex 48.535534 -10 28.535534
        vertex 48.86505 -10 28.171967
    endloop
endfacet
facet normal 0.67156011 0 0.74095005
    outer loop
        vertex 48.535534 -0 28.535534
        vertex 48.171967 -10 28.865053
        vertex 48.535534 -10 28.535534
    endloop
endfacet
facet normal 0.67156011 0 0.74095005
    outer loop
        vertex 48.535534 -0 28.535534
        vertex 48.171967 -0 28.865053
        vertex 48.171967 -10 28.865053
    endloop
endfacet
facet normal 0.59569865 0 0.80320799
    outer loop
        vertex 48.171967 -0 28.865053
        vertex 47.77785 -0 29.157349
        vertex 47.77785 -10 29.157349
    endloop
endfacet
facet normal 0.51410246 -0 0.85772884
    outer loop
        vertex 47.77785 -10 29.157349
        vertex 47.77785 -0 29.157349
        vertex 47.356983 -10 29.409607
    endloop
endfacet
facet normal 0.42755574 -0 0.90398896
    outer loop
        vertex 47.356983 -10 29.409607
        vertex 47.356983 -0 29.409607
        vertex 46.913418 -10 29.619398
    endloop
endfacet
facet normal 0.42755574 -0 0.90398896
    outer loop
        vertex 46.913418 -10 29.619398
        vertex 47.356983 -0 29.409607
        vertex 46.913418 -0 29.619398
    endloop
endfacet
facet normal 0.04906788 0 0.99879545
    outer loop
        vertex 45.490086 -0 29.975924
        vertex 45 -0 30
        vertex 45 -10 30
    endloop
endfacet
facet normal 0.04906788 -0 0.99879545
    outer loop
        vertex 45.490086 -10 29.975924
        vertex 45.490086 -0 29.975924
        vertex 45 -10 30
    endloop
endfacet
facet normal 0.14672911 -0 0.98917669
    outer loop
        vertex 45.490086 -10 29.975924
        vertex 45.975452 -0 29.903927
        vertex 45.490086 -0 29.975924
    endloop
endfacet
facet normal 0.14672911 0 0.98917669
    outer loop
        vertex 45.490086 -10 29.975924
        vertex 45.975452 -10 29.903927
        vertex 45.975452 -0 29.903927
    endloop
endfacet
facet normal 0.24298012 0 0.97003132
    outer loop
        vertex 45.975452 -0 29.903927
        vertex 45.975452 -10 29.903927
        vertex 46.451424 -0 29.784702
    endloop
endfacet
facet normal 0.24298012 0 0.97003132
    outer loop
        vertex 46.451424 -0 29.784702
        vertex 45.975452 -10 29.903927
        vertex 46.451424 -10 29.784702
    endloop
endfacet
facet normal 0.33688992 0 0.94154412
    outer loop
        vertex 46.913418 -0 29.619398
        vertex 46.451424 -0 29.784702
        vertex 46.451424 -10 29.784702
    endloop
endfacet
facet normal 0.33688992 -0 0.94154412
    outer loop
        vertex 46.913418 -10 29.619398
        vertex 46.913418 -0 29.619398
        vertex 46.451424 -10 29.784702
    endloop
endfacet
facet normal 0.51410246 0 0.85772884
    outer loop
        vertex 47.77785 -0 29.157349
        vertex 47.356983 -0 29.409607
        vertex 47.356983 -10 29.409607
    endloop
endfacet
facet normal 0.59569865 0 0.80320799
    outer loop
        vertex 48.171967 -0 28.865053
        vertex 47.77785 -10 29.157349
        vertex 48.171967 -10 28.865053
    endloop
endfacet
facet normal 0.74095201 0 0.67155796
    outer loop
        vertex 48.535534 -0 28.535534
        vertex 48.535534 -10 28.535534
        vertex 48.86505 -0 28.171967
    endloop
endfacet
facet normal 0.80320615 0 0.59570116
    outer loop
        vertex 48.86505 -0 28.171967
        vertex 48.86505 -10 28.171967
        vertex 49.15735 -0 27.777851
    endloop
endfacet
facet normal 0.85772884 0 0.51410246
    outer loop
        vertex 49.15735 -10 27.777851
        vertex 49.409607 -10 27.356983
        vertex 49.409607 -0 27.356983
    endloop
endfacet
facet normal 0.9415428 -0 0.33689332
    outer loop
        vertex 49.619396 -10 26.913418
        vertex 49.784702 -0 26.451424
        vertex 49.619396 -0 26.913418
    endloop
endfacet
facet normal 0.97003132 -0 0.24298012
    outer loop
        vertex 49.903927 -10 25.975452
        vertex 49.903927 -0 25.975452
        vertex 49.784702 -10 26.451424
    endloop
endfacet
facet normal 0.98917615 0 0.14673293
    outer loop
        vertex 49.975925 -0 25.490086
        vertex 49.903927 -10 25.975452
        vertex 49.975925 -10 25.490086
    endloop
endfacet
facet normal 0 0 1
    outer loop
        vertex -45 -10 30
        vertex 45 -10 30
        vertex -45 -0 30
    endloop
endfacet
facet normal 0 -0 1
    outer loop
        vertex 45 -10 30
        vertex 45 -0 30
        vertex -45 -0 30
    endloop
endfacet
facet normal 0.98917657 -0 0.14673035
    outer loop
        vertex -4.9759235 -10 -0.4900857
        vertex -4.9039264 -10 -0.9754516
        vertex -4.9759235 -0 -0.4900857
    endloop
endfacet
facet normal 0.97003132 -0 0.24297984
    outer loop
        vertex -4.9039264 -10 -0.9754516
        vertex -4.784702 -10 -1.4514234
        vertex -4.9039264 -0 -0.9754516
    endloop
endfacet
facet normal 0.97003132 -0 0.24297984
    outer loop
        vertex -4.784702 -10 -1.4514234
        vertex -4.784702 -0 -1.4514234
        vertex -4.9039264 -0 -0.9754516
    endloop
endfacet
facet normal 0.94154394 -0 0.33689013
    outer loop
        vertex -4.6193976 -10 -1.9134172
        vertex -4.6193976 -0 -1.9134172
        vertex -4.784702 -0 -1.4514234
    endloop
endfacet
facet normal 0.90398937 0 0.42755491
    outer loop
        vertex -4.4096065 -10 -2.3569837
        vertex -4.6193976 -0 -1.9134172
        vertex -4.6193976 -10 -1.9134172
    endloop
endfacet
facet normal 0.8577286 0 0.51410288
    outer loop
        vertex -4.157348 -10 -2.777851
        vertex -4.4096065 -0 -2.3569837
        vertex -4.4096065 -10 -2.3569837
    endloop
endfacet
facet normal 0.8577286 0 0.51410288
    outer loop
        vertex -4.157348 -0 -2.777851
        vertex -4.4096065 -0 -2.3569837
        vertex -4.157348 -10 -2.777851
    endloop
endfacet
facet normal 0.80320734 0 0.59569955
    outer loop
        vertex -3.8650522 -0 -3.1719663
        vertex -4.157348 -0 -2.777851
        vertex -3.8650522 -10 -3.1719663
    endloop
endfacet
facet normal 0.74095124 0 0.6715588
    outer loop
        vertex -3.8650522 -0 -3.1719663
        vertex -3.8650522 -10 -3.1719663
        vertex -3.535534 -10 -3.535534
    endloop
endfacet
facet normal 0.6715588 0 0.74095124
    outer loop
        vertex -3.535534 -0 -3.535534
        vertex -3.535534 -10 -3.535534
        vertex -3.1719663 -10 -3.8650522
    endloop
endfacet
facet normal 0.6715588 0 0.74095124
    outer loop
        vertex -3.535534 -0 -3.535534
        vertex -3.1719663 -10 -3.8650522
        vertex -3.1719663 -0 -3.8650522
    endloop
endfacet
facet normal 0.59569955 0 0.80320734
    outer loop
        vertex -3.1719663 -0 -3.8650522
        vertex -2.777851 -10 -4.157348
        vertex -2.777851 -0 -4.157348
    endloop
endfacet
facet normal 0.51410288 -0 0.8577286
    outer loop
        vertex -2.777851 -10 -4.157348
        vertex -2.3569837 -10 -4.4096065
        vertex -2.777851 -0 -4.157348
    endloop
endfacet
facet normal 0.42755491 -0 0.90398937
    outer loop
        vertex -2.3569837 -10 -4.4096065
        vertex -1.9134172 -10 -4.6193976
        vertex -2.3569837 -0 -4.4096065
    endloop
endfacet
facet normal 0.42755491 -0 0.90398937
    outer loop
        vertex -1.9134172 -10 -4.6193976
        vertex -1.9134172 -0 -4.6193976
        vertex -2.3569837 -0 -4.4096065
    endloop
endfacet
facet normal 0.33689013 -0 0.94154394
    outer loop
        vertex -1.4514234 -10 -4.784702
        vertex -1.4514234 -0 -4.784702
        vertex -1.9134172 -0 -4.6193976
    endloop
endfacet
facet normal 0.24297984 0 0.97003132
    outer loop
        vertex -0.9754516 -10 -4.9039264
        vertex -1.4514234 -0 -4.784702
        vertex -1.4514234 -10 -4.784702
    endloop
endfacet
facet normal 0.14673035 0 0.98917657
    outer loop
        vertex -0.4900857 -10 -4.9759235
        vertex -0.9754516 -0 -4.9039264
        vertex -0.9754516 -10 -4.9039264
    endloop
endfacet
facet normal 0.14673035 0 0.98917657
    outer loop
        vertex -0.4900857 -0 -4.9759235
        vertex -0.9754516 -0 -4.9039264
        vertex -0.4900857 -10 -4.9759235
    endloop
endfacet
facet normal 0.04906787 0 0.99879551
    outer loop
        vertex 0.000000000000000918485 -0 -5
        vertex -0.4900857 -0 -4.9759235
        vertex 0.000000000000000918485 -10 -5
    endloop
endfacet
facet normal -0.04906787 0 0.99879551
    outer loop
        vertex 0.000000000000000918485 -0 -5
        vertex 0.000000000000000918485 -10 -5
        vertex 0.4900857 -10 -4.9759235
    endloop
endfacet
facet normal -0.14673035 0 0.98917657
    outer loop
        vertex 0.4900857 -0 -4.9759235
        vertex 0.4900857 -10 -4.9759235
        vertex 0.9754516 -10 -4.9039264
    endloop
endfacet
facet normal -0.14673035 0 0.98917657
    outer loop
        vertex 0.4900857 -0 -4.9759235
        vertex 0.9754516 -10 -4.9039264
        vertex 0.9754516 -0 -4.9039264
    endloop
endfacet
facet normal -0.24297984 0 0.97003132
    outer loop
        vertex 0.9754516 -0 -4.9039264
        vertex 1.4514234 -10 -4.784702
        vertex 1.4514234 -0 -4.784702
    endloop
endfacet
facet normal -0.33689013 0 0.94154394
    outer loop
        vertex 1.4514234 -10 -4.784702
        vertex 1.9134172 -10 -4.6193976
        vertex 1.4514234 -0 -4.784702
    endloop
endfacet
facet normal -0.42755491 0 0.90398937
    outer loop
        vertex 1.9134172 -10 -4.6193976
        vertex 2.3569837 -10 -4.4096065
        vertex 1.9134172 -0 -4.6193976
    endloop
endfacet
facet normal -0.42755491 0 0.90398937
    outer loop
        vertex 2.3569837 -10 -4.4096065
        vertex 2.3569837 -0 -4.4096065
        vertex 1.9134172 -0 -4.6193976
    endloop
endfacet
facet normal -0.51410288 0 0.8577286
    outer loop
        vertex 2.777851 -10 -4.157348
        vertex 2.777851 -0 -4.157348
        vertex 2.3569837 -0 -4.4096065
    endloop
endfacet
facet normal -0.59569955 0 0.80320734
    outer loop
        vertex 3.1719663 -10 -3.8650522
        vertex 2.777851 -0 -4.157348
        vertex 2.777851 -10 -4.157348
    endloop
endfacet
facet normal -0.6715588 0 0.74095124
    outer loop
        vertex 3.535534 -10 -3.535534
        vertex 3.1719663 -0 -3.8650522
        vertex 3.1719663 -10 -3.8650522
    endloop
endfacet
facet normal -0.6715588 0 0.74095124
    outer loop
        vertex 3.535534 -0 -3.535534
        vertex 3.1719663 -0 -3.8650522
        vertex 3.535534 -10 -3.535534
    endloop
endfacet
facet normal -0.74095124 0 0.6715588
    outer loop
        vertex 3.8650522 -0 -3.1719663
        vertex 3.535534 -0 -3.535534
        vertex 3.8650522 -10 -3.1719663
    endloop
endfacet
facet normal -0.80320734 0 0.59569955
    outer loop
        vertex 3.8650522 -0 -3.1719663
        vertex 3.8650522 -10 -3.1719663
        vertex 4.157348 -10 -2.777851
    endloop
endfacet
facet normal -0.8577286 0 0.51410288
    outer loop
        vertex 4.157348 -0 -2.777851
        vertex 4.157348 -10 -2.777851
        vertex 4.4096065 -10 -2.3569837
    endloop
endfacet
facet normal -0.8577286 0 0.51410288
    outer loop
        vertex 4.157348 -0 -2.777851
        vertex 4.4096065 -10 -2.3569837
        vertex 4.4096065 -0 -2.3569837
    endloop
endfacet
facet normal -0.90398937 0 0.42755491
    outer loop
        vertex 4.4096065 -0 -2.3569837
        vertex 4.6193976 -10 -1.9134172
        vertex 4.6193976 -0 -1.9134172
    endloop
endfacet
facet normal -0.94154394 0 0.33689013
    outer loop
        vertex 4.6193976 -10 -1.9134172
        vertex 4.784702 -10 -1.4514234
        vertex 4.6193976 -0 -1.9134172
    endloop
endfacet
facet normal -0.97003132 0 0.24297984
    outer loop
        vertex 4.784702 -10 -1.4514234
        vertex 4.9039264 -10 -0.9754516
        vertex 4.784702 -0 -1.4514234
    endloop
endfacet
facet normal -0.97003132 0 0.24297984
    outer loop
        vertex 4.9039264 -10 -0.9754516
        vertex 4.9039264 -0 -0.9754516
        vertex 4.784702 -0 -1.4514234
    endloop
endfacet
facet normal -0.98917657 0 0.14673035
    outer loop
        vertex 4.9759235 -10 -0.4900857
        vertex 4.9759235 -0 -0.4900857
        vertex 4.9039264 -0 -0.9754516
    endloop
endfacet
facet normal -0.99879551 0 0.04906787
    outer loop
        vertex 5 -10 0.0000000000000006123234
        vertex 4.9759235 -0 -0.4900857
        vertex 4.9759235 -10 -0.4900857
    endloop
endfacet
facet normal -0.99879551 0 -0.04906787
    outer loop
        vertex 4.9759235 -10 0.4900857
        vertex 5 -0 0.0000000000000006123234
        vertex 5 -10 0.0000000000000006123234
    endloop
endfacet
facet normal -0.99879551 -0 -0.04906787
    outer loop
        vertex 4.9759235 -0 0.4900857
        vertex 5 -0 0.0000000000000006123234
        vertex 4.9759235 -10 0.4900857
    endloop
endfacet
facet normal -0.98917657 -0 -0.14673035
    outer loop
        vertex 4.9039264 -0 0.9754516
        vertex 4.9759235 -0 0.4900857
        vertex 4.9039264 -10 0.9754516
    endloop
endfacet
facet normal -0.97003132 -0 -0.24297984
    outer loop
        vertex 4.784702 -0 1.4514234
        vertex 4.9039264 -0 0.9754516
        vertex 4.784702 -10 1.4514234
    endloop
endfacet
facet normal -0.94154394 -0 -0.33689013
    outer loop
        vertex 4.784702 -0 1.4514234
        vertex 4.784702 -10 1.4514234
        vertex 4.6193976 -10 1.9134172
    endloop
endfacet
facet normal -0.90398937 -0 -0.42755491
    outer loop
        vertex 4.6193976 -0 1.9134172
        vertex 4.6193976 -10 1.9134172
        vertex 4.4096065 -10 2.3569837
    endloop
endfacet
facet normal -0.90398937 0 -0.42755491
    outer loop
        vertex 4.6193976 -0 1.9134172
        vertex 4.4096065 -10 2.3569837
        vertex 4.4096065 -0 2.3569837
    endloop
endfacet
facet normal -0.8577286 0 -0.51410288
    outer loop
        vertex 4.4096065 -0 2.3569837
        vertex 4.157348 -10 2.777851
        vertex 4.157348 -0 2.777851
    endloop
endfacet
facet normal -0.80320734 0 -0.59569955
    outer loop
        vertex 4.157348 -10 2.777851
        vertex 3.8650522 -10 3.1719663
        vertex 4.157348 -0 2.777851
    endloop
endfacet
facet normal -0.74095124 0 -0.6715588
    outer loop
        vertex 3.8650522 -10 3.1719663
        vertex 3.535534 -10 3.535534
        vertex 3.8650522 -0 3.1719663
    endloop
endfacet
facet normal -0.74095124 0 -0.6715588
    outer loop
        vertex 3.535534 -10 3.535534
        vertex 3.535534 -0 3.535534
        vertex 3.8650522 -0 3.1719663
    endloop
endfacet
facet normal -0.6715588 0 -0.74095124
    outer loop
        vertex 3.1719663 -10 3.8650522
        vertex 3.1719663 -0 3.8650522
        vertex 3.535534 -0 3.535534
    endloop
endfacet
facet normal -0.59569955 0 -0.80320734
    outer loop
        vertex 2.777851 -10 4.157348
        vertex 3.1719663 -0 3.8650522
        vertex 3.1719663 -10 3.8650522
    endloop
endfacet
facet normal -0.51410288 0 -0.8577286
    outer loop
        vertex 2.3569837 -10 4.4096065
        vertex 2.777851 -0 4.157348
        vertex 2.777851 -10 4.157348
    endloop
endfacet
facet normal -0.51410288 -0 -0.8577286
    outer loop
        vertex 2.3569837 -0 4.4096065
        vertex 2.777851 -0 4.157348
        vertex 2.3569837 -10 4.4096065
    endloop
endfacet
facet normal -0.42755491 -0 -0.90398937
    outer loop
        vertex 1.9134172 -0 4.6193976
        vertex 2.3569837 -0 4.4096065
        vertex 1.9134172 -10 4.6193976
    endloop
endfacet
facet normal -0.33689013 -0 -0.94154394
    outer loop
        vertex 1.9134172 -0 4.6193976
        vertex 1.9134172 -10 4.6193976
        vertex 1.4514234 -10 4.784702
    endloop
endfacet
facet normal -0.24297984 -0 -0.97003132
    outer loop
        vertex 1.4514234 -0 4.784702
        vertex 1.4514234 -10 4.784702
        vertex 0.9754516 -10 4.9039264
    endloop
endfacet
facet normal -0.24297984 0 -0.97003132
    outer loop
        vertex 1.4514234 -0 4.784702
        vertex 0.9754516 -10 4.9039264
        vertex 0.9754516 -0 4.9039264
    endloop
endfacet
facet normal -0.14673035 0 -0.98917657
    outer loop
        vertex 0.9754516 -0 4.9039264
        vertex 0.4900857 -10 4.9759235
        vertex 0.4900857 -0 4.9759235
    endloop
endfacet
facet normal 0.33689013 0 -0.94154394
    outer loop
        vertex -1.9134172 -0 4.6193976
        vertex -1.4514234 -0 4.784702
        vertex -1.9134172 -10 4.6193976
    endloop
endfacet
facet normal 0.80320734 0 -0.59569955
    outer loop
        vertex -3.8650522 -0 3.1719663
        vertex -4.157348 -10 2.777851
        vertex -4.157348 -0 2.777851
    endloop
endfacet
facet normal 0.8577286 0 -0.51410288
    outer loop
        vertex -4.157348 -0 2.777851
        vertex -4.157348 -10 2.777851
        vertex -4.4096065 -10 2.3569837
    endloop
endfacet
facet normal 0.98917657 -0 0.14673035
    outer loop
        vertex -4.9039264 -10 -0.9754516
        vertex -4.9039264 -0 -0.9754516
        vertex -4.9759235 -0 -0.4900857
    endloop
endfacet
facet normal 0.99879551 0 -0.04906787
    outer loop
        vertex -4.9759235 -0 0.4900857
        vertex -5 -10 -0.0000000000000012246468
        vertex -5 -0 -0.0000000000000012246468
    endloop
endfacet
facet normal 0.99879551 0 -0.04906787
    outer loop
        vertex -4.9759235 -10 0.4900857
        vertex -5 -10 -0.0000000000000012246468
        vertex -4.9759235 -0 0.4900857
    endloop
endfacet
facet normal 0.98917657 0 -0.14673035
    outer loop
        vertex -4.9759235 -10 0.4900857
        vertex -4.9759235 -0 0.4900857
        vertex -4.9039264 -0 0.9754516
    endloop
endfacet
facet normal 0.98917657 0 -0.14673035
    outer loop
        vertex -4.9759235 -10 0.4900857
        vertex -4.9039264 -0 0.9754516
        vertex -4.9039264 -10 0.9754516
    endloop
endfacet
facet normal 0.97003132 0 -0.24297984
    outer loop
        vertex -4.9039264 -0 0.9754516
        vertex -4.784702 -0 1.4514234
        vertex -4.9039264 -10 0.9754516
    endloop
endfacet
facet normal 0.97003132 0 -0.24297984
    outer loop
        vertex -4.784702 -0 1.4514234
        vertex -4.784702 -10 1.4514234
        vertex -4.9039264 -10 0.9754516
    endloop
endfacet
facet normal 0.94154394 0 -0.33689013
    outer loop
        vertex -4.6193976 -0 1.9134172
        vertex -4.784702 -10 1.4514234
        vertex -4.784702 -0 1.4514234
    endloop
endfacet
facet normal 0.94154394 0 -0.33689013
    outer loop
        vertex -4.6193976 -10 1.9134172
        vertex -4.784702 -10 1.4514234
        vertex -4.6193976 -0 1.9134172
    endloop
endfacet
facet normal 0.90398937 0 -0.42755491
    outer loop
        vertex -4.6193976 -10 1.9134172
        vertex -4.6193976 -0 1.9134172
        vertex -4.4096065 -0 2.3569837
    endloop
endfacet
facet normal 0.90398937 0 -0.42755491
    outer loop
        vertex -4.6193976 -10 1.9134172
        vertex -4.4096065 -0 2.3569837
        vertex -4.4096065 -10 2.3569837
    endloop
endfacet
facet normal 0.8577286 0 -0.51410288
    outer loop
        vertex -4.4096065 -0 2.3569837
        vertex -4.157348 -0 2.777851
        vertex -4.4096065 -10 2.3569837
    endloop
endfacet
facet normal 0.80320734 0 -0.59569955
    outer loop
        vertex -3.8650522 -0 3.1719663
        vertex -3.8650522 -10 3.1719663
        vertex -4.157348 -10 2.777851
    endloop
endfacet
facet normal 0.74095124 0 -0.6715588
    outer loop
        vertex -3.535534 -0 3.535534
        vertex -3.8650522 -10 3.1719663
        vertex -3.8650522 -0 3.1719663
    endloop
endfacet
facet normal 0.74095124 0 -0.6715588
    outer loop
        vertex -3.535534 -10 3.535534
        vertex -3.8650522 -10 3.1719663
        vertex -3.535534 -0 3.535534
    endloop
endfacet
facet normal 0.6715588 0 -0.74095124
    outer loop
        vertex -3.535534 -10 3.535534
        vertex -3.535534 -0 3.535534
        vertex -3.1719663 -0 3.8650522
    endloop
endfacet
facet normal 0.6715588 0 -0.74095124
    outer loop
        vertex -3.535534 -10 3.535534
        vertex -3.1719663 -0 3.8650522
        vertex -3.1719663 -10 3.8650522
    endloop
endfacet
facet normal 0.59569955 0 -0.80320734
    outer loop
        vertex -3.1719663 -0 3.8650522
        vertex -2.777851 -0 4.157348
        vertex -3.1719663 -10 3.8650522
    endloop
endfacet
facet normal 0.59569955 0 -0.80320734
    outer loop
        vertex -2.777851 -0 4.157348
        vertex -2.777851 -10 4.157348
        vertex -3.1719663 -10 3.8650522
    endloop
endfacet
facet normal 0.51410288 0 -0.8577286
    outer loop
        vertex -2.3569837 -0 4.4096065
        vertex -2.777851 -10 4.157348
        vertex -2.777851 -0 4.157348
    endloop
endfacet
facet normal 0.51410288 0 -0.8577286
    outer loop
        vertex -2.3569837 -10 4.4096065
        vertex -2.777851 -10 4.157348
        vertex -2.3569837 -0 4.4096065
    endloop
endfacet
facet normal 0.42755491 0 -0.90398937
    outer loop
        vertex -2.3569837 -10 4.4096065
        vertex -2.3569837 -0 4.4096065
        vertex -1.9134172 -0 4.6193976
    endloop
endfacet
facet normal 0.42755491 0 -0.90398937
    outer loop
        vertex -2.3569837 -10 4.4096065
        vertex -1.9134172 -0 4.6193976
        vertex -1.9134172 -10 4.6193976
    endloop
endfacet
facet normal 0.33689013 0 -0.94154394
    outer loop
        vertex -1.9134172 -10 4.6193976
        vertex -1.4514234 -0 4.784702
        vertex -1.4514234 -10 4.784702
    endloop
endfacet
facet normal 0.24297984 0 -0.97003132
    outer loop
        vertex -1.4514234 -0 4.784702
        vertex -0.9754516 -0 4.9039264
        vertex -1.4514234 -10 4.784702
    endloop
endfacet
facet normal 0.24297984 0 -0.97003132
    outer loop
        vertex -0.9754516 -0 4.9039264
        vertex -0.9754516 -10 4.9039264
        vertex -1.4514234 -10 4.784702
    endloop
endfacet
facet normal 0.14673035 0 -0.98917657
    outer loop
        vertex -0.4900857 -0 4.9759235
        vertex -0.9754516 -10 4.9039264
        vertex -0.9754516 -0 4.9039264
    endloop
endfacet
facet normal 0.14673035 0 -0.98917657
    outer loop
        vertex -0.4900857 -10 4.9759235
        vertex -0.9754516 -10 4.9039264
        vertex -0.4900857 -0 4.9759235
    endloop
endfacet
facet normal 0.04906787 0 -0.99879551
    outer loop
        vertex -0.4900857 -10 4.9759235
        vertex -0.4900857 -0 4.9759235
        vertex -0.0000000000000003061617 -0 5
    endloop
endfacet
facet normal 0.04906787 0 -0.99879551
    outer loop
        vertex -0.4900857 -10 4.9759235
        vertex -0.0000000000000003061617 -0 5
        vertex -0.0000000000000003061617 -10 5
    endloop
endfacet
facet normal -0.04906787 -0 -0.99879551
    outer loop
        vertex -0.0000000000000003061617 -0 5
        vertex 0.4900857 -0 4.9759235
        vertex -0.0000000000000003061617 -10 5
    endloop
endfacet
facet normal -0.04906787 -0 -0.99879551
    outer loop
        vertex 0.4900857 -0 4.9759235
        vertex 0.4900857 -10 4.9759235
        vertex -0.0000000000000003061617 -10 5
    endloop
endfacet
facet normal -0.14673035 0 -0.98917657
    outer loop
        vertex 0.9754516 -10 4.9039264
        vertex 0.4900857 -10 4.9759235
        vertex 0.9754516 -0 4.9039264
    endloop
endfacet
facet normal -0.33689013 0 -0.94154394
    outer loop
        vertex 1.9134172 -0 4.6193976
        vertex 1.4514234 -10 4.784702
        vertex 1.4514234 -0 4.784702
    endloop
endfacet
facet normal -0.42755491 -0 -0.90398937
    outer loop
        vertex 2.3569837 -0 4.4096065
        vertex 2.3569837 -10 4.4096065
        vertex 1.9134172 -10 4.6193976
    endloop
endfacet
facet normal -0.59569955 -0 -0.80320734
    outer loop
        vertex 2.777851 -0 4.157348
        vertex 3.1719663 -0 3.8650522
        vertex 2.777851 -10 4.157348
    endloop
endfacet
facet normal -0.6715588 0 -0.74095124
    outer loop
        vertex 3.1719663 -10 3.8650522
        vertex 3.535534 -0 3.535534
        vertex 3.535534 -10 3.535534
    endloop
endfacet
facet normal -0.80320734 0 -0.59569955
    outer loop
        vertex 3.8650522 -10 3.1719663
        vertex 3.8650522 -0 3.1719663
        vertex 4.157348 -0 2.777851
    endloop
endfacet
facet normal -0.8577286 0 -0.51410288
    outer loop
        vertex 4.4096065 -10 2.3569837
        vertex 4.157348 -10 2.777851
        vertex 4.4096065 -0 2.3569837
    endloop
endfacet
facet normal -0.94154394 0 -0.33689013
    outer loop
        vertex 4.784702 -0 1.4514234
        vertex 4.6193976 -10 1.9134172
        vertex 4.6193976 -0 1.9134172
    endloop
endfacet
facet normal -0.97003132 -0 -0.24297984
    outer loop
        vertex 4.9039264 -0 0.9754516
        vertex 4.9039264 -10 0.9754516
        vertex 4.784702 -10 1.4514234
    endloop
endfacet
facet normal -0.98917657 -0 -0.14673035
    outer loop
        vertex 4.9759235 -0 0.4900857
        vertex 4.9759235 -10 0.4900857
        vertex 4.9039264 -10 0.9754516
    endloop
endfacet
facet normal -0.99879551 0 0.04906787
    outer loop
        vertex 5 -0 0.0000000000000006123234
        vertex 4.9759235 -0 -0.4900857
        vertex 5 -10 0.0000000000000006123234
    endloop
endfacet
facet normal -0.98917657 0 0.14673035
    outer loop
        vertex 4.9759235 -10 -0.4900857
        vertex 4.9039264 -0 -0.9754516
        vertex 4.9039264 -10 -0.9754516
    endloop
endfacet
facet normal -0.94154394 0 0.33689013
    outer loop
        vertex 4.784702 -10 -1.4514234
        vertex 4.784702 -0 -1.4514234
        vertex 4.6193976 -0 -1.9134172
    endloop
endfacet
facet normal -0.90398937 0 0.42755491
    outer loop
        vertex 4.4096065 -10 -2.3569837
        vertex 4.6193976 -10 -1.9134172
        vertex 4.4096065 -0 -2.3569837
    endloop
endfacet
facet normal -0.80320734 0 0.59569955
    outer loop
        vertex 3.8650522 -0 -3.1719663
        vertex 4.157348 -10 -2.777851
        vertex 4.157348 -0 -2.777851
    endloop
endfacet
facet normal -0.74095124 0 0.6715588
    outer loop
        vertex 3.535534 -0 -3.535534
        vertex 3.535534 -10 -3.535534
        vertex 3.8650522 -10 -3.1719663
    endloop
endfacet
facet normal -0.59569955 0 0.80320734
    outer loop
        vertex 3.1719663 -0 -3.8650522
        vertex 2.777851 -0 -4.157348
        vertex 3.1719663 -10 -3.8650522
    endloop
endfacet
facet normal -0.51410288 0 0.8577286
    outer loop
        vertex 2.777851 -10 -4.157348
        vertex 2.3569837 -0 -4.4096065
        vertex 2.3569837 -10 -4.4096065
    endloop
endfacet
facet normal -0.33689013 0 0.94154394
    outer loop
        vertex 1.9134172 -10 -4.6193976
        vertex 1.9134172 -0 -4.6193976
        vertex 1.4514234 -0 -4.784702
    endloop
endfacet
facet normal -0.24297984 0 0.97003132
    outer loop
        vertex 0.9754516 -10 -4.9039264
        vertex 1.4514234 -10 -4.784702
        vertex 0.9754516 -0 -4.9039264
    endloop
endfacet
facet normal -0.04906787 0 0.99879551
    outer loop
        vertex 0.000000000000000918485 -0 -5
        vertex 0.4900857 -10 -4.9759235
        vertex 0.4900857 -0 -4.9759235
    endloop
endfacet
facet normal 0.04906787 0 0.99879551
    outer loop
        vertex -0.4900857 -0 -4.9759235
        vertex -0.4900857 -10 -4.9759235
        vertex 0.000000000000000918485 -10 -5
    endloop
endfacet
facet normal 0.24297984 0 0.97003132
    outer loop
        vertex -0.9754516 -0 -4.9039264
        vertex -1.4514234 -0 -4.784702
        vertex -0.9754516 -10 -4.9039264
    endloop
endfacet
facet normal 0.33689013 0 0.94154394
    outer loop
        vertex -1.4514234 -10 -4.784702
        vertex -1.9134172 -0 -4.6193976
        vertex -1.9134172 -10 -4.6193976
    endloop
endfacet
facet normal 0.51410288 -0 0.8577286
    outer loop
        vertex -2.3569837 -10 -4.4096065
        vertex -2.3569837 -0 -4.4096065
        vertex -2.777851 -0 -4.157348
    endloop
endfacet
facet normal 0.59569955 -0 0.80320734
    outer loop
        vertex -3.1719663 -10 -3.8650522
        vertex -2.777851 -10 -4.157348
        vertex -3.1719663 -0 -3.8650522
    endloop
endfacet
facet normal 0.74095124 0 0.6715588
    outer loop
        vertex -3.8650522 -0 -3.1719663
        vertex -3.535534 -10 -3.535534
        vertex -3.535534 -0 -3.535534
    endloop
endfacet
facet normal 0.99879551 0 0.04906787
    outer loop
        vertex -4.9759235 -10 -0.4900857
        vertex -5 -0 -0.0000000000000012246468
        vertex -5 -10 -0.0000000000000012246468
    endloop
endfacet
facet normal 0.80320734 -0 0.59569955
    outer loop
        vertex -4.157348 -10 -2.777851
        vertex -3.8650522 -10 -3.1719663
        vertex -4.157348 -0 -2.777851
    endloop
endfacet
facet normal 0.90398937 0 0.42755491
    outer loop
        vertex -4.6193976 -0 -1.9134172
        vertex -4.4096065 -10 -2.3569837
        vertex -4.4096065 -0 -2.3569837
    endloop
endfacet
facet normal 0.99879551 0 0.04906787
    outer loop
        vertex -5 -0 -0.0000000000000012246468
        vertex -4.9759235 -10 -0.4900857
        vertex -4.9759235 -0 -0.4900857
    endloop
endfacet
facet normal 0.94154394 0 0.33689013
    outer loop
        vertex -4.6193976 -10 -1.9134172
        vertex -4.784702 -0 -1.4514234
        vertex -4.784702 -10 -1.4514234
    endloop
endfacet
endsolid unnamed
