solid unnamed
facet normal -1 0 0
    outer loop
        vertex -100 -5 10
        vertex -100 -0 10
        vertex -100 -5 -10
    endloop
endfacet
facet normal -1 0 -0
    outer loop
        vertex -100 -0 10
        vertex -100 -0 -10
        vertex -100 -5 -10
    endloop
endfacet
facet normal -0 0 -0.99999994
    outer loop
        vertex -55.59017 -0 -10
        vertex -100 -5 -10
        vertex -100 -0 -10
    endloop
endfacet
facet normal 0 -0 -1
    outer loop
        vertex 55.59017 -0 -10
        vertex 100 -5 -10
        vertex 50 -5 -10
    endloop
endfacet
facet normal 0 0 -1
    outer loop
        vertex 50 -5 -10
        vertex 0 -5 -10
        vertex 11.18034 -0 -10
    endloop
endfacet
facet normal 0 0 -1
    outer loop
        vertex 0 -5 -10
        vertex -11.18034 -0 -10
        vertex 11.18034 -0 -10
    endloop
endfacet
facet normal 0 0 -1
    outer loop
        vertex 0 -5 -10
        vertex -50 -5 -10
        vertex -11.18034 -0 -10
    endloop
endfacet
facet normal 0 0 -1
    outer loop
        vertex 50 -5 -10
        vertex 11.18034 -0 -10
        vertex 55.59017 -0 -10
    endloop
endfacet
facet normal 0 0 -0.99999994
    outer loop
        vertex 100 -5 -10
        vertex 55.59017 -0 -10
        vertex 100 -0 -10
    endloop
endfacet
facet normal 0 0 -1
    outer loop
        vertex -100 -5 -10
        vertex -55.59017 -0 -10
        vertex -50 -5 -10
    endloop
endfacet
facet normal 0 0 -1
    outer loop
        vertex -55.59017 -0 -10
        vertex -11.18034 -0 -10
        vertex -50 -5 -10
    endloop
endfacet
facet normal -0 -1 0
    outer loop
        vertex 50 -5 10
        vertex 0 -5 10
        vertex 0 -5 -10
    endloop
endfacet
facet normal -0 -1 0
    outer loop
        vertex -50 -5 10
        vertex -100 -5 10
        vertex -100 -5 -10
    endloop
endfacet
facet normal -0 -1 0
    outer loop
        vertex 0 -5 10
        vertex -50 -5 10
        vertex -50 -5 -10
    endloop
endfacet
facet normal 0 -1 0
    outer loop
        vertex 50 -5 -10
        vertex 50 -5 10
        vertex 0 -5 -10
    endloop
endfacet
facet normal 0 -1 0
    outer loop
        vertex 50 -5 -10
        vertex 100 -5 -10
        vertex 100 -5 10
    endloop
endfacet
facet normal 0 -1 0
    outer loop
        vertex 50 -5 10
        vertex 50 -5 -10
        vertex 100 -5 10
    endloop
endfacet
facet normal 0 -1 0
    outer loop
        vertex -50 -5 -10
        vertex -50 -5 10
        vertex -100 -5 -10
    endloop
endfacet
facet normal 0 -1 -0
    outer loop
        vertex 0 -5 10
        vertex -50 -5 -10
        vertex 0 -5 -10
    endloop
endfacet
facet normal 0 0 0.99999994
    outer loop
        vertex -55.59017 -0 10
        vertex -100 -0 10
        vertex -100 -5 10
    endloop
endfacet
facet normal 0 0 1
    outer loop
        vertex 55.59017 -0 10
        vertex 50 -5 10
        vertex 100 -5 10
    endloop
endfacet
facet normal 0 0 1
    outer loop
        vertex 50 -5 10
        vertex 11.18034 -0 10
        vertex 0 -5 10
    endloop
endfacet
facet normal 0 -0 1
    outer loop
        vertex 0 -5 10
        vertex 11.18034 -0 10
        vertex -11.18034 -0 10
    endloop
endfacet
facet normal 0 0 1
    outer loop
        vertex 0 -5 10
        vertex -11.18034 -0 10
        vertex -50 -5 10
    endloop
endfacet
facet normal 0 -0 1
    outer loop
        vertex 50 -5 10
        vertex 55.59017 -0 10
        vertex 11.18034 -0 10
    endloop
endfacet
facet normal 0 -0 0.99999994
    outer loop
        vertex 100 -5 10
        vertex 100 -0 10
        vertex 55.59017 -0 10
    endloop
endfacet
facet normal 0 0 1
    outer loop
        vertex -100 -5 10
        vertex -50 -5 10
        vertex -55.59017 -0 10
    endloop
endfacet
facet normal -0 0 1
    outer loop
        vertex -55.59017 -0 10
        vertex -50 -5 10
        vertex -11.18034 -0 10
    endloop
endfacet
facet normal 0 0.99999994 0
    outer loop
        vertex -12.044755 -0 8.940015
        vertex -12.809023 -0 7.805698
        vertex -55.59017 -0 10
    endloop
endfacet
facet normal 0 1 -0
    outer loop
        vertex -12.044755 -0 8.940015
        vertex -55.59017 -0 10
        vertex -11.18034 -0 10
    endloop
endfacet
facet normal 0 1 0
    outer loop
        vertex -12.809023 -0 7.805698
        vertex -13.466789 -0 6.6064796
        vertex -55.59017 -0 10
    endloop
endfacet
facet normal 0 0.99999994 0
    outer loop
        vertex -13.466789 -0 6.6064796
        vertex -14.012586 -0 5.352331
        vertex -55.59017 -0 10
    endloop
endfacet
facet normal 0 1 0
    outer loop
        vertex -14.012586 -0 5.352331
        vertex -14.441873 -0 4.0536804
        vertex -55.59017 -0 10
    endloop
endfacet
facet normal 0 1 0
    outer loop
        vertex -14.441873 -0 4.0536804
        vertex -14.751081 -0 2.721325
        vertex -55.59017 -0 10
    endloop
endfacet
facet normal 0 1 0
    outer loop
        vertex -14.751081 -0 2.721325
        vertex -14.93764 -0 1.3663428
        vertex -55.59017 -0 10
    endloop
endfacet
facet normal 0 1 0
    outer loop
        vertex -14.93764 -0 1.3663428
        vertex -15 -0 0.00000000000000183697
        vertex -55.59017 -0 10
    endloop
endfacet
facet normal 0 1 0
    outer loop
        vertex -15 -0 0.00000000000000183697
        vertex -55.59017 -0 -10
        vertex -55.59017 -0 10
    endloop
endfacet
facet normal 0 1 0
    outer loop
        vertex -14.93764 -0 -1.3663428
        vertex -55.59017 -0 -10
        vertex -15 -0 0.00000000000000183697
    endloop
endfacet
facet normal 0 1 0
    outer loop
        vertex -14.751081 -0 -2.721325
        vertex -55.59017 -0 -10
        vertex -14.93764 -0 -1.3663428
    endloop
endfacet
facet normal 0 1 0
    outer loop
        vertex -14.441873 -0 -4.0536804
        vertex -55.59017 -0 -10
        vertex -14.751081 -0 -2.721325
    endloop
endfacet
facet normal 0 1 0
    outer loop
        vertex -14.012586 -0 -5.352331
        vertex -55.59017 -0 -10
        vertex -14.441873 -0 -4.0536804
    endloop
endfacet
facet normal 0 0.99999994 0
    outer loop
        vertex -13.466789 -0 -6.6064796
        vertex -55.59017 -0 -10
        vertex -14.012586 -0 -5.352331
    endloop
endfacet
facet normal 0 1 0
    outer loop
        vertex -12.044755 -0 -8.940015
        vertex -11.18034 -0 -10
        vertex -55.59017 -0 -10
    endloop
endfacet
facet normal 0 1 0
    outer loop
        vertex -55.59017 -0 -10
        vertex -13.466789 -0 -6.6064796
        vertex -12.809023 -0 -7.805698
    endloop
endfacet
facet normal 0 0.99999994 -0
    outer loop
        vertex -55.59017 -0 -10
        vertex -100 -0 -10
        vertex -55.59017 -0 10
    endloop
endfacet
facet normal 0 0.99999994 0
    outer loop
        vertex -55.59017 -0 10
        vertex -100 -0 -10
        vertex -100 -0 10
    endloop
endfacet
facet normal 0 1 0
    outer loop
        vertex -12.809023 -0 -7.805698
        vertex -12.044755 -0 -8.940015
        vertex -55.59017 -0 -10
    endloop
endfacet
facet normal -0 -1 0
    outer loop
        vertex 11.18034 -0 -10
        vertex -11.18034 -0 -10
        vertex 10.069208 -0 -11.118051
    endloop
endfacet
facet normal -0 -1 0
    outer loop
        vertex 10.069208 -0 -11.118051
        vertex -11.18034 -0 -10
        vertex 8.846883 -0 -12.113326
    endloop
endfacet
facet normal -0 -1 0
    outer loop
        vertex 8.846883 -0 -12.113326
        vertex -11.18034 -0 -10
        vertex 7.526863 -0 -12.974834
    endloop
endfacet
facet normal 0 -1 0
    outer loop
        vertex -11.18034 -0 -10
        vertex 6.1237245 -0 -13.693064
        vertex 7.526863 -0 -12.974834
    endloop
endfacet
facet normal 0 -1 0
    outer loop
        vertex 3.130818 -0 -14.669628
        vertex 4.652962 -0 -14.260082
        vertex -11.18034 -0 -10
    endloop
endfacet
facet normal 0 -1 0
    outer loop
        vertex -11.18034 -0 -10
        vertex 4.652962 -0 -14.260082
        vertex 6.1237245 -0 -13.693064
    endloop
endfacet
facet normal 0 -1 0
    outer loop
        vertex 1.5741003 -0 -14.917178
        vertex 3.130818 -0 -14.669628
        vertex -11.18034 -0 -10
    endloop
endfacet
facet normal -0 -1 0
    outer loop
        vertex 1.5741003 -0 -14.917178
        vertex -11.18034 -0 -10
        vertex 0.0000000000030081695 -0 -15
    endloop
endfacet
facet normal 0 -1 0
    outer loop
        vertex 0.0000000000030081695 -0 -15
        vertex -11.18034 -0 -10
        vertex -1.5741003 -0 -14.917178
    endloop
endfacet
facet normal 0 -1 0
    outer loop
        vertex -1.5741003 -0 -14.917178
        vertex -11.18034 -0 -10
        vertex -3.130818 -0 -14.669628
    endloop
endfacet
facet normal 0 -0.99999994 0
    outer loop
        vertex -3.130818 -0 -14.669628
        vertex -11.18034 -0 -10
        vertex -4.652962 -0 -14.260082
    endloop
endfacet
facet normal 0 -1 0
    outer loop
        vertex -4.652962 -0 -14.260082
        vertex -11.18034 -0 -10
        vertex -6.1237245 -0 -13.693064
    endloop
endfacet
facet normal 0 -1 0
    outer loop
        vertex -6.1237245 -0 -13.693064
        vertex -11.18034 -0 -10
        vertex -7.526863 -0 -12.974834
    endloop
endfacet
facet normal 0 -1 0
    outer loop
        vertex -7.526863 -0 -12.974834
        vertex -11.18034 -0 -10
        vertex -8.846883 -0 -12.113326
    endloop
endfacet
facet normal 0 -1 0
    outer loop
        vertex -11.18034 -0 -10
        vertex -10.069208 -0 -11.118051
        vertex -8.846883 -0 -12.113326
    endloop
endfacet
facet normal 0 0.99999994 -0
    outer loop
        vertex 100 -0 -10
        vertex 55.59017 -0 -10
        vertex 100 -0 10
    endloop
endfacet
facet normal 0 1 -0
    outer loop
        vertex 55.59017 -0 -10
        vertex 15 -0 -0.00000000000000367394
        vertex 55.59017 -0 10
    endloop
endfacet
facet normal 0 1 0
    outer loop
        vertex 12.044755 -0 -8.940015
        vertex 55.59017 -0 -10
        vertex 11.18034 -0 -10
    endloop
endfacet
facet normal 0 1 0
    outer loop
        vertex 12.809023 -0 -7.805698
        vertex 55.59017 -0 -10
        vertex 12.044755 -0 -8.940015
    endloop
endfacet
facet normal 0 1 0
    outer loop
        vertex 13.466789 -0 -6.6064796
        vertex 55.59017 -0 -10
        vertex 12.809023 -0 -7.805698
    endloop
endfacet
facet normal 0 0.99999994 0
    outer loop
        vertex 14.012586 -0 -5.352331
        vertex 55.59017 -0 -10
        vertex 13.466789 -0 -6.6064796
    endloop
endfacet
facet normal 0 1 0
    outer loop
        vertex 14.441873 -0 -4.0536804
        vertex 55.59017 -0 -10
        vertex 14.012586 -0 -5.352331
    endloop
endfacet
facet normal -0 1 0
    outer loop
        vertex 14.751081 -0 -2.721325
        vertex 14.93764 -0 -1.3663428
        vertex 55.59017 -0 -10
    endloop
endfacet
facet normal -0 1 0
    outer loop
        vertex 14.93764 -0 -1.3663428
        vertex 15 -0 -0.00000000000000367394
        vertex 55.59017 -0 -10
    endloop
endfacet
facet normal 0 1 -0
    outer loop
        vertex 15 -0 -0.00000000000000367394
        vertex 14.93764 -0 1.3663428
        vertex 55.59017 -0 10
    endloop
endfacet
facet normal 0 1 -0
    outer loop
        vertex 14.93764 -0 1.3663428
        vertex 14.751081 -0 2.721325
        vertex 55.59017 -0 10
    endloop
endfacet
facet normal 0 1 -0
    outer loop
        vertex 14.751081 -0 2.721325
        vertex 14.441873 -0 4.0536804
        vertex 55.59017 -0 10
    endloop
endfacet
facet normal 0 1 -0
    outer loop
        vertex 14.441873 -0 4.0536804
        vertex 14.012586 -0 5.352331
        vertex 55.59017 -0 10
    endloop
endfacet
facet normal 0 0.99999994 -0
    outer loop
        vertex 14.012586 -0 5.352331
        vertex 13.466789 -0 6.6064796
        vertex 55.59017 -0 10
    endloop
endfacet
facet normal 0 1 -0
    outer loop
        vertex 13.466789 -0 6.6064796
        vertex 12.809023 -0 7.805698
        vertex 55.59017 -0 10
    endloop
endfacet
facet normal -0 0.99999994 0
    outer loop
        vertex 12.044755 -0 8.940015
        vertex 55.59017 -0 10
        vertex 12.809023 -0 7.805698
    endloop
endfacet
facet normal -0 1 0
    outer loop
        vertex 11.18034 -0 10
        vertex 55.59017 -0 10
        vertex 12.044755 -0 8.940015
    endloop
endfacet
facet normal 0 1 0
    outer loop
        vertex 55.59017 -0 -10
        vertex 14.441873 -0 -4.0536804
        vertex 14.751081 -0 -2.721325
    endloop
endfacet
facet normal -0 0.99999994 0
    outer loop
        vertex 55.59017 -0 10
        vertex 100 -0 10
        vertex 55.59017 -0 -10
    endloop
endfacet
facet normal 1 -0 0
    outer loop
        vertex 100 -5 10
        vertex 100 -5 -10
        vertex 100 -0 10
    endloop
endfacet
facet normal 1 0 0
    outer loop
        vertex 100 -0 10
        vertex 100 -5 -10
        vertex 100 -0 -10
    endloop
endfacet
facet normal 0 -1 0
    outer loop
        vertex -8.846883 -0 12.113326
        vertex -10.069208 -0 11.118051
        vertex -11.18034 -0 10
    endloop
endfacet
facet normal 0 -1 0
    outer loop
        vertex -7.526863 -0 12.974834
        vertex -8.846883 -0 12.113326
        vertex -11.18034 -0 10
    endloop
endfacet
facet normal 0 -1 0
    outer loop
        vertex -6.1237245 -0 13.693064
        vertex -7.526863 -0 12.974834
        vertex -11.18034 -0 10
    endloop
endfacet
facet normal 0 -1 0
    outer loop
        vertex -4.652962 -0 14.260082
        vertex -6.1237245 -0 13.693064
        vertex -11.18034 -0 10
    endloop
endfacet
facet normal 0 -1 -0
    outer loop
        vertex -3.130818 -0 14.669628
        vertex -11.18034 -0 10
        vertex -1.5741003 -0 14.917178
    endloop
endfacet
facet normal 0 -0.99999994 0
    outer loop
        vertex -3.130818 -0 14.669628
        vertex -4.652962 -0 14.260082
        vertex -11.18034 -0 10
    endloop
endfacet
facet normal 0 -1 -0
    outer loop
        vertex -1.5741003 -0 14.917178
        vertex -11.18034 -0 10
        vertex 0.0000000000029985207 -0 15
    endloop
endfacet
facet normal 0 -1 0
    outer loop
        vertex -11.18034 -0 10
        vertex 1.5741003 -0 14.917178
        vertex 0.0000000000029985207 -0 15
    endloop
endfacet
facet normal 0 -1 0
    outer loop
        vertex -11.18034 -0 10
        vertex 3.130818 -0 14.669628
        vertex 1.5741003 -0 14.917178
    endloop
endfacet
facet normal 0 -1 0
    outer loop
        vertex -11.18034 -0 10
        vertex 4.652962 -0 14.260082
        vertex 3.130818 -0 14.669628
    endloop
endfacet
facet normal 0 -1 0
    outer loop
        vertex -11.18034 -0 10
        vertex 6.1237245 -0 13.693064
        vertex 4.652962 -0 14.260082
    endloop
endfacet
facet normal 0 -1 0
    outer loop
        vertex -11.18034 -0 10
        vertex 7.526863 -0 12.974834
        vertex 6.1237245 -0 13.693064
    endloop
endfacet
facet normal 0 -1 0
    outer loop
        vertex -11.18034 -0 10
        vertex 8.846883 -0 12.113326
        vertex 7.526863 -0 12.974834
    endloop
endfacet
facet normal 0 -1 0
    outer loop
        vertex 11.18034 -0 10
        vertex 10.069208 -0 11.118051
        vertex -11.18034 -0 10
    endloop
endfacet
facet normal -0 -1 0
    outer loop
        vertex 10.069208 -0 11.118051
        vertex 8.846883 -0 12.113326
        vertex -11.18034 -0 10
    endloop
endfacet
facet normal 0.98211908 0 0.18826087
    outer loop
        vertex 14.751081 40 2.721325
        vertex 14.71178 40 2.926355
        vertex 14.751081 -0 2.721325
    endloop
endfacet
facet normal 0.99065423 -0.00010991 -0.13639678
    outer loop
        vertex 14.927771 40 -1.4702572
        vertex 14.93764 -0 -1.3663428
        vertex 14.751081 -0 -2.721325
    endloop
endfacet
facet normal 0.97411138 -0.00020166 -0.22606871
    outer loop
        vertex 14.71178 40 -2.926355
        vertex 14.751081 -0 -2.721325
        vertex 14.441873 -0 -4.0536804
    endloop
endfacet
facet normal 0.97003108 0.0003025 -0.24298048
    outer loop
        vertex 14.354105 40 -4.35427
        vertex 14.71178 40 -2.926355
        vertex 14.441873 -0 -4.0536804
    endloop
endfacet
facet normal 0.94154412 0.00036702 -0.33688951
    outer loop
        vertex 13.858193 40 -5.7402515
        vertex 14.354105 40 -4.35427
        vertex 14.012586 -0 -5.352331
    endloop
endfacet
facet normal 0.9169324 -0.00033074 -0.3990424
    outer loop
        vertex 13.466789 -0 -6.6064796
        vertex 13.858193 40 -5.7402515
        vertex 14.012586 -0 -5.352331
    endloop
endfacet
facet normal 0.87677205 -0.00036803 -0.48090592
    outer loop
        vertex 12.809023 -0 -7.805698
        vertex 13.228819 40 -7.070951
        vertex 13.466789 -0 -6.6064796
    endloop
endfacet
facet normal 0.85772842 0.00044161 -0.51410276
    outer loop
        vertex 12.809023 -0 -7.805698
        vertex 12.472044 40 -8.333553
        vertex 13.228819 40 -7.070951
    endloop
endfacet
facet normal 0.80320758 0.00045167 -0.59569901
    outer loop
        vertex 12.044755 -0 -8.940015
        vertex 11.595157 40 -9.5159
        vertex 12.472044 40 -8.333553
    endloop
endfacet
facet normal 0.77497578 -0.00038815 -0.63199073
    outer loop
        vertex 12.044755 -0 -8.940015
        vertex 11.18034 -0 -10
        vertex 11.595157 40 -9.5159
    endloop
endfacet
facet normal 0.70929796 -0.00051619 -0.70490861
    outer loop
        vertex 11.18034 -0 -10
        vertex 10.069208 -0 -11.118051
        vertex 10.606602 40 -10.606602
    endloop
endfacet
facet normal 0.67155904 0.00045168 -0.740951
    outer loop
        vertex 10.606602 40 -10.606602
        vertex 10.069208 -0 -11.118051
        vertex 9.5159 40 -11.595157
    endloop
endfacet
facet normal 0.59569901 0.00044162 -0.80320758
    outer loop
        vertex 9.5159 40 -11.595157
        vertex 8.846883 -0 -12.113326
        vertex 8.333553 40 -12.472044
    endloop
endfacet
facet normal 0.51410282 0.0004134 -0.85772854
    outer loop
        vertex 8.333553 40 -12.472044
        vertex 7.526863 -0 -12.974834
        vertex 7.070951 40 -13.228819
    endloop
endfacet
facet normal 0.4556489 -0.00045877 -0.89015943
    outer loop
        vertex 7.070951 40 -13.228819
        vertex 7.526863 -0 -12.974834
        vertex 6.1237245 -0 -13.693064
    endloop
endfacet
facet normal 0.3597199 -0.00040333 -0.93306029
    outer loop
        vertex 5.7402515 40 -13.858193
        vertex 6.1237245 -0 -13.693064
        vertex 4.652962 -0 -14.260082
    endloop
endfacet
facet normal 0.33688951 0.00030249 -0.94154412
    outer loop
        vertex 4.35427 40 -14.354105
        vertex 5.7402515 40 -13.858193
        vertex 4.652962 -0 -14.260082
    endloop
endfacet
facet normal 0.24298048 0.00021981 -0.97003108
    outer loop
        vertex 2.926355 40 -14.71178
        vertex 4.35427 40 -14.354105
        vertex 3.130818 -0 -14.669628
    endloop
endfacet
facet normal 0.15704723 -0.00023795 -0.98759115
    outer loop
        vertex 1.5741003 -0 -14.917178
        vertex 2.926355 40 -14.71178
        vertex 3.130818 -0 -14.669628
    endloop
endfacet
facet normal 0.05254268 -0.00012804 -0.99861866
    outer loop
        vertex 0.0000000000030081695 -0 -15
        vertex 1.4702572 40 -14.927771
        vertex 1.5741003 -0 -14.917178
    endloop
endfacet
facet normal 0.04906786 0 -0.99879539
    outer loop
        vertex 0.0000000000030081695 -0 -15
        vertex -0.0000000000000027554554 40 -15
        vertex 1.4702572 40 -14.927771
    endloop
endfacet
facet normal -0.04906786 -0 -0.99879539
    outer loop
        vertex 0.0000000000030081695 -0 -15
        vertex -1.4702572 40 -14.927771
        vertex -0.0000000000000027554554 40 -15
    endloop
endfacet
facet normal -0.14673002 0.00011898 -0.98917657
    outer loop
        vertex -1.5741003 -0 -14.917178
        vertex -2.926355 40 -14.71178
        vertex -1.4702572 40 -14.927771
    endloop
endfacet
facet normal -0.15704723 -0.00023795 -0.98759115
    outer loop
        vertex -1.5741003 -0 -14.917178
        vertex -3.130818 -0 -14.669628
        vertex -2.926355 40 -14.71178
    endloop
endfacet
facet normal -0.25981838 -0.0003297 -0.96565747
    outer loop
        vertex -3.130818 -0 -14.669628
        vertex -4.652962 -0 -14.260082
        vertex -4.35427 40 -14.354105
    endloop
endfacet
facet normal -0.33688951 0.00030249 -0.94154412
    outer loop
        vertex -4.35427 40 -14.354105
        vertex -4.652962 -0 -14.260082
        vertex -5.7402515 40 -13.858193
    endloop
endfacet
facet normal -0.42755538 0.00036701 -0.90398914
    outer loop
        vertex -5.7402515 40 -13.858193
        vertex -6.1237245 -0 -13.693064
        vertex -7.070951 40 -13.228819
    endloop
endfacet
facet normal -0.4556489 -0.00045877 -0.89015943
    outer loop
        vertex -7.070951 40 -13.228819
        vertex -6.1237245 -0 -13.693064
        vertex -7.526863 -0 -12.974834
    endloop
endfacet
facet normal -0.54654628 -0.00049606 -0.83742869
    outer loop
        vertex -8.333553 40 -12.472044
        vertex -7.526863 -0 -12.974834
        vertex -8.846883 -0 -12.113326
    endloop
endfacet
facet normal -0.59569901 0.00044162 -0.80320758
    outer loop
        vertex -9.5159 40 -11.595157
        vertex -8.333553 40 -12.472044
        vertex -8.846883 -0 -12.113326
    endloop
endfacet
facet normal -0.67155904 0.00045168 -0.740951
    outer loop
        vertex -10.606602 40 -10.606602
        vertex -9.5159 40 -11.595157
        vertex -10.069208 -0 -11.118051
    endloop
endfacet
facet normal -0.70929796 -0.00051619 -0.70490861
    outer loop
        vertex -11.18034 -0 -10
        vertex -10.606602 40 -10.606602
        vertex -10.069208 -0 -11.118051
    endloop
endfacet
facet normal -0.77497578 -0.00038815 -0.63199073
    outer loop
        vertex -12.044755 -0 -8.940015
        vertex -11.595157 40 -9.5159
        vertex -11.18034 -0 -10
    endloop
endfacet
facet normal -0.80320758 0.00045167 -0.59569901
    outer loop
        vertex -12.044755 -0 -8.940015
        vertex -12.472044 40 -8.333553
        vertex -11.595157 40 -9.5159
    endloop
endfacet
facet normal -0.85772842 0.00044161 -0.51410276
    outer loop
        vertex -12.809023 -0 -7.805698
        vertex -13.228819 40 -7.070951
        vertex -12.472044 40 -8.333553
    endloop
endfacet
facet normal -0.87677205 -0.00036803 -0.48090592
    outer loop
        vertex -12.809023 -0 -7.805698
        vertex -13.466789 -0 -6.6064796
        vertex -13.228819 40 -7.070951
    endloop
endfacet
facet normal -0.9169324 -0.00033074 -0.3990424
    outer loop
        vertex -13.466789 -0 -6.6064796
        vertex -14.012586 -0 -5.352331
        vertex -13.858193 40 -5.7402515
    endloop
endfacet
facet normal -0.94154412 0.00036702 -0.33688951
    outer loop
        vertex -13.858193 40 -5.7402515
        vertex -14.012586 -0 -5.352331
        vertex -14.354105 40 -4.35427
    endloop
endfacet
facet normal -0.97003108 0.0003025 -0.24298048
    outer loop
        vertex -14.354105 40 -4.35427
        vertex -14.441873 -0 -4.0536804
        vertex -14.71178 40 -2.926355
    endloop
endfacet
facet normal -0.97411138 -0.00020166 -0.22606871
    outer loop
        vertex -14.71178 40 -2.926355
        vertex -14.441873 -0 -4.0536804
        vertex -14.751081 -0 -2.721325
    endloop
endfacet
facet normal -0.99065423 -0.00010991 -0.13639678
    outer loop
        vertex -14.927771 40 -1.4702572
        vertex -14.751081 -0 -2.721325
        vertex -14.93764 -0 -1.3663428
    endloop
endfacet
facet normal -0.99879539 0.00011897 -0.04906786
    outer loop
        vertex -15 40 0.00000000000000183697
        vertex -14.927771 40 -1.4702572
        vertex -14.93764 -0 -1.3663428
    endloop
endfacet
facet normal -0.99896014 0 0.04559249
    outer loop
        vertex -14.93764 -0 1.3663428
        vertex -15 40 0.00000000000000183697
        vertex -15 -0 0.00000000000000183697
    endloop
endfacet
facet normal -0.99879545 0.00011897 0.04906787
    outer loop
        vertex -14.93764 -0 1.3663428
        vertex -14.927771 40 1.4702572
        vertex -15 40 0.00000000000000183697
    endloop
endfacet
facet normal -0.98917651 0.00021981 0.14673002
    outer loop
        vertex -14.751081 -0 2.721325
        vertex -14.71178 40 2.926355
        vertex -14.927771 40 1.4702572
    endloop
endfacet
facet normal -0.97411138 -0.00020166 0.22606871
    outer loop
        vertex -14.751081 -0 2.721325
        vertex -14.441873 -0 4.0536804
        vertex -14.71178 40 2.926355
    endloop
endfacet
facet normal -0.97003108 0.0003025 0.24298048
    outer loop
        vertex -14.71178 40 2.926355
        vertex -14.441873 -0 4.0536804
        vertex -14.354105 40 4.35427
    endloop
endfacet
facet normal -0.94154412 0.00036702 0.33688951
    outer loop
        vertex -14.354105 40 4.35427
        vertex -14.012586 -0 5.352331
        vertex -13.858193 40 5.7402515
    endloop
endfacet
facet normal -0.90398914 0.00041338 0.42755538
    outer loop
        vertex -13.858193 40 5.7402515
        vertex -13.466789 -0 6.6064796
        vertex -13.228819 40 7.070951
    endloop
endfacet
facet normal -0.87677205 -0.00036803 0.48090592
    outer loop
        vertex -13.228819 40 7.070951
        vertex -13.466789 -0 6.6064796
        vertex -12.809023 -0 7.805698
    endloop
endfacet
facet normal -0.82932156 -0.00038717 0.55877143
    outer loop
        vertex -12.472044 40 8.333553
        vertex -12.809023 -0 7.805698
        vertex -12.044755 -0 8.940015
    endloop
endfacet
facet normal -0.80320758 0.00045167 0.59569901
    outer loop
        vertex -11.595157 40 9.5159
        vertex -12.472044 40 8.333553
        vertex -12.044755 -0 8.940015
    endloop
endfacet
facet normal -0.740951 0.00044357 0.67155904
    outer loop
        vertex -10.606602 40 10.606602
        vertex -11.595157 40 9.5159
        vertex -11.18034 -0 10
    endloop
endfacet
facet normal -0.70929796 -0.00051619 0.70490861
    outer loop
        vertex -10.069208 -0 11.118051
        vertex -10.606602 40 10.606602
        vertex -11.18034 -0 10
    endloop
endfacet
facet normal -0.63140851 -0.00051521 0.77545023
    outer loop
        vertex -8.846883 -0 12.113326
        vertex -9.5159 40 11.595157
        vertex -10.069208 -0 11.118051
    endloop
endfacet
facet normal -0.59569901 0.00044162 0.80320758
    outer loop
        vertex -8.846883 -0 12.113326
        vertex -8.333553 40 12.472044
        vertex -9.5159 40 11.595157
    endloop
endfacet
facet normal -0.51410282 0.0004134 0.85772854
    outer loop
        vertex -7.526863 -0 12.974834
        vertex -7.070951 40 13.228819
        vertex -8.333553 40 12.472044
    endloop
endfacet
facet normal -0.4556489 -0.00045877 0.89015943
    outer loop
        vertex -7.526863 -0 12.974834
        vertex -6.1237245 -0 13.693064
        vertex -7.070951 40 13.228819
    endloop
endfacet
facet normal -0.3597199 -0.00040333 0.93306029
    outer loop
        vertex -6.1237245 -0 13.693064
        vertex -4.652962 -0 14.260082
        vertex -5.7402515 40 13.858193
    endloop
endfacet
facet normal -0.25981838 -0.0003297 0.96565747
    outer loop
        vertex -4.652962 -0 14.260082
        vertex -3.130818 -0 14.669628
        vertex -4.35427 40 14.354105
    endloop
endfacet
facet normal -0.24298048 0.00021981 0.97003108
    outer loop
        vertex -4.35427 40 14.354105
        vertex -3.130818 -0 14.669628
        vertex -2.926355 40 14.71178
    endloop
endfacet
facet normal -0.14673002 0.00011898 0.98917651
    outer loop
        vertex -2.926355 40 14.71178
        vertex -1.5741003 -0 14.917178
        vertex -1.4702572 40 14.927771
    endloop
endfacet
facet normal 0.3597199 -0.00040333 0.93306029
    outer loop
        vertex 6.1237245 -0 13.693064
        vertex 5.7402515 40 13.858193
        vertex 4.652962 -0 14.260082
    endloop
endfacet
facet normal 0.82932156 -0.00038717 0.55877143
    outer loop
        vertex 12.044755 -0 8.940015
        vertex 12.809023 -0 7.805698
        vertex 12.472044 40 8.333553
    endloop
endfacet
facet normal 0.99879545 0.00011897 0.04906787
    outer loop
        vertex 14.93764 -0 1.3663428
        vertex 15 40 -0.00000000000000367394
        vertex 14.927771 40 1.4702572
    endloop
endfacet
facet normal 0.99065423 -0.00010991 0.13639677
    outer loop
        vertex 14.751081 -0 2.721325
        vertex 14.93764 -0 1.3663428
        vertex 14.927771 40 1.4702572
    endloop
endfacet
facet normal 0.99017376 0 0.13984291
    outer loop
        vertex 14.751081 40 2.721325
        vertex 14.751081 -0 2.721325
        vertex 14.927771 40 1.4702572
    endloop
endfacet
facet normal 0.97411138 -0.00020166 0.22606871
    outer loop
        vertex 14.71178 40 2.926355
        vertex 14.441873 -0 4.0536804
        vertex 14.751081 -0 2.721325
    endloop
endfacet
facet normal 0.97003108 0.0003025 0.24298048
    outer loop
        vertex 14.71178 40 2.926355
        vertex 14.354105 40 4.35427
        vertex 14.441873 -0 4.0536804
    endloop
endfacet
facet normal 0.94946921 -0.00027526 0.31386018
    outer loop
        vertex 14.441873 -0 4.0536804
        vertex 14.354105 40 4.35427
        vertex 14.012586 -0 5.352331
    endloop
endfacet
facet normal 0.94154412 0.00036702 0.33688951
    outer loop
        vertex 14.012586 -0 5.352331
        vertex 14.354105 40 4.35427
        vertex 13.858193 40 5.7402515
    endloop
endfacet
facet normal 0.9169324 -0.00033074 0.3990424
    outer loop
        vertex 13.858193 40 5.7402515
        vertex 13.466789 -0 6.6064796
        vertex 14.012586 -0 5.352331
    endloop
endfacet
facet normal 0.90398914 0.00041338 0.42755538
    outer loop
        vertex 13.858193 40 5.7402515
        vertex 13.228819 40 7.070951
        vertex 13.466789 -0 6.6064796
    endloop
endfacet
facet normal 0.87677205 -0.00036803 0.48090592
    outer loop
        vertex 13.466789 -0 6.6064796
        vertex 13.228819 40 7.070951
        vertex 12.809023 -0 7.805698
    endloop
endfacet
facet normal 0.85772842 0.00044161 0.51410276
    outer loop
        vertex 12.809023 -0 7.805698
        vertex 13.228819 40 7.070951
        vertex 12.472044 40 8.333553
    endloop
endfacet
facet normal 0.80320758 0.00045167 0.59569901
    outer loop
        vertex 12.044755 -0 8.940015
        vertex 12.472044 40 8.333553
        vertex 11.595157 40 9.5159
    endloop
endfacet
facet normal 0.77497578 -0.00038815 0.63199073
    outer loop
        vertex 11.18034 -0 10
        vertex 12.044755 -0 8.940015
        vertex 11.595157 40 9.5159
    endloop
endfacet
facet normal 0.740951 0.00044357 0.67155904
    outer loop
        vertex 10.606602 40 10.606602
        vertex 11.18034 -0 10
        vertex 11.595157 40 9.5159
    endloop
endfacet
facet normal 0.70929796 -0.00051619 0.70490861
    outer loop
        vertex 10.606602 40 10.606602
        vertex 10.069208 -0 11.118051
        vertex 11.18034 -0 10
    endloop
endfacet
facet normal 0.67155904 0.00045168 0.740951
    outer loop
        vertex 10.606602 40 10.606602
        vertex 9.5159 40 11.595157
        vertex 10.069208 -0 11.118051
    endloop
endfacet
facet normal 0.63140851 -0.00051521 0.77545023
    outer loop
        vertex 10.069208 -0 11.118051
        vertex 9.5159 40 11.595157
        vertex 8.846883 -0 12.113326
    endloop
endfacet
facet normal 0.59569901 0.00044162 0.80320758
    outer loop
        vertex 8.846883 -0 12.113326
        vertex 9.5159 40 11.595157
        vertex 8.333553 40 12.472044
    endloop
endfacet
facet normal 0.54654628 -0.00049606 0.83742869
    outer loop
        vertex 7.526863 -0 12.974834
        vertex 8.846883 -0 12.113326
        vertex 8.333553 40 12.472044
    endloop
endfacet
facet normal 0.51410282 0.0004134 0.85772854
    outer loop
        vertex 7.070951 40 13.228819
        vertex 7.526863 -0 12.974834
        vertex 8.333553 40 12.472044
    endloop
endfacet
facet normal 0.4556489 -0.00045877 0.89015943
    outer loop
        vertex 7.070951 40 13.228819
        vertex 6.1237245 -0 13.693064
        vertex 7.526863 -0 12.974834
    endloop
endfacet
facet normal 0.42755538 0.00036701 0.90398914
    outer loop
        vertex 7.070951 40 13.228819
        vertex 5.7402515 40 13.858193
        vertex 6.1237245 -0 13.693064
    endloop
endfacet
facet normal 0.33688951 0.00030249 0.94154412
    outer loop
        vertex 5.7402515 40 13.858193
        vertex 4.35427 40 14.354105
        vertex 4.652962 -0 14.260082
    endloop
endfacet
facet normal 0.25981838 -0.0003297 0.96565747
    outer loop
        vertex 4.652962 -0 14.260082
        vertex 4.35427 40 14.354105
        vertex 3.130818 -0 14.669628
    endloop
endfacet
facet normal 0.24298048 0.00021981 0.97003108
    outer loop
        vertex 3.130818 -0 14.669628
        vertex 4.35427 40 14.354105
        vertex 2.926355 40 14.71178
    endloop
endfacet
facet normal 0.15704723 -0.00023795 0.98759115
    outer loop
        vertex 1.5741003 -0 14.917178
        vertex 3.130818 -0 14.669628
        vertex 2.926355 40 14.71178
    endloop
endfacet
facet normal 0.14673002 0.00011898 0.98917651
    outer loop
        vertex 1.4702572 40 14.927771
        vertex 1.5741003 -0 14.917178
        vertex 2.926355 40 14.71178
    endloop
endfacet
facet normal 0.05254268 -0.00012804 0.99861866
    outer loop
        vertex 1.4702572 40 14.927771
        vertex 0.0000000000029985207 -0 15
        vertex 1.5741003 -0 14.917178
    endloop
endfacet
facet normal 0.04906786 0 0.99879539
    outer loop
        vertex 1.4702572 40 14.927771
        vertex 0.000000000000000918485 40 15
        vertex 0.0000000000029985207 -0 15
    endloop
endfacet
facet normal -0.04906786 -0 0.99879539
    outer loop
        vertex 0.0000000000029985207 -0 15
        vertex 0.000000000000000918485 40 15
        vertex -1.4702572 40 14.927771
    endloop
endfacet
facet normal -0.05254268 -0.00012804 0.99861866
    outer loop
        vertex -1.5741003 -0 14.917178
        vertex 0.0000000000029985207 -0 15
        vertex -1.4702572 40 14.927771
    endloop
endfacet
facet normal -0.15704723 -0.00023795 0.98759115
    outer loop
        vertex -2.926355 40 14.71178
        vertex -3.130818 -0 14.669628
        vertex -1.5741003 -0 14.917178
    endloop
endfacet
facet normal -0.33688951 0.00030249 0.94154412
    outer loop
        vertex -5.7402515 40 13.858193
        vertex -4.652962 -0 14.260082
        vertex -4.35427 40 14.354105
    endloop
endfacet
facet normal -0.42755538 0.00036701 0.90398914
    outer loop
        vertex -7.070951 40 13.228819
        vertex -6.1237245 -0 13.693064
        vertex -5.7402515 40 13.858193
    endloop
endfacet
facet normal -0.54654628 -0.00049606 0.83742869
    outer loop
        vertex -8.846883 -0 12.113326
        vertex -7.526863 -0 12.974834
        vertex -8.333553 40 12.472044
    endloop
endfacet
facet normal -0.67155904 0.00045168 0.740951
    outer loop
        vertex -10.069208 -0 11.118051
        vertex -9.5159 40 11.595157
        vertex -10.606602 40 10.606602
    endloop
endfacet
facet normal -0.77497578 -0.00038815 0.63199073
    outer loop
        vertex -11.18034 -0 10
        vertex -11.595157 40 9.5159
        vertex -12.044755 -0 8.940015
    endloop
endfacet
facet normal -0.85772842 0.00044161 0.51410276
    outer loop
        vertex -12.472044 40 8.333553
        vertex -13.228819 40 7.070951
        vertex -12.809023 -0 7.805698
    endloop
endfacet
facet normal -0.9169324 -0.00033074 0.3990424
    outer loop
        vertex -13.858193 40 5.7402515
        vertex -14.012586 -0 5.352331
        vertex -13.466789 -0 6.6064796
    endloop
endfacet
facet normal -0.94946921 -0.00027526 0.31386018
    outer loop
        vertex -14.354105 40 4.35427
        vertex -14.441873 -0 4.0536804
        vertex -14.012586 -0 5.352331
    endloop
endfacet
facet normal -0.99065423 -0.00010991 0.13639677
    outer loop
        vertex -14.93764 -0 1.3663428
        vertex -14.751081 -0 2.721325
        vertex -14.927771 40 1.4702572
    endloop
endfacet
facet normal -0.99896014 0 -0.04559249
    outer loop
        vertex -15 -0 0.00000000000000183697
        vertex -15 40 0.00000000000000183697
        vertex -14.93764 -0 -1.3663428
    endloop
endfacet
facet normal -0.98917651 0.00021981 -0.14673002
    outer loop
        vertex -14.927771 40 -1.4702572
        vertex -14.71178 40 -2.926355
        vertex -14.751081 -0 -2.721325
    endloop
endfacet
facet normal -0.94946921 -0.00027526 -0.31386018
    outer loop
        vertex -14.354105 40 -4.35427
        vertex -14.012586 -0 -5.352331
        vertex -14.441873 -0 -4.0536804
    endloop
endfacet
facet normal -0.90398914 0.00041338 -0.42755538
    outer loop
        vertex -13.228819 40 -7.070951
        vertex -13.466789 -0 -6.6064796
        vertex -13.858193 40 -5.7402515
    endloop
endfacet
facet normal -0.82932156 -0.00038717 -0.55877143
    outer loop
        vertex -12.044755 -0 -8.940015
        vertex -12.809023 -0 -7.805698
        vertex -12.472044 40 -8.333553
    endloop
endfacet
facet normal -0.740951 0.00044357 -0.67155904
    outer loop
        vertex -11.18034 -0 -10
        vertex -11.595157 40 -9.5159
        vertex -10.606602 40 -10.606602
    endloop
endfacet
facet normal -0.63140851 -0.00051521 -0.77545023
    outer loop
        vertex -10.069208 -0 -11.118051
        vertex -9.5159 40 -11.595157
        vertex -8.846883 -0 -12.113326
    endloop
endfacet
facet normal -0.51410282 0.0004134 -0.85772854
    outer loop
        vertex -8.333553 40 -12.472044
        vertex -7.070951 40 -13.228819
        vertex -7.526863 -0 -12.974834
    endloop
endfacet
facet normal -0.3597199 -0.00040333 -0.93306029
    outer loop
        vertex -5.7402515 40 -13.858193
        vertex -4.652962 -0 -14.260082
        vertex -6.1237245 -0 -13.693064
    endloop
endfacet
facet normal -0.24298048 0.00021981 -0.97003108
    outer loop
        vertex -2.926355 40 -14.71178
        vertex -3.130818 -0 -14.669628
        vertex -4.35427 40 -14.354105
    endloop
endfacet
facet normal -0.05254268 -0.00012804 -0.99861866
    outer loop
        vertex 0.0000000000030081695 -0 -15
        vertex -1.5741003 -0 -14.917178
        vertex -1.4702572 40 -14.927771
    endloop
endfacet
facet normal 0.14673002 0.00011898 -0.98917657
    outer loop
        vertex 1.5741003 -0 -14.917178
        vertex 1.4702572 40 -14.927771
        vertex 2.926355 40 -14.71178
    endloop
endfacet
facet normal 0.25981838 -0.0003297 -0.96565747
    outer loop
        vertex 3.130818 -0 -14.669628
        vertex 4.35427 40 -14.354105
        vertex 4.652962 -0 -14.260082
    endloop
endfacet
facet normal 0.42755538 0.00036701 -0.90398914
    outer loop
        vertex 5.7402515 40 -13.858193
        vertex 7.070951 40 -13.228819
        vertex 6.1237245 -0 -13.693064
    endloop
endfacet
facet normal 0.99879539 0.00011897 -0.04906786
    outer loop
        vertex 14.927771 40 -1.4702572
        vertex 15 40 -0.00000000000000367394
        vertex 14.93764 -0 -1.3663428
    endloop
endfacet
facet normal 0.54654628 -0.00049606 -0.83742869
    outer loop
        vertex 7.526863 -0 -12.974834
        vertex 8.333553 40 -12.472044
        vertex 8.846883 -0 -12.113326
    endloop
endfacet
facet normal 0.63140851 -0.00051521 -0.77545023
    outer loop
        vertex 8.846883 -0 -12.113326
        vertex 9.5159 40 -11.595157
        vertex 10.069208 -0 -11.118051
    endloop
endfacet
facet normal 0.740951 0.00044357 -0.67155904
    outer loop
        vertex 10.606602 40 -10.606602
        vertex 11.595157 40 -9.5159
        vertex 11.18034 -0 -10
    endloop
endfacet
facet normal 0.82932156 -0.00038717 -0.55877143
    outer loop
        vertex 12.472044 40 -8.333553
        vertex 12.809023 -0 -7.805698
        vertex 12.044755 -0 -8.940015
    endloop
endfacet
facet normal 0.90398914 0.00041338 -0.42755538
    outer loop
        vertex 13.858193 40 -5.7402515
        vertex 13.466789 -0 -6.6064796
        vertex 13.228819 40 -7.070951
    endloop
endfacet
facet normal 0.99896014 0 -0.04559249
    outer loop
        vertex 15 -0 -0.00000000000000367394
        vertex 14.93764 -0 -1.3663428
        vertex 15 40 -0.00000000000000367394
    endloop
endfacet
facet normal 0.99896014 -0 0.04559249
    outer loop
        vertex 15 -0 -0.00000000000000367394
        vertex 15 40 -0.00000000000000367394
        vertex 14.93764 -0 1.3663428
    endloop
endfacet
facet normal 0.98917651 0.00021981 -0.14673002
    outer loop
        vertex 14.71178 40 -2.926355
        vertex 14.927771 40 -1.4702572
        vertex 14.751081 -0 -2.721325
    endloop
endfacet
facet normal 0.94946921 -0.00027526 -0.31386018
    outer loop
        vertex 14.012586 -0 -5.352331
        vertex 14.354105 40 -4.35427
        vertex 14.441873 -0 -4.0536804
    endloop
endfacet
facet normal 0 1 0
    outer loop
        vertex 14.71178 40 -2.926355
        vertex 15 40 -0.00000000000000367394
        vertex 14.927771 40 -1.4702572
    endloop
endfacet
facet normal 0 1 0
    outer loop
        vertex 14.354105 40 -4.35427
        vertex 15 40 -0.00000000000000367394
        vertex 14.71178 40 -2.926355
    endloop
endfacet
facet normal 0 1 0
    outer loop
        vertex 13.858193 40 -5.7402515
        vertex 15 40 -0.00000000000000367394
        vertex 14.354105 40 -4.35427
    endloop
endfacet
facet normal 0 1 0
    outer loop
        vertex 13.228819 40 -7.070951
        vertex 15 40 -0.00000000000000367394
        vertex 13.858193 40 -5.7402515
    endloop
endfacet
facet normal 0 1 0
    outer loop
        vertex 12.472044 40 -8.333553
        vertex 15 40 -0.00000000000000367394
        vertex 13.228819 40 -7.070951
    endloop
endfacet
facet normal 0 1 0
    outer loop
        vertex 11.595157 40 -9.5159
        vertex 15 40 -0.00000000000000367394
        vertex 12.472044 40 -8.333553
    endloop
endfacet
facet normal 0 1 0
    outer loop
        vertex 10.606602 40 -10.606602
        vertex 15 40 -0.00000000000000367394
        vertex 11.595157 40 -9.5159
    endloop
endfacet
facet normal 0 0.99999994 0
    outer loop
        vertex 9.5159 40 -11.595157
        vertex 15 40 -0.00000000000000367394
        vertex 10.606602 40 -10.606602
    endloop
endfacet
facet normal 0 1 0
    outer loop
        vertex 8.333553 40 -12.472044
        vertex 15 40 -0.00000000000000367394
        vertex 9.5159 40 -11.595157
    endloop
endfacet
facet normal 0 0.99999994 0
    outer loop
        vertex 7.070951 40 -13.228819
        vertex 15 40 -0.00000000000000367394
        vertex 8.333553 40 -12.472044
    endloop
endfacet
facet normal 0 1 0
    outer loop
        vertex 5.7402515 40 -13.858193
        vertex 15 40 -0.00000000000000367394
        vertex 7.070951 40 -13.228819
    endloop
endfacet
facet normal 0 1 -0
    outer loop
        vertex 4.35427 40 -14.354105
        vertex 2.926355 40 -14.71178
        vertex 15 40 -0.00000000000000367394
    endloop
endfacet
facet normal 0 1 0
    outer loop
        vertex 4.35427 40 -14.354105
        vertex 15 40 -0.00000000000000367394
        vertex 5.7402515 40 -13.858193
    endloop
endfacet
facet normal 0 1 -0
    outer loop
        vertex 2.926355 40 -14.71178
        vertex 1.4702572 40 -14.927771
        vertex 15 40 -0.00000000000000367394
    endloop
endfacet
facet normal 0 1 -0
    outer loop
        vertex 1.4702572 40 -14.927771
        vertex -0.0000000000000027554554 40 -15
        vertex 15 40 -0.00000000000000367394
    endloop
endfacet
facet normal 0 0.99999994 -0
    outer loop
        vertex -0.0000000000000027554554 40 -15
        vertex -1.4702572 40 -14.927771
        vertex 15 40 -0.00000000000000367394
    endloop
endfacet
facet normal 0 1 -0
    outer loop
        vertex -1.4702572 40 -14.927771
        vertex -2.926355 40 -14.71178
        vertex 15 40 -0.00000000000000367394
    endloop
endfacet
facet normal 0 0.99999994 0
    outer loop
        vertex 15 40 -0.00000000000000367394
        vertex -2.926355 40 -14.71178
        vertex -4.35427 40 -14.354105
    endloop
endfacet
facet normal 0 1 0
    outer loop
        vertex 15 40 -0.00000000000000367394
        vertex -4.35427 40 -14.354105
        vertex -5.7402515 40 -13.858193
    endloop
endfacet
facet normal 0 1 0
    outer loop
        vertex 15 40 -0.00000000000000367394
        vertex -5.7402515 40 -13.858193
        vertex -7.070951 40 -13.228819
    endloop
endfacet
facet normal 0 1 0
    outer loop
        vertex 15 40 -0.00000000000000367394
        vertex -7.070951 40 -13.228819
        vertex -8.333553 40 -12.472044
    endloop
endfacet
facet normal 0 1 0
    outer loop
        vertex 15 40 -0.00000000000000367394
        vertex -8.333553 40 -12.472044
        vertex -9.5159 40 -11.595157
    endloop
endfacet
facet normal 0 1 0
    outer loop
        vertex 15 40 -0.00000000000000367394
        vertex -9.5159 40 -11.595157
        vertex -10.606602 40 -10.606602
    endloop
endfacet
facet normal 0 1 0
    outer loop
        vertex 15 40 -0.00000000000000367394
        vertex -10.606602 40 -10.606602
        vertex -11.595157 40 -9.5159
    endloop
endfacet
facet normal 0 1 0
    outer loop
        vertex 15 40 -0.00000000000000367394
        vertex -11.595157 40 -9.5159
        vertex -12.472044 40 -8.333553
    endloop
endfacet
facet normal -0 1 0
    outer loop
        vertex -13.858193 40 -5.7402515
        vertex 15 40 -0.00000000000000367394
        vertex -13.228819 40 -7.070951
    endloop
endfacet
facet normal 0 1 0
    outer loop
        vertex 15 40 -0.00000000000000367394
        vertex -12.472044 40 -8.333553
        vertex -13.228819 40 -7.070951
    endloop
endfacet
facet normal -0 1 0
    outer loop
        vertex -14.354105 40 -4.35427
        vertex 15 40 -0.00000000000000367394
        vertex -13.858193 40 -5.7402515
    endloop
endfacet
facet normal -0 1 0
    outer loop
        vertex -14.71178 40 -2.926355
        vertex 15 40 -0.00000000000000367394
        vertex -14.354105 40 -4.35427
    endloop
endfacet
facet normal 0 1 -0
    outer loop
        vertex -14.927771 40 -1.4702572
        vertex -15 40 0.00000000000000183697
        vertex 15 40 -0.00000000000000367394
    endloop
endfacet
facet normal -0 1 0
    outer loop
        vertex -15 40 0.00000000000000183697
        vertex -14.927771 40 1.4702572
        vertex 15 40 -0.00000000000000367394
    endloop
endfacet
facet normal -0 1 0
    outer loop
        vertex -14.927771 40 1.4702572
        vertex -14.71178 40 2.926355
        vertex 15 40 -0.00000000000000367394
    endloop
endfacet
facet normal 0 1 0
    outer loop
        vertex 15 40 -0.00000000000000367394
        vertex -14.71178 40 2.926355
        vertex -14.354105 40 4.35427
    endloop
endfacet
facet normal 0 1 0
    outer loop
        vertex 15 40 -0.00000000000000367394
        vertex -14.354105 40 4.35427
        vertex -13.858193 40 5.7402515
    endloop
endfacet
facet normal 0 1 0
    outer loop
        vertex 15 40 -0.00000000000000367394
        vertex -13.858193 40 5.7402515
        vertex -13.228819 40 7.070951
    endloop
endfacet
facet normal 0 1 0
    outer loop
        vertex 15 40 -0.00000000000000367394
        vertex -13.228819 40 7.070951
        vertex -12.472044 40 8.333553
    endloop
endfacet
facet normal 0 1 0
    outer loop
        vertex 15 40 -0.00000000000000367394
        vertex -12.472044 40 8.333553
        vertex -11.595157 40 9.5159
    endloop
endfacet
facet normal 0 1 0
    outer loop
        vertex 15 40 -0.00000000000000367394
        vertex -11.595157 40 9.5159
        vertex -10.606602 40 10.606602
    endloop
endfacet
facet normal 0 1 0
    outer loop
        vertex 15 40 -0.00000000000000367394
        vertex -10.606602 40 10.606602
        vertex -9.5159 40 11.595157
    endloop
endfacet
facet normal 0 1 0
    outer loop
        vertex 15 40 -0.00000000000000367394
        vertex -9.5159 40 11.595157
        vertex -8.333553 40 12.472044
    endloop
endfacet
facet normal 0 1 0
    outer loop
        vertex -5.7402515 40 13.858193
        vertex 15 40 -0.00000000000000367394
        vertex -7.070951 40 13.228819
    endloop
endfacet
facet normal 0 1 0
    outer loop
        vertex 15 40 -0.00000000000000367394
        vertex -8.333553 40 12.472044
        vertex -7.070951 40 13.228819
    endloop
endfacet
facet normal 0 1 0
    outer loop
        vertex -4.35427 40 14.354105
        vertex 15 40 -0.00000000000000367394
        vertex -5.7402515 40 13.858193
    endloop
endfacet
facet normal 0 1 0
    outer loop
        vertex -2.926355 40 14.71178
        vertex 15 40 -0.00000000000000367394
        vertex -4.35427 40 14.354105
    endloop
endfacet
facet normal 0 1 0
    outer loop
        vertex -1.4702572 40 14.927771
        vertex 15 40 -0.00000000000000367394
        vertex -2.926355 40 14.71178
    endloop
endfacet
facet normal 0 0.99999994 0
    outer loop
        vertex 0.000000000000000918485 40 15
        vertex 15 40 -0.00000000000000367394
        vertex -1.4702572 40 14.927771
    endloop
endfacet
facet normal 0 1 0
    outer loop
        vertex 1.4702572 40 14.927771
        vertex 15 40 -0.00000000000000367394
        vertex 0.000000000000000918485 40 15
    endloop
endfacet
facet normal 0 1 0
    outer loop
        vertex 1.4702572 40 14.927771
        vertex 2.926355 40 14.71178
        vertex 15 40 -0.00000000000000367394
    endloop
endfacet
facet normal 0 1 0
    outer loop
        vertex 2.926355 40 14.71178
        vertex 4.35427 40 14.354105
        vertex 15 40 -0.00000000000000367394
    endloop
endfacet
facet normal 0 1 0
    outer loop
        vertex 4.35427 40 14.354105
        vertex 5.7402515 40 13.858193
        vertex 15 40 -0.00000000000000367394
    endloop
endfacet
facet normal 0 1 0
    outer loop
        vertex 5.7402515 40 13.858193
        vertex 7.070951 40 13.228819
        vertex 15 40 -0.00000000000000367394
    endloop
endfacet
facet normal 0 0.99999994 0
    outer loop
        vertex 7.070951 40 13.228819
        vertex 8.333553 40 12.472044
        vertex 15 40 -0.00000000000000367394
    endloop
endfacet
facet normal 0 1 0
    outer loop
        vertex 8.333553 40 12.472044
        vertex 9.5159 40 11.595157
        vertex 15 40 -0.00000000000000367394
    endloop
endfacet
facet normal 0 0.99999994 0
    outer loop
        vertex 9.5159 40 11.595157
        vertex 10.606602 40 10.606602
        vertex 15 40 -0.00000000000000367394
    endloop
endfacet
facet normal 0 1 0
    outer loop
        vertex 10.606602 40 10.606602
        vertex 11.595157 40 9.5159
        vertex 15 40 -0.00000000000000367394
    endloop
endfacet
facet normal 0 1 0
    outer loop
        vertex 15 40 -0.00000000000000367394
        vertex 12.472044 40 8.333553
        vertex 13.228819 40 7.070951
    endloop
endfacet
facet normal 0 1 0
    outer loop
        vertex 11.595157 40 9.5159
        vertex 12.472044 40 8.333553
        vertex 15 40 -0.00000000000000367394
    endloop
endfacet
facet normal 0 1 0
    outer loop
        vertex 15 40 -0.00000000000000367394
        vertex 13.228819 40 7.070951
        vertex 13.858193 40 5.7402515
    endloop
endfacet
facet normal 0 1 0
    outer loop
        vertex 15 40 -0.00000000000000367394
        vertex 13.858193 40 5.7402515
        vertex 14.354105 40 4.35427
    endloop
endfacet
facet normal 0 1 0
    outer loop
        vertex 15 40 -0.00000000000000367394
        vertex 14.354105 40 4.35427
        vertex 14.71178 40 2.926355
    endloop
endfacet
facet normal 0 0.99999994 0
    outer loop
        vertex 15 40 -0.00000000000000367394
        vertex 14.71178 40 2.926355
        vertex 14.751081 40 2.721325
    endloop
endfacet
facet normal 0 1 0
    outer loop
        vertex 15 40 -0.00000000000000367394
        vertex 14.751081 40 2.721325
        vertex 14.927771 40 1.4702572
    endloop
endfacet
facet normal -0 1 0
    outer loop
        vertex -14.927771 40 -1.4702572
        vertex 15 40 -0.00000000000000367394
        vertex -14.71178 40 -2.926355
    endloop
endfacet
endsolid unnamed
