solid unnamed
facet normal -1 0 0
    outer loop
        vertex -50 -2.5 25
        vertex -50 2.5 25
        vertex -50 -2.5 -25
    endloop
endfacet
facet normal -1 0 -0
    outer loop
        vertex -50 2.5 25
        vertex -50 2.5 -25
        vertex -50 -2.5 -25
    endloop
endfacet
facet normal 1 -0 0
    outer loop
        vertex 50 -2.5 25
        vertex 50 -2.5 -25
        vertex 50 2.5 25
    endloop
endfacet
facet normal 1 0 0
    outer loop
        vertex 50 2.5 25
        vertex 50 -2.5 -25
        vertex 50 2.5 -25
    endloop
endfacet
facet normal 0 0 -1
    outer loop
        vertex 50 -2.5 -25
        vertex -50 2.5 -25
        vertex 50 2.5 -25
    endloop
endfacet
facet normal 0 0 -1
    outer loop
        vertex -50 -2.5 -25
        vertex -50 2.5 -25
        vertex 50 -2.5 -25
    endloop
endfacet
facet normal 0 -0 1
    outer loop
        vertex 50 -2.5 25
        vertex 50 2.5 25
        vertex -50 2.5 25
    endloop
endfacet
facet normal 0 0 1
    outer loop
        vertex -50 -2.5 25
        vertex 50 -2.5 25
        vertex -50 2.5 25
    endloop
endfacet
facet normal 0 1 0
    outer loop
        vertex 50 2.5 25
        vertex -50 2.5 -25
        vertex -50 2.5 25
    endloop
endfacet
facet normal 0 1 -0
    outer loop
        vertex 50 2.5 -25
        vertex -50 2.5 -25
        vertex 50 2.5 25
    endloop
endfacet
facet normal -0 -1 0
    outer loop
        vertex 50 -2.5 25
        vertex -50 -2.5 25
        vertex -50 -2.5 -25
    endloop
endfacet
facet normal 0 -1 0
    outer loop
        vertex 50 -2.5 -25
        vertex 50 -2.5 25
        vertex -50 -2.5 -25
    endloop
endfacet
endsolid unnamed
